<?xml version="1.0" encoding="UTF-8" standalone="no"?>
<svg
   width="350.36307"
   height="321.31699"
   viewBox="0 0 350.36307 321.31699"
   fill="none"
   version="1.1"
   id="svg232"
   sodipodi:docname="6e2e1cbc1611de983b048ae8f6627117.svg"
   xmlns:inkscape="http://www.inkscape.org/namespaces/inkscape"
   xmlns:sodipodi="http://sodipodi.sourceforge.net/DTD/sodipodi-0.dtd"
   xmlns="http://www.w3.org/2000/svg"
   xmlns:svg="http://www.w3.org/2000/svg">
  <defs
     id="defs236" />
  <sodipodi:namedview
     id="namedview234"
     pagecolor="#ffffff"
     bordercolor="#666666"
     borderopacity="1.0"
     inkscape:pageshadow="2"
     inkscape:pageopacity="0.0"
     inkscape:pagecheckerboard="0" />
  <path
     d="M 5.988667,189.70644 H 349.45554"
     stroke="#263238"
     stroke-width="0.363074"
     stroke-linecap="round"
     stroke-linejoin="round"
     id="path2" />
  <path
     d="M 5.988667,194.78944 H 349.45554"
     stroke="#263238"
     stroke-width="0.363074"
     stroke-linecap="round"
     stroke-linejoin="round"
     id="path4" />
  <path
     d="M 266.72354,0.181537 H 8.938127 V 158.48544 H 266.72354 Z"
     stroke="#263238"
     stroke-width="0.363074"
     stroke-linecap="round"
     stroke-linejoin="round"
     id="path6" />
  <path
     d="M 266.72354,150.14844 H 8.938377 v 8.329 H 266.72354 Z"
     fill="#969696"
     stroke="#263238"
     stroke-width="0.363074"
     stroke-linecap="round"
     stroke-linejoin="round"
     id="path8" />
  <path
     d="M 266.72354,158.39344 H 8.938377 v 5.334 H 266.72354 Z"
     fill="#263238"
     stroke="#263238"
     stroke-width="0.363074"
     stroke-miterlimit="10"
     id="path10" />
  <path
     d="m 296.57854,241.69944 -0.245,79.125 h -2.72 l -6.182,-79.125 z"
     fill="#263238"
     stroke="#263238"
     stroke-width="0.363074"
     stroke-linecap="round"
     stroke-linejoin="round"
     id="path12" />
  <path
     d="m 326.74554,241.69944 -0.244,79.125 h -2.72 l -6.182,-79.125 z"
     fill="#ffae0a"
     stroke="#263238"
     stroke-width="0.363074"
     stroke-linecap="round"
     stroke-linejoin="round"
     id="path14" />
  <path
     d="m 326.73054,245.79444 h -8.81 l -0.321,-4.095 h 9.146 z"
     fill="#263238"
     stroke="#263238"
     stroke-width="0.363074"
     stroke-linecap="round"
     stroke-linejoin="round"
     id="path16" />
  <path
     d="m 284.71154,241.69944 0.244,79.125 h 2.72 l 6.182,-79.125 z"
     fill="#ffae0a"
     stroke="#263238"
     stroke-width="0.363074"
     stroke-linecap="round"
     stroke-linejoin="round"
     id="path18" />
  <path
     d="m 293.53654,245.79444 h -8.818 l -0.007,-4.095 h 9.146 z"
     fill="#263238"
     stroke="#263238"
     stroke-width="0.363074"
     stroke-linecap="round"
     stroke-linejoin="round"
     id="path20" />
  <path
     d="m 244.11354,241.69944 0.252,79.125 h 2.72 l 6.182,-79.125 z"
     fill="#ffae0a"
     stroke="#263238"
     stroke-width="0.363074"
     stroke-linecap="round"
     stroke-linejoin="round"
     id="path22" />
  <path
     d="m 252.94654,245.79444 h -8.818 l -0.015,-4.095 h 9.154 z"
     fill="#263238"
     stroke="#263238"
     stroke-width="0.363074"
     stroke-linecap="round"
     stroke-linejoin="round"
     id="path24" />
  <path
     d="m 333.92154,173.50844 -5.747,64.706 h -52.113 l -2.14,-65.394 c -0.026,-0.919 0.132,-1.835 0.466,-2.692 0.333,-0.858 0.836,-1.64 1.477,-2.299 0.641,-0.66 1.408,-1.185 2.256,-1.543 0.848,-0.358 1.758,-0.542 2.679,-0.541 l 46.328,0.305 c 0.947,0.008 1.883,0.212 2.747,0.599 0.865,0.386 1.64,0.947 2.278,1.647 0.638,0.7 1.124,1.525 1.428,2.421 0.305,0.897 0.421,1.847 0.341,2.791 z"
     fill="#ffae0a"
     stroke="#263238"
     stroke-width="0.363074"
     stroke-linecap="round"
     stroke-linejoin="round"
     id="path26" />
  <path
     d="m 330.71954,173.50844 -5.754,64.706 h -52.083 l -2.17,-65.394 c -0.027,-0.919 0.132,-1.835 0.465,-2.692 0.334,-0.858 0.836,-1.64 1.478,-2.299 0.641,-0.66 1.408,-1.185 2.256,-1.543 0.847,-0.358 1.758,-0.542 2.678,-0.541 l 46.337,0.305 c 0.947,0.008 1.882,0.212 2.746,0.599 0.865,0.386 1.641,0.947 2.278,1.647 0.638,0.7 1.124,1.525 1.429,2.421 0.304,0.897 0.42,1.847 0.34,2.791 z"
     fill="#263238"
     stroke="#263238"
     stroke-width="0.363074"
     stroke-linecap="round"
     stroke-linejoin="round"
     id="path28" />
  <path
     d="m 240.76654,242.62344 h 88.203 v -5.877 h -88.203 z"
     fill="#ffae0a"
     stroke="#263238"
     stroke-width="0.363074"
     stroke-linecap="round"
     stroke-linejoin="round"
     id="path30" />
  <path
     d="m 328.96954,236.73944 -0.764,-1.123 c -1.058,-1.57 -2.485,-2.855 -4.156,-3.744 -1.671,-0.889 -3.534,-1.353 -5.427,-1.353 h -67.288 c -1.702,0.003 -3.381,0.382 -4.919,1.109 -1.538,0.728 -2.895,1.787 -3.976,3.101 l -1.65,2.01 z"
     fill="#263238"
     stroke="#263238"
     stroke-width="0.363074"
     stroke-linecap="round"
     stroke-linejoin="round"
     id="path32" />
  <path
     d="m 240.76654,242.62344 h 50.012 v -5.877 h -50.012 z"
     fill="#ffae0a"
     stroke="#263238"
     stroke-width="0.363074"
     stroke-linecap="round"
     stroke-linejoin="round"
     id="path34" />
  <path
     d="m 283.94754,181.91444 c 0.536,0.675 0.829,1.513 0.829,2.376 0,0.863 -0.293,1.701 -0.829,2.376 h 26.744 l 1.009,-2.59 -1.292,-2.292 z"
     fill="#ffffff"
     stroke="#263238"
     stroke-width="0.363074"
     stroke-linecap="round"
     stroke-linejoin="round"
     id="path36" />
  <path
     d="m 310.72254,186.54444 v -4.34 h -24.728 v -1.085 h 35.265 c 0.863,0 1.691,0.343 2.302,0.953 0.61,0.61 0.953,1.438 0.953,2.302 0,0.863 -0.343,1.691 -0.953,2.302 -0.611,0.61 -1.439,0.953 -2.302,0.953 h -35.265 v -1.085 z"
     fill="#ffae0a"
     stroke="#263238"
     stroke-width="0.363074"
     stroke-linecap="round"
     stroke-linejoin="round"
     id="path38" />
  <path
     d="m 310.72154,184.35844 c 0,-0.575 -0.228,-1.127 -0.635,-1.534 -0.407,-0.407 -0.959,-0.636 -1.535,-0.636 h -25.896 v -1.085 h 26.508 c 0.829,0 1.623,0.329 2.21,0.915 0.586,0.586 0.915,1.381 0.915,2.21 0,0.898 -0.357,1.759 -0.992,2.394 -0.634,0.635 -1.495,0.991 -2.393,0.991 h -26.248 v -1.085 h 25.896 c 0.576,0 1.128,-0.228 1.535,-0.635 0.407,-0.407 0.635,-0.959 0.635,-1.535 z"
     fill="#ffae0a"
     stroke="#263238"
     stroke-width="0.363074"
     stroke-linecap="round"
     stroke-linejoin="round"
     id="path40" />
  <path
     d="m 283.31254,175.32744 c 0.537,0.675 0.829,1.513 0.829,2.376 0,0.863 -0.292,1.701 -0.829,2.376 h 26.745 l 1.008,-2.59 -1.291,-2.292 z"
     fill="#ffffff"
     stroke="#263238"
     stroke-width="0.363074"
     stroke-linecap="round"
     stroke-linejoin="round"
     id="path42" />
  <path
     d="m 310.08754,179.95744 v -4.34 h -24.696 v -1.085 h 35.264 c 0.863,0 1.691,0.343 2.302,0.953 0.61,0.611 0.953,1.439 0.953,2.302 0,0.863 -0.343,1.691 -0.953,2.302 -0.611,0.61 -1.439,0.953 -2.302,0.953 h -35.264 v -1.085 z"
     fill="#ffae0a"
     stroke="#263238"
     stroke-width="0.363074"
     stroke-linecap="round"
     stroke-linejoin="round"
     id="path44" />
  <path
     d="m 310.08754,177.78744 c 0,-0.576 -0.228,-1.128 -0.635,-1.535 -0.407,-0.407 -0.959,-0.635 -1.535,-0.635 h -25.896 v -1.085 h 26.507 c 0.829,0 1.624,0.329 2.21,0.915 0.586,0.586 0.916,1.381 0.916,2.21 0,0.445 -0.088,0.886 -0.259,1.297 -0.17,0.411 -0.42,0.785 -0.736,1.099 -0.315,0.315 -0.689,0.564 -1.1,0.734 -0.412,0.169 -0.853,0.256 -1.298,0.255 h -26.24 v -1.085 h 25.896 c 0.576,0 1.128,-0.229 1.535,-0.636 0.407,-0.407 0.635,-0.959 0.635,-1.534 z"
     fill="#ffae0a"
     stroke="#263238"
     stroke-width="0.363074"
     stroke-linecap="round"
     stroke-linejoin="round"
     id="path46" />
  <path
     d="m 324.29254,178.15444 -1.314,-12.379"
     stroke="#263238"
     stroke-width="0.363074"
     stroke-linecap="round"
     stroke-linejoin="round"
     id="path48" />
  <path
     d="m 322.97054,166.12644 c 0,0 -2.368,-1.842 -2.368,-6.06 0,-4.217 3.155,-7.641 3.155,-7.641 0,0 3.424,4.211 2.637,8.406 -0.787,4.195 -3.424,5.295 -3.424,5.295 z"
     fill="#ffae0a"
     stroke="#263238"
     stroke-width="0.363074"
     stroke-linecap="round"
     stroke-linejoin="round"
     id="path50" />
  <path
     d="m 325.50754,177.23744 c 1.148,-2.962 2.551,-5.818 4.195,-8.535"
     stroke="#263238"
     stroke-width="0.363074"
     stroke-linecap="round"
     stroke-linejoin="round"
     id="path52" />
  <path
     d="m 328.46554,170.94044 c 0,0 -1.315,-2.705 0.542,-6.48 1.857,-3.775 6.205,-5.456 6.205,-5.456 0,0 1.215,5.288 -1.353,8.719 -2.567,3.431 -5.394,3.217 -5.394,3.217 z"
     fill="#ffae0a"
     stroke="#263238"
     stroke-width="0.363074"
     stroke-linecap="round"
     stroke-linejoin="round"
     id="path54" />
  <path
     d="m 322.15354,178.34544 c -0.71,-2.392 -1.681,-4.698 -2.896,-6.877 l -1.842,-3.156"
     stroke="#263238"
     stroke-width="0.363074"
     stroke-linecap="round"
     stroke-linejoin="round"
     id="path56" />
  <path
     d="m 318.89854,170.78044 c -1.456,0.449 -3.001,0.522 -4.492,0.212 -1.492,-0.31 -2.88,-0.993 -4.036,-1.985 -4.088,-3.438 -3.821,-10.445 -3.821,-10.445 0,0 7.924,-1.131 11.126,3.362 0.921,1.259 1.515,2.728 1.729,4.274 0.213,1.546 0.039,3.12 -0.506,4.582 z"
     fill="#ffae0a"
     stroke="#263238"
     stroke-width="0.363074"
     stroke-linecap="round"
     stroke-linejoin="round"
     id="path58" />
  <path
     d="m 330.35254,174.20444 h -13.693 v 13.425 h 13.693 z"
     fill="#ffffff"
     stroke="#263238"
     stroke-width="0.363074"
     stroke-linecap="round"
     stroke-linejoin="round"
     id="path60" />
  <path
     d="m 211.99754,180.36244 12.287,-46.879"
     stroke="#263238"
     stroke-width="0.363074"
     stroke-miterlimit="10"
     id="path62" />
  <path
     d="m 221.93854,132.59644 c -0.06,0.248 -0.02,0.509 0.112,0.726 0.132,0.218 0.344,0.375 0.591,0.436 6.002,1.593 11.133,5.491 14.278,10.846 3.145,5.355 4.05,11.735 2.518,17.753 -1.532,6.019 -5.377,11.189 -10.7,14.389 -5.322,3.2 -11.692,4.169 -17.726,2.699 -0.119,-0.031 -0.243,-0.038 -0.365,-0.021 -0.121,0.017 -0.238,0.058 -0.344,0.12 -0.106,0.063 -0.198,0.146 -0.272,0.244 -0.074,0.098 -0.127,0.21 -0.158,0.329 v 0.046 c -0.031,0.118 -0.038,0.24 -0.021,0.36 0.017,0.121 0.057,0.236 0.119,0.341 0.062,0.104 0.144,0.196 0.241,0.268 0.098,0.073 0.208,0.125 0.326,0.155 6.53,1.614 13.434,0.58 19.205,-2.877 5.77,-3.456 9.94,-9.055 11.598,-15.574 1.659,-6.519 0.672,-13.429 -2.746,-19.223 -3.417,-5.794 -8.987,-10.002 -15.495,-11.704 -0.121,-0.032 -0.248,-0.04 -0.372,-0.023 -0.124,0.018 -0.244,0.06 -0.352,0.124 -0.108,0.064 -0.203,0.148 -0.278,0.249 -0.075,0.101 -0.129,0.216 -0.159,0.337 z"
     fill="#263238"
     stroke="#263238"
     stroke-width="0.363074"
     stroke-miterlimit="10"
     id="path64" />
  <path
     d="m 216.58154,178.07744 c 11.897,0 21.541,-9.644 21.541,-21.541 0,-11.896 -9.644,-21.54 -21.541,-21.54 -11.896,0 -21.54,9.644 -21.54,21.54 0,11.897 9.644,21.541 21.54,21.541 z"
     fill="#ffae0a"
     stroke="#263238"
     stroke-width="0.363074"
     stroke-miterlimit="10"
     id="path66" />
  <path
     d="m 216.35254,186.07744 h -4.722 l 0.542,-4.844 h 3.63 z"
     fill="#263238"
     stroke="#263238"
     stroke-width="0.363074"
     stroke-miterlimit="10"
     id="path68" />
  <path
     d="m 225.14754,187.62944 h -22.16 c 0,-0.273 0.054,-0.543 0.159,-0.794 0.104,-0.252 0.258,-0.481 0.451,-0.673 0.193,-0.193 0.422,-0.345 0.674,-0.449 0.252,-0.103 0.522,-0.156 0.795,-0.155 h 17.987 c 0.273,-10e-4 0.543,0.052 0.795,0.155 0.252,0.104 0.481,0.256 0.675,0.449 0.193,0.192 0.346,0.421 0.45,0.673 0.105,0.251 0.159,0.521 0.159,0.794 z"
     fill="#263238"
     stroke="#263238"
     stroke-width="0.363074"
     stroke-miterlimit="10"
     id="path70" />
  <path
     d="m 229.89254,151.27244 c 1.529,0.512 1.796,0 2.56,0.764 0.764,0.764 2.293,2.819 2.056,4.355 -0.237,1.536 -1.032,3.057 0,3.057 1.031,0 2.047,-1.528 2.047,-2.292 0,-0.765 0.512,-4.364 0.512,-4.364 l 0.451,-1.337 c -1.204,-4.966 -4.135,-9.343 -8.268,-12.348 l -0.641,0.099 -2.056,1.276 c -1.528,0 -2.048,-0.512 -3.056,-0.512 -1.003,-0.113 -2.012,0.16 -2.82,0.764 -1.024,0.765 -2.048,2.293 -1.024,2.568 0.748,0.194 1.52,0.279 2.292,0.252 0.765,0 1.024,-0.764 0.765,0 -0.189,0.385 -0.481,0.709 -0.845,0.936 -0.363,0.227 -0.783,0.347 -1.211,0.348 -0.781,-0.086 -1.549,-0.258 -2.292,-0.512 -2.293,-0.764 -3.332,-1.284 -4.356,-0.764 -1.024,0.519 -2.055,0.512 -2.292,1.283 -0.217,0.754 -0.39,1.52 -0.52,2.293 0.063,0.171 0.165,0.325 0.298,0.449 0.134,0.124 0.294,0.214 0.47,0.264 0.175,0.05 0.359,0.058 0.538,0.023 0.179,-0.035 0.347,-0.112 0.49,-0.224 0.716,-0.44 1.487,-0.784 2.292,-1.024 h 1.032 l 1.024,1.796 1.024,1.023 c 0.303,-0.723 0.393,-1.519 0.259,-2.292 0.765,-0.512 2.293,1.284 2.293,1.284 l 1.284,0.252 2.292,0.52 0.764,1.795 -3.332,-1.283 c 0,0 -1.283,1.283 -0.764,2.047 0.317,0.477 0.573,0.99 0.764,1.529 -1.228,-0.553 -2.507,-0.983 -3.82,-1.284 -1.528,-0.26 -2.293,0.252 -2.827,-0.512 -0.535,-0.764 -1.024,-2.292 -1.796,-2.567 -0.669,-0.174 -1.357,-0.261 -2.048,-0.26 -1.03,0.009 -2.026,0.374 -2.82,1.031 -1.023,1.024 -1.528,0.764 -2.055,2.048 -0.368,1.084 -0.624,2.203 -0.764,3.339 0,0 -0.764,0 -0.764,1.529 0.051,1.211 0.222,2.414 0.512,3.591 l 2.055,1.796 c 0.559,0.28 1.166,0.453 1.788,0.512 h 2.568 l 1.795,0.512 c 0.296,0.458 0.472,0.984 0.512,1.528 -0.025,0.795 0.151,1.584 0.512,2.292 0.334,0.798 0.859,1.501 1.529,2.048 v 2.056 c -0.15,0.755 -0.237,1.522 -0.26,2.292 0,1.024 1.788,2.43 1.788,2.43 l 2.063,-0.382 c 0,0 1.796,0 2.048,-1.284 0.142,-1.001 0.491,-1.961 1.024,-2.82 0.524,-0.706 0.955,-1.476 1.283,-2.292 0.459,-1.239 0.802,-2.518 1.024,-3.821 0.26,-1.795 0.52,-2.827 0.52,-2.827 l 2.82,-3.331 c 0,0 1.024,-1.024 0.764,-2.048 -0.26,-1.024 -2.293,-1.032 -2.293,-1.032 l 2.828,-2.292 -1.299,-2.048 c 0,0 -0.26,-0.764 1.283,-0.229 z"
     fill="#ffffff"
     stroke="#263238"
     stroke-width="0.363074"
     stroke-linecap="round"
     stroke-linejoin="round"
     id="path72" />
  <path
     d="m 228.31154,169.49644 c 0,0 -5.181,4.088 -2.453,3.27 0.731,-0.164 1.38,-0.583 1.829,-1.183 0.45,-0.599 0.671,-1.34 0.624,-2.087 z"
     fill="#ffffff"
     stroke="#263238"
     stroke-width="0.363074"
     stroke-linecap="round"
     stroke-linejoin="round"
     id="path74" />
  <path
     d="m 178.93354,320.82344 h -3.118 l -1.895,-131.88 h 5.188 z"
     fill="#ffffff"
     stroke="#263238"
     stroke-width="0.363074"
     stroke-linecap="round"
     stroke-linejoin="round"
     id="path76" />
  <path
     d="m 181.50854,320.82344 h -3.11 l -0.183,-131.88 h 5.196 z"
     fill="#263238"
     stroke="#263238"
     stroke-width="0.363074"
     stroke-linecap="round"
     stroke-linejoin="round"
     id="path78" />
  <path
     d="m 198.46454,320.82344 h -3.118 l -1.895,-131.88 h 5.189 z"
     fill="#ffffff"
     stroke="#263238"
     stroke-width="0.363074"
     stroke-linecap="round"
     stroke-linejoin="round"
     id="path80" />
  <path
     d="m 201.03954,320.82344 h -3.11 l -0.183,-131.88 h 5.196 z"
     fill="#263238"
     stroke="#263238"
     stroke-width="0.363074"
     stroke-linecap="round"
     stroke-linejoin="round"
     id="path82" />
  <path
     d="m 212.73854,207.55744 h -33.018 v 51.884 h 33.018 z"
     fill="#ffffff"
     stroke="#263238"
     stroke-width="0.363074"
     stroke-linecap="round"
     stroke-linejoin="round"
     id="path84" />
  <path
     d="m 235.92954,207.55744 h -23.581 v 51.884 h 23.581 z"
     fill="#263238"
     stroke="#263238"
     stroke-width="0.363074"
     stroke-linecap="round"
     stroke-linejoin="round"
     id="path86" />
  <path
     d="m 319.49454,320.82344 h -3.11 l -1.903,-131.88 h 5.188 z"
     fill="#ffffff"
     stroke="#263238"
     stroke-width="0.363074"
     stroke-linecap="round"
     stroke-linejoin="round"
     id="path88" />
  <path
     d="m 322.07654,320.82344 h -3.117 l -0.176,-131.88 h 5.188 z"
     fill="#263238"
     stroke="#263238"
     stroke-width="0.363074"
     stroke-linecap="round"
     stroke-linejoin="round"
     id="path90" />
  <path
     d="m 334.34154,320.82344 h -3.118 l -1.895,-131.88 h 5.188 z"
     fill="#ffffff"
     stroke="#263238"
     stroke-width="0.363074"
     stroke-linecap="round"
     stroke-linejoin="round"
     id="path92" />
  <path
     d="m 336.91654,320.82344 h -3.11 l -0.184,-131.88 h 5.196 z"
     fill="#263238"
     stroke="#263238"
     stroke-width="0.363074"
     stroke-linecap="round"
     stroke-linejoin="round"
     id="path94" />
  <path
     d="m 342.53254,188.94344 h -170.789 v 18.988 h 170.789 z"
     fill="#ffffff"
     stroke="#263238"
     stroke-width="0.363074"
     stroke-linecap="round"
     stroke-linejoin="round"
     id="path96" />
  <path
     d="m 342.53254,188.94344 h -21.296 v 18.988 h 21.296 z"
     fill="#263238"
     stroke="#263238"
     stroke-width="0.363074"
     stroke-linecap="round"
     stroke-linejoin="round"
     id="path98" />
  <path
     d="m 342.53254,188.94344 h -170.789 v 8.054 h 170.789 z"
     fill="#263238"
     stroke="#263238"
     stroke-width="0.363074"
     stroke-linecap="round"
     stroke-linejoin="round"
     id="path100" />
  <path
     d="m 344.67954,187.41444 h -175.076 v 4.891 h 175.076 z"
     fill="#ffffff"
     stroke="#263238"
     stroke-width="0.363074"
     stroke-linecap="round"
     stroke-linejoin="round"
     id="path102" />
  <path
     d="m 344.67954,187.41444 h -21.006 v 4.891 h 21.006 z"
     fill="#263238"
     stroke="#263238"
     stroke-width="0.363074"
     stroke-linecap="round"
     stroke-linejoin="round"
     id="path104" />
  <path
     d="M 104.27054,316.44544 H 87.406137 c -0.4811,0 -0.8711,0.39 -0.8711,0.871 v 2.949 c 0,0.481 0.39,0.872 0.8711,0.872 h 16.864403 c 0.481,0 0.871,-0.391 0.871,-0.872 v -2.949 c 0,-0.481 -0.39,-0.871 -0.871,-0.871 z"
     fill="#263238"
     id="path106" />
  <path
     d="m 112.24854,226.46944 c 0,0 -6.045,19.103 -6.045,23.688 0,4.585 0,16.215 -2.911,26.63 -2.911,10.415 -6.777803,21.541 -7.014703,22.748 -0.1518,0.799 -0.2336,1.609 -0.2445,2.422 0,0 8.229203,11.859 8.229203,13.556 0,1.696 -1.696,2.177 -2.659,2.177 H 87.559237 c 0,0 -0.9628,-0.481 -1.4519,-4.844 -0.489,-4.363 0.7641,-12.341 0.7641,-13.311 0,-0.971 -1.4518,-14.037 -3.6296,-21.541 -2.1777,-7.504 -2.1777,-20.089 -1.9332,-23.237 0.2445,-3.148 1.4518,-8.23 1.4518,-9.934 v -13.066 z"
     fill="#ffffff"
     stroke="#263238"
     stroke-width="0.363074"
     stroke-linecap="round"
     stroke-linejoin="round"
     id="path108" />
  <path
     d="m 96.140237,312.32644 c 0,0 2.2924,2.292 1.9944,3.484 -0.1743,0.653 -0.4558,1.273 -0.8329,1.834"
     stroke="#263238"
     stroke-width="0.363074"
     stroke-linecap="round"
     stroke-linejoin="round"
     id="path110" />
  <path
     d="m 99.296537,312.32644 c 0,0 2.162003,1.161 1.826003,2.987 -0.122,0.786 -0.288,1.564 -0.497,2.331"
     stroke="#263238"
     stroke-width="0.363074"
     stroke-linecap="round"
     stroke-linejoin="round"
     id="path112" />
  <path
     d="m 101.61954,312.15844 c 0,0 2.498,2.659 1.528,3.988 -0.395,0.625 -0.916,1.161 -1.528,1.574"
     stroke="#263238"
     stroke-width="0.363074"
     stroke-linecap="round"
     stroke-linejoin="round"
     id="path114" />
  <path
     d="m 86.443637,236.61744 c 0,0 19.102903,1.528 23.496903,-2.965 l 0.986,-3.958 -25.980603,2.72 z"
     fill="#263238"
     stroke="#263238"
     stroke-width="0.363074"
     stroke-linecap="round"
     stroke-linejoin="round"
     id="path116" />
  <path
     d="m 92.449337,312.96844 c 0,0 0.6954,-0.176 2.0861,0.863 1.3907,1.039 1.9179,2.782 0.3515,3.477"
     stroke="#263238"
     stroke-width="0.363074"
     stroke-linecap="round"
     stroke-linejoin="round"
     id="path118" />
  <path
     d="m 102.11554,311.24844 c -0.764,-1.215 -1.589,-2.545 -2.415003,-3.821 -4.4513,-1.121 -9.1032,-1.189 -13.5858,-0.198 -0.0688,1.024 -0.1146,2.055 -0.1146,3.056 5.3449,-1.323 10.9661,-0.988 16.115403,0.963 z"
     fill="#263238"
     id="path120" />
  <path
     d="m 78.886237,316.44544 h -18.0792 c -0.4811,0 -0.8711,0.39 -0.8711,0.871 v 2.949 c 0,0.481 0.39,0.872 0.8711,0.872 h 18.0792 c 0.4811,0 0.8711,-0.391 0.8711,-0.872 v -2.949 c 0,-0.481 -0.39,-0.871 -0.8711,-0.871 z"
     fill="#263238"
     id="path122" />
  <path
     d="m 57.124137,225.78244 c 0,0 7.5267,16.711 6.6861,22.839 -0.8405,6.129 -4.7299,19.501 -1.6658,29.251 3.0642,9.75 6.6861,21.174 7.2439,22.847 0.5578,1.674 -6.6861,12.012 -8.0462,14.205 -1.3601,2.194 2.2312,3.057 4.4625,3.057 h 11.6605 c 0,0 1.6735,-0.558 1.6735,-3.057 0,-2.498 -2.5064,-12.814 -1.1156,-19.217 1.3907,-6.404 4.4548,-20.632 7.5189,-33.989 3.0642,-13.356 2.2313,-29.533 2.2313,-29.533 z"
     fill="#ffffff"
     stroke="#263238"
     stroke-width="0.363074"
     stroke-linecap="round"
     stroke-linejoin="round"
     id="path124" />
  <path
     d="m 64.558837,314.04444 c 0,0 -2.4529,2.66 -1.6888,3.492"
     stroke="#263238"
     stroke-width="0.363074"
     stroke-linecap="round"
     stroke-linejoin="round"
     id="path126" />
  <path
     d="m 66.889537,314.21344 c 0,0 -2.1625,2.163 -1.3296,3.492"
     stroke="#263238"
     stroke-width="0.363074"
     stroke-linecap="round"
     stroke-linejoin="round"
     id="path128" />
  <path
     d="m 69.747237,314.04444 c 0,0 -2.2924,2.491 -0.9933,3.661"
     stroke="#263238"
     stroke-width="0.363074"
     stroke-linecap="round"
     stroke-linejoin="round"
     id="path130" />
  <path
     d="m 60.715637,234.88944 c 0,0 18.0562,4.448 26.9583,0.765 l 0.0993,-3.447 -28.2726,-1.528 z"
     fill="#263238"
     stroke="#263238"
     stroke-width="0.363074"
     stroke-linecap="round"
     stroke-linejoin="round"
     id="path132" />
  <path
     d="m 73.147837,312.96744 c -0.619,0.578 -1.0951,1.293 -1.3907,2.086 -0.6953,1.529 -0.1757,2.254 1.0469,2.606"
     stroke="#263238"
     stroke-width="0.363074"
     stroke-linecap="round"
     stroke-linejoin="round"
     id="path134" />
  <path
     d="m 78.687637,311.24144 c -0.1452,-0.963 -0.3133,-2.04 -0.4661,-3.194 -5.5246,-1.628 -9.4522,-1.353 -12.0273,-0.619 -0.9857,1.582 -2.0402,3.186 -2.9419,4.539 0.3797,0 0.7445,-0.148 1.0163,-0.413 0.0458,-0.038 4.0881,-3.805 14.419,-0.313 z"
     fill="#263238"
     id="path136" />
  <path
     d="m 43.507437,167.76944 c 0,0 -4.3556,9.804 -2.1778,25.415 2.1778,15.611 9.4446,36.311 9.4446,36.311 11.2609,2.923 22.8508,4.387 34.485,4.356 19.607303,0 29.036303,-4.723 29.036303,-4.723 0,0 7.26,-27.592 7.26,-42.844 0,-15.252 -3.997,-23.955 -3.997,-23.955 0,0 -34.851503,7.641 -67.166403,-3.271 z"
     fill="#263238"
     stroke="#263238"
     stroke-width="0.363074"
     stroke-linecap="round"
     stroke-linejoin="round"
     id="path138" />
  <path
     d="m 89.072137,213.57144 1.2379,1.78"
     stroke="#787878"
     stroke-width="0.363074"
     stroke-linecap="round"
     stroke-linejoin="round"
     id="path140" />
  <path
     d="m 73.423037,191.13544 14.1974,20.364"
     stroke="#787878"
     stroke-width="0.363074"
     stroke-linecap="round"
     stroke-linejoin="round"
     id="path142" />
  <path
     d="m 85.641237,202.23944 8.222,10.888"
     stroke="#787878"
     stroke-width="0.363074"
     stroke-linecap="round"
     stroke-linejoin="round"
     id="path144" />
  <path
     d="m 62.106337,232.00944 c 0,0 21.5407,4.439 47.979203,-0.886"
     stroke="#787878"
     stroke-width="0.363074"
     stroke-linecap="round"
     stroke-linejoin="round"
     id="path146" />
  <path
     d="m 78.725937,89.347443 -16.337,-1.0927 c 0,0 3.9963,26.507697 -1.8187,42.844697 -5.815,16.337 -10.1628,27.959 -10.1628,27.959 l -3.9964,7.641 c 8.4649,2.995 17.2298,5.063 26.1407,6.167 13.441,1.452 25.7816,2.185 32.314803,0.726 4.441,-1.041 8.809,-2.374 13.074,-3.989 0,0 -12.348,-31.604 -12.348,-48.667 0.03,-10.118 -1.283,-20.196 -3.905,-29.968997 l -6.288403,-0.7641 z"
     fill="#ffffff"
     stroke="#263238"
     stroke-width="0.363074"
     stroke-linecap="round"
     stroke-linejoin="round"
     id="path148" />
  <path
     d="m 95.001737,108.83144 -5.028,65.463 4.4014,0.627 z"
     fill="#263238"
     stroke="#263238"
     stroke-width="0.363074"
     stroke-linecap="round"
     stroke-linejoin="round"
     id="path150" />
  <path
     d="m 77.640937,71.007743 c 0.7642,1.2302 -0.0458,12.226 -0.1604,14.4343 -0.1146,2.2083 -1.1004,3.8206 -3.4692,3.1787 -5.0967,-1.4365 -3.9963,1.9944 -3.9963,1.9944 0,0 -0.7259,7.9928 3.2628,14.518297 3.9887,6.526 14.7094,7.802 19.6074,4.722 4.8981,-3.079 5.6316,-18.078797 5.6316,-18.078797 l -3.1176,-1.5283 c -0.8047,-0.4023 -1.478,-1.0257 -1.9409,-1.7972 -0.4629,-0.7714 -0.6961,-1.6589 -0.6724,-2.5583 l 0.4661,-8.6881 c 0,0 -10.713,1.4289 -15.6111,-6.197 z"
     fill="#ffffff"
     stroke="#263238"
     stroke-width="0.363074"
     stroke-linecap="round"
     stroke-linejoin="round"
     id="path152" />
  <path
     d="m 93.252037,77.181843 c 0,0 -10.6978,1.4518 -15.6111,-6.1741 0.7183,1.1309 0.0841,10.4073 -0.1222,13.6854 1.4377,1.177 3.1529,1.9662 4.9821,2.2924 3.6143,0.4126 7.4043,-1.1003 10.3921,-3.003 z"
     fill="#263238"
     stroke="#263238"
     stroke-width="0.363074"
     stroke-linecap="round"
     stroke-linejoin="round"
     id="path154" />
  <path
     d="m 76.013237,88.078743 c 0,0 -9.0854,-0.3591 -17.2539,-0.5425 -8.1685,-0.1834 -12.1649,0.5501 -15.2826,2.1854 -3.1176,1.6352 -23.237,20.325797 -24.5055,23.412797 -1.2684,3.087 -2.5751,6.762 5.2343,6.946 7.8094,0.183 23.9935,-4.768 23.9935,-4.768 0,0 6.0213,15.787 5.5017,22.87 -0.5196,7.083 -5.2648,17.789 -9.2612,24.146 -3.9963,6.358 -3.9963,9.254 -3.9963,9.254 0,0 4.3631,7.083 15.7944,9.804 6.7301,1.623 13.6006,2.595 20.5168,2.903 l -1.8186,-40.842 z"
     fill="#ffae0a"
     stroke="#263238"
     stroke-width="0.363074"
     stroke-linecap="round"
     stroke-linejoin="round"
     id="path156" />
  <path
     d="m 45.333737,107.08944 2.8961,8.215 -4.3173,-5.38"
     stroke="#263238"
     stroke-width="0.363074"
     stroke-linecap="round"
     stroke-linejoin="round"
     id="path158" />
  <path
     d="m 41.329637,106.77644 -22.6181,11.721 c 0.8176,0.902 2.4758,1.529 5.5247,1.575 2.5116,-0.028 5.0155,-0.283 7.4807,-0.765 z"
     fill="#263238"
     stroke="#263238"
     stroke-width="0.363074"
     stroke-linecap="round"
     stroke-linejoin="round"
     id="path160" />
  <path
     d="m 68.754337,88.033143 c 0,5.3488 0,24.498297 0.894,33.988297 0.7641,7.977 3.7366,17.827 5.3489,22.725 l -0.0612,-1.299 1.0774,-55.368497 c 0,0 -3.0717,0 -7.2591,-0.0458 z"
     fill="#ffae0a"
     stroke="#263238"
     stroke-width="0.363074"
     stroke-linecap="round"
     stroke-linejoin="round"
     id="path162" />
  <path
     d="m 95.399337,90.225443 c 0,0 -1.2379,41.781997 -1.6047,47.772997 -0.3668,5.991 -2.3611,46.833 -2.3611,46.833 5.7837,-0.007 11.492003,-1.312 16.704003,-3.82 8.711,-4.18 13.433,-7.267 14.518,-9.078 1.085,-1.811 -0.909,-5.265 -2.544,-10.53 -1.636,-5.265 -3.997,-13.257 -4.539,-15.978 -0.543,-2.72 -0.184,-9.437 -0.184,-9.437 0,0 8.719,8.528 11.256,7.802 2.537,-0.726 19.607,4.18 19.974,2.904 0.367,-1.276 -14.167,-27.409 -19.248,-38.848 -5.082,-11.439197 -12.341,-14.442197 -17.247,-15.534897 -4.905,-1.0927 -14.724203,-2.0861 -14.724203,-2.0861 z"
     fill="#ffae0a"
     stroke="#263238"
     stroke-width="0.363074"
     stroke-linecap="round"
     stroke-linejoin="round"
     id="path164" />
  <path
     d="m 101.68754,90.967143 c -3.415203,-0.4432 -6.288303,-0.7641 -6.288303,-0.7641 0,0 -1.2379,41.782397 -1.6047,47.773397 -0.0917,1.482 -0.2827,5.104 -0.5119,9.719 1.6199,-4.951 5.3488,-16.925 6.5029,-24.971 1.146003,-8.153 1.658003,-25.552597 1.902003,-31.757297 z"
     fill="#ffae0a"
     stroke="#263238"
     stroke-width="0.363074"
     stroke-linecap="round"
     stroke-linejoin="round"
     id="path166" />
  <path
     d="m 107.41154,101.68744 -13.074503,41.217 2.1778,1.627 13.616703,-41.568 z"
     fill="#263238"
     stroke="#263238"
     stroke-width="0.363074"
     stroke-linecap="round"
     stroke-linejoin="round"
     id="path168" />
  <path
     d="m 110.13154,102.96344 24.872,9.078 -14.342,36.854 -24.146703,-4.363 z"
     fill="#ffffff"
     stroke="#263238"
     stroke-width="0.363074"
     stroke-linecap="round"
     stroke-linejoin="round"
     id="path170" />
  <path
     d="m 108.49654,107.86144 -13.066703,41.209 2.1778,1.635 13.616903,-41.568 z"
     fill="#263238"
     stroke="#263238"
     stroke-width="0.363074"
     stroke-linecap="round"
     stroke-linejoin="round"
     id="path172" />
  <path
     d="m 111.22454,109.13744 24.872,9.07 -14.343,36.854 -24.146003,-4.355 z"
     fill="#ffffff"
     stroke="#263238"
     stroke-width="0.363074"
     stroke-linecap="round"
     stroke-linejoin="round"
     id="path174" />
  <path
     d="m 107.95354,120.56944 c 0,0 -4.898,-2.904 -6.533,-3.057 -0.358,-0.063 -0.725,-0.05 -1.077,0.039 -0.352003,0.089 -0.682003,0.251 -0.967003,0.476 -0.285,0.225 -0.5192,0.508 -0.6871,0.831 -0.168,0.322 -0.2659,0.676 -0.2873,1.038 -0.0302,0.78 0.0891,1.558 0.3515,2.293 0,0 -1.7728,0.473 -2.598,5.165 -0.2904,1.651 -1.0927,2.904 0,4.18 1.7417,1.932 4.131903,3.158 6.716903,3.446 2.703,0.408 5.372,1.016 7.985,1.819 3.874,3.999 8.009,7.736 12.379,11.186 6.533,5.082 12.34,10.889 17.246,9.98 4.906,-0.909 7.985,-6.533 6.174,-11.256 -1.811,-4.722 -27.776,-15.244 -28.685,-15.611 -0.852,-0.445 -1.645,-0.994 -2.361,-1.635 0,0 0,-3.989 -0.91,-5.807 -0.909,-1.819 -3.82,-4.539 -3.82,-7.076 0,-2.537 0.183,-3.637 -1.269,-3.271 -1.452,0.367 -2.384,4.899 -1.658,7.26 z"
     fill="#ffffff"
     stroke="#263238"
     stroke-width="0.363074"
     stroke-linecap="round"
     stroke-linejoin="round"
     id="path176" />
  <path
     d="m 73.369437,55.687843 c 0,0 -2.2924,-5.7768 -3.9811,-1.9256 -2.0632,4.7681 1.9256,9.4981 2.9571,10.1399 1.0316,0.6419 1.024,-8.2143 1.024,-8.2143 z"
     fill="#ffffff"
     stroke="#263238"
     stroke-width="0.363074"
     stroke-linecap="round"
     stroke-linejoin="round"
     id="path178" />
  <path
     d="m 106.51754,59.805743 c 0,0 2.942,-3.622 3.82,-0.4508 0.879,3.1711 -1.811,6.3422 -3.82,7.7023 -2.01,1.3602 -2.721,3.1712 -2.721,0.6801 0,-2.491 2.721,-7.9316 2.721,-7.9316 z"
     fill="#ffffff"
     stroke="#263238"
     stroke-width="0.363074"
     stroke-linecap="round"
     stroke-linejoin="round"
     id="path180" />
  <path
     d="m 89.546237,11.146543 c 0,0 -4.7529,-3.46153 -7.9622,0.5119 -3.2093,3.9735 0.1299,6.9383 -2.1854,7.8323 -2.3153,0.894 -3.8207,-3.2093 -8.5964,0.7641 -4.7758,3.9735 -1.6658,7.1904 -1.4137,8.5964 0.2522,1.406 -0.6418,1.4137 -4.2332,2.9572 -3.5914,1.5435 -5.517,5.2572 -0.7641,9.1084 4.7528,3.8511 7.0605,-1.6658 7.7023,0.9016 0.6419,2.5675 0,4.7529 3.2094,4.5848 3.2093,-0.1681 9.6279,-5.3947 13.609,-2.9572 3.9811,2.4376 8.3367,8.6041 11.293603,6.6785 2.957,-1.9256 3.981,-5.2649 6.549,-3.5914 2.567,1.6734 6.159,2.4375 8.214,-2.8273 2.056,-5.2648 -2.055,-7.0605 -1.414,-9.8801 0.642,-2.8196 4.234,-6.5486 1.154,-10.9117 -3.079,-4.3632 -6.159,0.2521 -9.368,-3.8206 -3.209,-4.0728 0.13,-8.3443 -3.981,-10.65959 -0.987,-0.56789 -2.076003,-0.93484 -3.205503,-1.07968 -1.1293,-0.14484 -2.2761,-0.06472 -3.3742,0.23575 -1.0982,0.30047 -2.1261,0.81535 -3.0243,1.51494 -0.8982,0.69959 -1.6491,1.57008 -2.2093,2.56128"
     fill="#263238"
     id="path182" />
  <path
     d="m 78.427937,40.512043 c 0,0 -4.7605,4.0804 -5.2114,9.2917 -0.4508,5.2114 -2.491,17.6666 -0.2292,22.4271 2.2618,4.7605 7.9163,11.4619 12.9137,12.0044 7.0223,0.81 14.724503,-5.6622 15.855503,-8.1532 1.131,-2.4911 7.275,-20.1653 5.892,-28.0969 -1.811,-10.415 -19.256403,-17.2157 -29.220603,-7.4731 z"
     fill="#ffffff"
     stroke="#263238"
     stroke-width="0.363074"
     stroke-linecap="round"
     stroke-linejoin="round"
     id="path184" />
  <path
     d="m 107.64854,47.985143 c -1.811,-10.415 -19.256403,-17.2157 -29.220603,-7.4731 0,0 -4.7605,4.0804 -5.2113,9.2917 -0.1299,1.4748 -0.3821,3.5303 -0.6342,5.8303 1.4049,-1.1788 2.2867,-2.8653 2.4528,-4.6917 0.2598,-3.2094 2.9572,-6.5486 13.227,-7.9622 10.2699,-1.4136 16.046303,6.1665 16.940303,8.8562 0.894,2.6897 -0.382,6.2887 0.26,8.0921 0.057,0.2563 0.167,0.498 0.322,0.7098 0.155,0.2118 0.353,0.389 0.58,0.5204 1.131,-4.8827 1.857,-9.8725 1.284,-13.1735 z"
     fill="#263238"
     id="path186" />
  <path
     d="m 87.116137,27.827143 c -0.1074,0.11 -0.207,0.2275 -0.298,0.3515 -0.8482,1.2073 -1.5282,1.2837 -2.9266,0.8099 -3.0565,-1.0239 -5.6469,0.3897 -5.517,2.9572 0.1299,2.5675 1.2838,2.1777 -1.0239,3.8206 -2.3076,1.6429 -4.2409,2.8273 -2.9572,5.9067 1.2838,3.0794 4.5237,1.4366 4.5237,3.6143 0,2.1778 -0.1299,5.005 3.0565,5.005 3.1864,0 5.3947,-3.8206 6.2964,-1.7957 0.9016,2.025 1.9256,5.0051 4.7452,4.4854 2.8196,-0.5196 4.3631,-5.005 7.190303,-2.8196 2.827,2.1854 4.363,4.1034 5.907,2.2924 1.543,-1.811 -0.13,-4.4931 1.925,-5.6469 2.056,-1.1538 3.974,-1.6658 2.82,-5.517 -1.154,-3.8512 -2.82,-1.9256 -4.103,-4.8827 -1.284,-2.9572 -1.032,-6.1589 -3.469,-6.6708 -2.438,-0.512 -3.592003,1.1538 -5.907203,0.9016 -1.9714,-0.2216 -2.7508,-2.6209 -4.4166,-3.4232 -1.6658,-0.8024 -4.4549,-0.7642 -5.8456,0.6113 z"
     fill="#263238"
     stroke="#787878"
     stroke-width="0.363074"
     stroke-linecap="round"
     stroke-linejoin="round"
     id="path188" />
  <path
     d="m 90.715137,58.881743 c 0,0 -1.131,3.1711 -0.6801,5.2113 0.4508,2.0402 1.5894,3.8206 -0.2293,4.0804 -1.8186,0.2598 -3.1711,-0.9093 -3.1711,-2.0402"
     stroke="#263238"
     stroke-width="0.363074"
     stroke-linecap="round"
     stroke-linejoin="round"
     id="path190" />
  <path
     d="m 82.523537,68.975443 c 0.7241,0.9445 1.6471,1.7182 2.7035,2.2662 1.0564,0.548 2.2204,0.857 3.4095,0.905 2.3427,-0.0171 4.6284,-0.7241 6.5715,-2.0326"
     stroke="#263238"
     stroke-width="0.363074"
     stroke-linecap="round"
     stroke-linejoin="round"
     id="path192" />
  <path
     d="m 85.404437,58.835943 c -0.107,1.0621 -0.6648,1.8797 -1.2456,1.8186 -0.5807,-0.0611 -0.9704,-0.9628 -0.8634,-2.0249 0.107,-1.0622 0.6648,-1.8721 1.2455,-1.8186 0.5807,0.0534 0.9704,0.9627 0.8635,2.0249 z"
     fill="#263238"
     id="path194" />
  <path
     d="m 95.796437,60.700043 c -0.1069,1.0621 -0.6647,1.8721 -1.2455,1.8186 -0.5807,-0.0535 -0.9704,-0.9705 -0.8634,-2.0326 0.1069,-1.0621 0.6648,-1.8721 1.2455,-1.8186 0.5807,0.0535 0.9704,0.9704 0.8634,2.0326 z"
     fill="#263238"
     id="path196" />
  <path
     d="m 89.309137,56.504743 c 0.0271,1.4307 -0.3711,2.8372 -1.144,4.0413 -0.7729,1.2042 -1.8858,2.152 -3.1978,2.7231 -1.3119,0.5712 -2.7639,0.7402 -4.1719,0.4856 -1.4081,-0.2546 -2.7089,-0.9214 -3.7377,-1.916 -1.0288,-0.9945 -1.7393,-2.2719 -2.0415,-3.6705 -0.3022,-1.3987 -0.1825,-2.8555 0.3439,-4.1861 0.5264,-1.3305 1.4358,-2.4749 2.6132,-3.2882 1.1773,-0.8133 2.5695,-1.2588 4.0002,-1.2803 1.9114,-0.0266 3.7557,0.7042 5.1301,2.0328 1.3745,1.3286 2.1673,3.1471 2.2055,5.0583 z"
     stroke="#263238"
     stroke-width="0.363074"
     stroke-linecap="round"
     stroke-linejoin="round"
     id="path198" />
  <path
     d="m 105.37154,59.568743 c 0.027,1.4293 -0.371,2.8345 -1.143,4.038 -0.771,1.2034 -1.882,2.151 -3.193,2.723 -1.310003,0.572 -2.760003,0.7426 -4.167203,0.4904 -1.4071,-0.2522 -2.7079,-0.916 -3.7378,-1.9075 -1.0299,-0.9914 -1.7427,-2.266 -2.0483,-3.6625 -0.3056,-1.3966 -0.1902,-2.8524 0.3315,-4.1833 0.5218,-1.331 1.4264,-2.4774 2.5996,-3.2942 1.1733,-0.8169 2.5623,-1.2675 3.9916,-1.295 1.9166,-0.0348 3.768603,0.6924 5.149603,2.0219 1.381,1.3294 2.178,3.1526 2.217,5.0692 z"
     stroke="#263238"
     stroke-width="0.363074"
     stroke-linecap="round"
     stroke-linejoin="round"
     id="path200" />
  <path
     d="m 89.324337,57.276243 1.6887,0.3897"
     stroke="#263238"
     stroke-width="0.363074"
     stroke-linecap="round"
     stroke-linejoin="round"
     id="path202" />
  <path
     d="m 74.951337,54.602543 -2.2542,-0.5196"
     stroke="#263238"
     stroke-width="0.363074"
     stroke-linecap="round"
     stroke-linejoin="round"
     id="path204" />
  <path
     d="m 105.37054,59.569243 1.689,0.3133"
     stroke="#263238"
     stroke-width="0.363074"
     stroke-linecap="round"
     stroke-linejoin="round"
     id="path206" />
  <path
     d="m 80.353637,53.692843 c 0.8202,-0.7098 1.8063,-1.201 2.8669,-1.4281 1.0606,-0.2271 2.1614,-0.1827 3.2003,0.1291"
     stroke="#263238"
     stroke-width="0.363074"
     stroke-linecap="round"
     stroke-linejoin="round"
     id="path208" />
  <path
     d="m 100.83254,58.185943 c -0.514,-0.9565 -1.261003,-1.7677 -2.172003,-2.3582 -0.9111,-0.5905 -1.9567,-0.9411 -3.0395,-1.0193"
     stroke="#263238"
     stroke-width="0.363074"
     stroke-linecap="round"
     stroke-linejoin="round"
     id="path210" />
  <path
     d="m 65.437837,59.042043 c 1.5724,-2.2206 3.312,-4.3178 5.2037,-6.2734 2.7509,-2.7585 6.4263,-3.9811 6.4263,-2.2924 0,1.6887 -2.4452,1.9867 -4.1339,4.1263 -1.6887,2.1395 -5.6622,7.8093 -5.815,9.3376 -0.1528,1.5282 0,4.1339 2.7585,3.6754 2.7585,-0.4585 5.815,-3.0565 7.1904,-3.9811 1.3754,-0.9246 5.2037,0 3.8206,1.2302 -1.383,1.2303 -3.8206,1.834 -5.815,3.515 -1.9943,1.6811 -5.2037,5.0509 -6.8771,5.9755 -1.6734,0.9246 -2.9037,1.5282 -2.9037,1.5282 0,0 -0.6113,0.6113 -2.7585,4.2868 -2.1472,3.6754 -8.8791,14.2356 -12.9901,18.828 -4.111,4.592297 -19.5922,19.867297 -23.4128,21.273297 -3.8206,1.406 -13.1659,0.153 -14.5184,-4.745 -1.3525,-4.898 1.8339,-10.56 8.7187,-15.459 6.8848,-4.897597 26.4846,-16.229497 30.7713,-18.521897 4.2868,-2.2924 5.9678,-3.5226 6.113,-4.7452 0.1452,-1.2226 2.1396,-9.1695 3.9811,-12.4018 1.1409,-1.9854 2.5701,-3.7906 4.2409,-5.3565 z"
     fill="#ffffff"
     stroke="#263238"
     stroke-width="0.363074"
     stroke-linecap="round"
     stroke-linejoin="round"
     id="path212" />
  <path
     d="m 60.494037,66.858843 c 0,0 0.7641,-5.4483 1.5741,-6.1742 0.81,-0.7259 5.6851,-0.6036 6.6555,-0.1222 0.9705,0.4814 0.9628,4.8445 0.6037,5.815 -0.3592,0.9704 -0.9705,1.5664 -1.3296,1.2073 -0.3591,-0.3592 -1.0927,-3.9964 -1.0927,-3.9964 l -2.5369,-0.3591 -0.8482,3.6296"
     fill="#ffffff"
     id="path214" />
  <path
     d="m 60.494037,66.858843 c 0,0 0.7641,-5.4483 1.5741,-6.1742 0.81,-0.7259 5.6851,-0.6036 6.6555,-0.1222 0.9705,0.4814 0.9628,4.8445 0.6037,5.815 -0.3592,0.9704 -0.9705,1.5664 -1.3296,1.2073 -0.3591,-0.3592 -1.0927,-3.9964 -1.0927,-3.9964 l -2.5369,-0.3591 -0.8482,3.6296"
     stroke="#263238"
     stroke-width="0.363074"
     stroke-linecap="round"
     stroke-linejoin="round"
     id="path216" />
  <path
     d="m 60.005037,68.555043 c 0,0 0.7641,-5.4482 1.5741,-6.1741 0.81,-0.7259 5.6927,-0.6036 6.6555,-0.1222 0.9628,0.4814 0.9705,4.8445 0.6113,5.8073 -0.3591,0.9628 -0.9704,1.5741 -1.3372,1.215 -0.3668,-0.3592 -1.0851,-3.9964 -1.0851,-3.9964 l -2.5445,-0.3668 -0.8482,3.6372"
     fill="#ffffff"
     id="path218" />
  <path
     d="m 60.005037,68.555043 c 0,0 0.7641,-5.4482 1.5741,-6.1741 0.81,-0.7259 5.6927,-0.6036 6.6555,-0.1222 0.9628,0.4814 0.9705,4.8445 0.6113,5.8073 -0.3591,0.9628 -0.9704,1.5741 -1.3372,1.215 -0.3668,-0.3592 -1.0851,-3.9964 -1.0851,-3.9964 l -2.5445,-0.3668 -0.8482,3.6372"
     stroke="#263238"
     stroke-width="0.363074"
     stroke-linecap="round"
     stroke-linejoin="round"
     id="path220" />
  <path
     d="m 59.767937,70.771043 c 0,0 0.6877,-5.1578 1.5283,-5.8455 0.8405,-0.6878 5.3489,-0.5731 6.304,-0.1147 0.9552,0.4585 0.917,4.5848 0.5731,5.5017 -0.3439,0.917 -0.9169,1.4901 -1.2608,1.1462 -0.3439,-0.3438 -1.0316,-3.7824 -1.0316,-3.7824 l -2.407,-0.3438 -0.7641,3.4385"
     fill="#ffffff"
     id="path222" />
  <path
     d="m 59.767937,70.771043 c 0,0 0.6877,-5.1578 1.5283,-5.8455 0.8405,-0.6878 5.3489,-0.5731 6.304,-0.1147 0.9552,0.4585 0.917,4.5848 0.5731,5.5017 -0.3439,0.917 -0.9169,1.4901 -1.2608,1.1462 -0.3439,-0.3438 -1.0316,-3.7824 -1.0316,-3.7824 l -2.407,-0.3438 -0.7641,3.4385"
     stroke="#263238"
     stroke-width="0.363074"
     stroke-linecap="round"
     stroke-linejoin="round"
     id="path224" />
  <path
     d="m 64.620337,68.715743 c 0,0 0.6572,4.5083 -0.5578,6.8771 -1.2149,2.3688 -2.6286,2.3459 -2.6286,2.3459"
     fill="#ffffff"
     id="path226" />
  <path
     d="m 64.620337,68.715743 c 0,0 0.6572,4.5083 -0.5578,6.8771 -1.2149,2.3688 -2.6286,2.3459 -2.6286,2.3459"
     stroke="#263238"
     stroke-width="0.363074"
     stroke-linecap="round"
     stroke-linejoin="round"
     id="path228" />
  <path
     d="M 0.181537,321.13544 H 350.18154"
     stroke="#263238"
     stroke-width="0.363074"
     stroke-linecap="round"
     stroke-linejoin="round"
     id="path230" />
</svg>
