<svg width="350" height="350" viewBox="0 0 350 350" fill="none" xmlns="http://www.w3.org/2000/svg">
<path d="M-26.4709 345.014H376.55" stroke="#263238" stroke-width="0.468574" stroke-linecap="round" stroke-linejoin="round"/>
<path d="M283.689 209.059V209.162C283.689 209.33 283.726 209.508 283.801 209.696C284.22 211.749 284.533 213.823 284.738 215.909C284.916 217.699 285.057 219.742 285.094 222.019C285.183 227.282 284.823 232.543 284.017 237.745C283.81 239.113 283.567 240.556 283.276 241.999C282.817 244.38 282.255 246.873 281.561 249.45C281.252 250.649 280.896 251.877 280.521 253.114L280.081 254.623C279.912 255.232 279.743 255.841 279.584 256.497C278.507 260.661 277.646 264.877 277.007 269.13C276.21 274.425 275.714 279.682 275.442 284.658C275.076 291.293 275.095 297.422 275.254 302.464C275.25 302.548 275.25 302.633 275.254 302.717C275.423 307.843 275.742 311.864 275.957 314.15C276.079 315.491 276.163 316.25 276.173 316.296" stroke="#263238" stroke-width="0.468574" stroke-linecap="round" stroke-linejoin="round"/>
<path d="M283.716 209.192C282.313 207.945 280.622 207.066 278.796 206.634L283.716 209.192Z" fill="white"/>
<path d="M283.716 209.192C282.313 207.945 280.622 207.066 278.796 206.634" stroke="#263238" stroke-width="0.468574" stroke-linecap="round" stroke-linejoin="round"/>
<path d="M284.765 215.937L287.258 213.679" stroke="#263238" stroke-width="0.468574" stroke-linecap="round" stroke-linejoin="round"/>
<path d="M281.589 249.462C281.458 248.804 281.264 248.16 281.008 247.54C280.639 246.631 280.136 245.782 279.518 245.019C279.056 244.447 278.531 243.928 277.953 243.473" stroke="#263238" stroke-width="0.468574" stroke-linecap="round" stroke-linejoin="round"/>
<path d="M279.593 256.487C279.946 255.612 280.476 254.819 281.148 254.156C281.82 253.494 282.621 252.976 283.501 252.636" stroke="#263238" stroke-width="0.468574" stroke-linecap="round" stroke-linejoin="round"/>
<path d="M275.263 291.35C276.097 290.337 276.725 286.505 277.062 284.443C277.147 283.955 277.212 283.506 277.278 283.234" fill="white"/>
<path d="M275.263 291.35C276.097 290.337 276.725 286.505 277.062 284.443C277.147 283.955 277.212 283.506 277.278 283.234" stroke="#263238" stroke-width="0.468574" stroke-linecap="round" stroke-linejoin="round"/>
<path d="M268.844 298.304C269.122 298.276 269.401 298.276 269.678 298.304C270.906 298.423 272.078 298.874 273.068 299.609C274.059 300.344 274.831 301.334 275.301 302.474" fill="white"/>
<path d="M268.844 298.304C269.122 298.276 269.401 298.276 269.678 298.304C270.906 298.423 272.078 298.874 273.068 299.609C274.059 300.344 274.831 301.334 275.301 302.474" stroke="#263238" stroke-width="0.468574" stroke-linecap="round" stroke-linejoin="round"/>
<path d="M283.304 242.076C283.304 242.076 283.745 226.866 275.395 221.347" stroke="#263238" stroke-width="0.468574" stroke-linecap="round" stroke-linejoin="round"/>
<path d="M284.016 274.68C285.112 278.232 277.456 284.989 277.456 284.989C277.456 284.989 267.344 283.724 266.21 280.181C265.076 276.639 267.672 270.81 272.583 269.311C277.493 267.811 282.957 271.129 284.016 274.68Z" fill="#FFAE0A"/>
<path d="M292.534 231.636C291.597 235.385 284.325 238.075 284.325 238.075C284.325 238.075 279.33 232.236 280.267 228.469C281.204 224.702 285.243 220.559 288.636 221.431C292.028 222.302 293.509 227.869 292.534 231.636Z" fill="#FFAE0A"/>
<path d="M263.492 287.932C268.037 289.694 270.821 297.734 270.821 297.734C270.821 297.734 263.323 301.773 258.788 300.002C254.252 298.231 249.416 293.245 250.728 289.918C252.04 286.592 258.947 286.123 263.492 287.932Z" fill="#FFAE0A"/>
<path d="M273.454 243.698C274.374 244.471 275.429 245.068 276.565 245.459C277.136 245.644 277.746 245.668 278.33 245.53C278.913 245.391 279.447 245.094 279.873 244.672C280.811 243.557 280.586 241.861 279.977 240.464C278.758 237.794 274.279 233.248 270.839 234.551C265.872 236.453 271.242 242.076 273.454 243.698Z" fill="#FFAE0A"/>
<path d="M283.622 250.51C282.966 251.316 282.272 252.338 282.638 253.322C282.842 253.735 283.176 254.069 283.59 254.273C284.003 254.476 284.473 254.537 284.924 254.446C285.823 254.233 286.663 253.82 287.38 253.237C289.132 252.019 292.731 249.489 290.435 247.08C288.139 244.672 284.953 248.814 283.622 250.51Z" fill="#FFAE0A"/>
<path d="M268.957 216.522C268.579 216.544 268.217 216.684 267.923 216.923C267.629 217.162 267.417 217.487 267.317 217.852C267.167 218.724 267.889 219.483 268.582 220.017C270.326 221.367 275.564 224.984 276.726 221.489C277.832 218.19 271.263 216.269 268.957 216.522Z" fill="#FFAE0A"/>
<path d="M278.6 205.029C277.522 205.132 276.444 204.738 275.357 204.804C274.27 204.869 273.08 205.741 273.314 206.809C273.549 207.878 274.757 208.112 275.751 208.168C277.461 208.278 279.179 208.161 280.858 207.821C281.256 207.784 281.625 207.596 281.889 207.297C282.33 206.65 281.636 205.788 280.886 205.563C280.117 205.461 279.36 205.278 278.628 205.019L278.6 205.029Z" fill="#FFAE0A"/>
<path d="M289.152 212.463C290.23 212.463 291.279 212.032 292.366 212.023C293.454 212.013 294.709 212.81 294.531 213.897C294.353 214.984 293.191 215.293 292.198 215.415C290.5 215.64 288.779 215.64 287.081 215.415C286.679 215.406 286.296 215.241 286.013 214.956C285.535 214.347 286.172 213.438 286.894 213.157C287.658 213.014 288.403 212.784 289.115 212.472L289.152 212.463Z" fill="#FFAE0A"/>
<path d="M288.083 292.328C288.332 292.069 288.664 291.906 289.02 291.869C289.261 291.892 289.487 291.998 289.658 292.169C289.829 292.34 289.935 292.565 289.958 292.806C290.009 293.269 289.952 293.737 289.789 294.174C289.049 296.639 280.802 314.435 278.899 311.24C277.784 309.365 280.539 303.096 281.355 301.324C282.91 297.868 285.208 294.797 288.083 292.328Z" fill="#FFAE0A"/>
<path d="M284.063 210.214C284.063 210.214 283.567 205.894 284.607 205.528" stroke="#263238" stroke-width="0.468574" stroke-linecap="round" stroke-linejoin="round"/>
<path d="M283.144 205.705C283.676 204.179 284.592 202.817 285.806 201.75C287.108 200.813 289.198 200.738 290.145 202.04C291.204 203.493 290.145 205.695 288.523 206.473C286.902 207.251 284.99 207.017 283.21 206.764C283.21 206.501 283.21 206.239 283.21 205.976L283.144 205.705Z" fill="#FFAE0A"/>
<path d="M287.586 344.796C278.752 346.286 269.73 346.286 260.896 344.796L250.512 314.16H297.97L287.586 344.796Z" fill="white" stroke="#263238" stroke-width="0.468574" stroke-linecap="round" stroke-linejoin="round"/>
<path d="M106.472 123.46V123.563C106.51 123.732 106.547 123.91 106.585 124.097C107.009 126.15 107.322 128.224 107.522 130.311C107.7 132.1 107.831 134.143 107.878 136.421C107.974 141.67 107.623 146.919 106.828 152.109C106.622 153.477 106.379 154.92 106.088 156.363C105.629 158.744 105.057 161.236 104.373 163.814C104.055 165.013 103.708 166.241 103.333 167.478C103.183 167.984 103.033 168.481 102.892 168.987C102.752 169.493 102.546 170.205 102.386 170.861C101.31 175.025 100.45 179.241 99.8093 183.494C99.0127 188.789 98.5254 194.046 98.2536 199.022C97.8881 205.657 97.8975 211.786 98.0662 216.828V217.081C98.2442 222.207 98.5535 226.228 98.7784 228.524C98.8908 229.854 98.9846 230.614 98.9846 230.66" stroke="#263238" stroke-width="0.468574" stroke-linecap="round" stroke-linejoin="round"/>
<path d="M106.491 123.593C105.819 123.004 105.083 122.492 104.298 122.065C103.433 121.609 102.513 121.263 101.562 121.034" fill="white"/>
<path d="M106.491 123.593C105.819 123.004 105.083 122.492 104.298 122.065C103.433 121.609 102.513 121.263 101.562 121.034" stroke="#263238" stroke-width="0.468574" stroke-linecap="round" stroke-linejoin="round"/>
<path d="M107.541 130.339L110.043 128.081" stroke="#263238" stroke-width="0.468574" stroke-linecap="round" stroke-linejoin="round"/>
<path d="M104.374 163.863C104.24 163.205 104.043 162.562 103.784 161.942C103.414 161.033 102.912 160.183 102.294 159.421C101.832 158.849 101.307 158.33 100.729 157.875" stroke="#263238" stroke-width="0.468574" stroke-linecap="round" stroke-linejoin="round"/>
<path d="M102.379 170.853C102.728 169.977 103.255 169.183 103.926 168.52C104.597 167.858 105.397 167.341 106.277 167.001" stroke="#263238" stroke-width="0.468574" stroke-linecap="round" stroke-linejoin="round"/>
<path d="M98.0383 205.751C98.8724 204.739 99.5096 200.906 99.847 198.845C99.922 198.357 99.997 197.908 100.053 197.636" fill="white"/>
<path d="M98.0383 205.751C98.8724 204.739 99.5096 200.906 99.847 198.845C99.922 198.357 99.997 197.908 100.053 197.636" stroke="#263238" stroke-width="0.468574" stroke-linecap="round" stroke-linejoin="round"/>
<path d="M91.6199 212.666C91.9003 212.638 92.1829 212.638 92.4633 212.666C93.6899 212.788 94.8604 213.241 95.8504 213.975C96.8405 214.709 97.6131 215.698 98.0862 216.836" fill="white"/>
<path d="M91.6199 212.666C91.9003 212.638 92.1829 212.638 92.4633 212.666C93.6899 212.788 94.8604 213.241 95.8504 213.975C96.8405 214.709 97.6131 215.698 98.0862 216.836" stroke="#263238" stroke-width="0.468574" stroke-linecap="round" stroke-linejoin="round"/>
<path d="M106.079 156.44C106.079 156.44 106.529 141.23 98.1699 135.71" stroke="#263238" stroke-width="0.468574" stroke-linecap="round" stroke-linejoin="round"/>
<path d="M106.839 189.083C107.926 192.634 100.279 199.391 100.279 199.391C100.279 199.391 90.1576 198.126 89.033 194.584C87.9084 191.041 90.5043 185.212 95.4056 183.713C100.307 182.213 105.742 185.54 106.839 189.083Z" fill="#FFAE0A"/>
<path d="M115.328 146.037C114.391 149.785 107.119 152.475 107.119 152.475C107.119 152.475 102.067 146.637 103.042 142.869C104.017 139.102 108.009 134.96 111.401 135.831C114.794 136.703 116.265 142.27 115.328 146.037Z" fill="#FFAE0A"/>
<path d="M86.2774 202.332C90.8226 204.103 93.6153 212.134 93.6153 212.134C93.6153 212.134 86.1181 216.173 81.5729 214.402C77.0277 212.631 72.2014 207.645 73.5228 204.319C74.8442 200.992 81.7228 200.561 86.2774 202.332Z" fill="#FFAE0A"/>
<path d="M96.239 158.099C97.1557 158.872 98.2073 159.47 99.341 159.861C99.9116 160.045 100.522 160.07 101.105 159.931C101.689 159.792 102.223 159.495 102.649 159.074C103.586 157.958 103.361 156.262 102.752 154.866C101.534 152.195 97.0637 147.65 93.615 148.952C88.6575 150.836 94.018 156.459 96.239 158.099Z" fill="#FFAE0A"/>
<path d="M106.398 164.921C105.751 165.727 105.058 166.796 105.414 167.733C105.618 168.146 105.952 168.48 106.366 168.684C106.779 168.887 107.249 168.948 107.7 168.857C108.6 168.646 109.44 168.232 110.156 167.648C111.908 166.44 115.507 163.9 113.211 161.491C110.915 159.083 107.775 163.216 106.398 164.921Z" fill="#FFAE0A"/>
<path d="M91.7327 130.921C91.3548 130.945 90.9937 131.085 90.6997 131.324C90.4057 131.563 90.1935 131.887 90.0927 132.252C89.9428 133.123 90.6644 133.883 91.3672 134.417C93.1103 135.766 98.3396 139.384 99.511 135.888C100.608 132.589 94.0475 130.668 91.7327 130.921Z" fill="#FFAE0A"/>
<path d="M101.375 119.432C100.297 119.535 99.2198 119.141 98.142 119.207C97.0643 119.272 95.8554 120.144 96.099 121.212C96.3427 122.28 97.5329 122.515 98.5356 122.571C100.243 122.681 101.957 122.564 103.634 122.224C104.034 122.187 104.406 121.999 104.674 121.699C105.105 121.053 104.412 120.191 103.671 119.966C102.898 119.864 102.138 119.681 101.403 119.422L101.375 119.432Z" fill="#FFAE0A"/>
<path d="M111.928 126.864C113.015 126.864 114.065 126.433 115.142 126.423C116.22 126.414 117.485 127.211 117.317 128.298C117.148 129.385 115.967 129.694 114.974 129.816C113.276 130.041 111.555 130.041 109.857 129.816C109.455 129.807 109.072 129.642 108.789 129.357C108.311 128.748 108.948 127.839 109.679 127.557C110.442 127.412 111.187 127.183 111.9 126.873L111.928 126.864Z" fill="#FFAE0A"/>
<path d="M110.859 206.727C111.108 206.47 111.44 206.307 111.796 206.268C112.035 206.296 112.257 206.404 112.428 206.574C112.598 206.744 112.705 206.966 112.733 207.205C112.782 207.669 112.721 208.138 112.555 208.573C111.824 211.038 103.568 228.835 101.675 225.639C100.55 223.765 103.306 217.495 104.121 215.724C105.679 212.267 107.98 209.195 110.859 206.727Z" fill="#FFAE0A"/>
<path d="M106.839 124.634C106.839 124.634 106.342 120.314 107.392 119.948" stroke="#263238" stroke-width="0.468574" stroke-linecap="round" stroke-linejoin="round"/>
<path d="M105.958 120.107C106.483 118.578 107.401 117.214 108.62 116.152C109.923 115.215 112.003 115.14 112.95 116.443C114.009 117.895 112.95 120.098 111.328 120.875C109.707 121.653 107.805 121.419 106.024 121.166C106.024 120.904 106.024 120.641 106.024 120.379L105.958 120.107Z" fill="#FFAE0A"/>
<path d="M276.848 227.054H265.405" stroke="#263238" stroke-width="0.468574" stroke-linecap="round" stroke-linejoin="round"/>
<path d="M366.578 227.054H343.271" stroke="#263238" stroke-width="0.468574" stroke-linecap="round" stroke-linejoin="round"/>
<path d="M264.354 86.3781H305.654V47.0366" stroke="#263238" stroke-width="0.468574" stroke-linecap="round" stroke-linejoin="round"/>
<path d="M23.6375 74.3638H67.5147V106.367H115.609" stroke="#263238" stroke-width="0.468574" stroke-linecap="round" stroke-linejoin="round"/>
<path d="M17.3606 81.3359V136.759" stroke="#263238" stroke-width="0.468574" stroke-linecap="round" stroke-linejoin="round"/>
<path d="M36.9553 81.3359V130.33" stroke="#263238" stroke-width="0.468574" stroke-linecap="round" stroke-linejoin="round"/>
<path d="M56.5513 81.3359V167.038" stroke="#263238" stroke-width="0.468574" stroke-linecap="round" stroke-linejoin="round"/>
<path d="M150.423 69.1818V12.8311H230.203V69.1818" stroke="#263238" stroke-width="0.468574" stroke-linecap="round" stroke-linejoin="round"/>
<path d="M156.273 40.8234V19.522H171.023" stroke="#263238" stroke-width="0.468574" stroke-linecap="round" stroke-linejoin="round"/>
<path d="M174.265 40.8234V19.522H189.015" stroke="#263238" stroke-width="0.468574" stroke-linecap="round" stroke-linejoin="round"/>
<path d="M192.259 40.8234V19.522H207.01" stroke="#263238" stroke-width="0.468574" stroke-linecap="round" stroke-linejoin="round"/>
<path d="M210.252 40.8234V19.522H225.002" stroke="#263238" stroke-width="0.468574" stroke-linecap="round" stroke-linejoin="round"/>
<path d="M156.273 69.1817V47.8804H171.023" stroke="#263238" stroke-width="0.468574" stroke-linecap="round" stroke-linejoin="round"/>
<path d="M174.265 69.1817V47.8804H189.015" stroke="#263238" stroke-width="0.468574" stroke-linecap="round" stroke-linejoin="round"/>
<path d="M192.259 69.1817V47.8804H207.01" stroke="#263238" stroke-width="0.468574" stroke-linecap="round" stroke-linejoin="round"/>
<path d="M210.252 69.1817V47.8804H225.002" stroke="#263238" stroke-width="0.468574" stroke-linecap="round" stroke-linejoin="round"/>
<path d="M312.047 51.9106V122.525" stroke="#263238" stroke-width="0.468574" stroke-linecap="round" stroke-linejoin="round"/>
<path d="M341.015 221.879H343.273" stroke="#263238" stroke-width="0.468574" stroke-linecap="round" stroke-linejoin="round"/>
<path d="M329.413 72.1885V151.246" stroke="#263238" stroke-width="0.468574" stroke-linecap="round" stroke-linejoin="round"/>
<path d="M346.786 201.695V221.882H360.646" stroke="#263238" stroke-width="0.468574" stroke-linecap="round" stroke-linejoin="round"/>
<path d="M346.786 97.9609V151.65" stroke="#263238" stroke-width="0.468574" stroke-linecap="round" stroke-linejoin="round"/>
<path d="M152.525 228.75H-26.4705V345.013H152.525V228.75Z" fill="white" stroke="#263238" stroke-width="0.468574" stroke-linecap="round" stroke-linejoin="round"/>
<path d="M-26.4705 228.75L63.0273 286.881L152.525 228.75H-26.4705Z" fill="white" stroke="#263238" stroke-width="0.468574" stroke-linecap="round" stroke-linejoin="round"/>
<path d="M36.1247 269.402L-26.4675 345.011" stroke="#263238" stroke-width="0.468574" stroke-linecap="round" stroke-linejoin="round"/>
<path d="M90.4241 269.402L153.016 345.011" stroke="#263238" stroke-width="0.468574" stroke-linecap="round" stroke-linejoin="round"/>
<path d="M248.312 80.4001H206.702C205.504 80.4016 204.328 80.7239 203.296 81.3337C202.264 81.9435 201.415 82.8184 200.836 83.8676C199.813 85.713 198.315 87.251 196.498 88.3219C194.68 89.3928 192.609 89.9576 190.499 89.9576C188.389 89.9576 186.318 89.3928 184.5 88.3219C182.682 87.251 181.185 85.713 180.162 83.8676C179.588 82.8048 178.736 81.9172 177.699 81.2985C176.661 80.6799 175.476 80.3533 174.267 80.3533H132.705C131.564 80.3384 130.431 80.5484 129.372 80.9713C128.312 81.3942 127.346 82.0218 126.529 82.818C125.712 83.6143 125.059 84.5637 124.609 85.6121C124.159 86.6605 123.92 87.7873 123.905 88.9282V323.609C123.937 325.912 124.882 328.109 126.532 329.717C128.181 331.324 130.401 332.212 132.705 332.184H248.312C250.616 332.212 252.837 331.324 254.488 329.717C256.14 328.11 257.086 325.913 257.121 323.609V88.9751C257.089 86.6701 256.143 84.4722 254.491 82.8643C252.839 81.2564 250.617 80.3701 248.312 80.4001Z" fill="#FFAE0A"/>
<path d="M261.177 86.3789C261.182 84.798 260.875 83.2317 260.274 81.7697C259.672 80.3077 258.788 78.9789 257.672 77.8593C256.556 76.7397 255.229 75.8514 253.769 75.2453C252.309 74.6391 250.744 74.3271 249.163 74.3272H131.86C130.283 74.3259 128.721 74.6355 127.263 75.2383C125.806 75.841 124.481 76.7251 123.365 77.84C122.25 78.9549 121.365 80.2787 120.761 81.7358C120.157 83.1929 119.846 84.7547 119.846 86.332V332.98C119.846 336.164 121.111 339.217 123.362 341.469C125.613 343.72 128.667 344.985 131.851 344.985H249.163C252.348 344.985 255.402 343.72 257.655 341.469C259.908 339.218 261.175 336.165 261.177 332.98V86.3789ZM257.119 323.609C257.085 325.913 256.138 328.109 254.487 329.717C252.836 331.324 250.615 332.211 248.31 332.183H132.704C130.4 332.211 128.18 331.324 126.53 329.716C124.88 328.108 123.936 325.912 123.904 323.609V88.9748C123.918 87.8339 124.158 86.7071 124.608 85.6587C125.058 84.6103 125.71 83.6609 126.528 82.8646C127.345 82.0683 128.311 81.4408 129.37 81.0179C130.43 80.595 131.563 80.385 132.704 80.3999H174.285C175.492 80.3995 176.676 80.7261 177.713 81.3448C178.749 81.9636 179.598 82.8515 180.17 83.9142C181.193 85.7595 182.691 87.2976 184.508 88.3685C186.326 89.4394 188.397 90.0042 190.507 90.0042C192.617 90.0042 194.688 89.4394 196.506 88.3685C198.323 87.2976 199.821 85.7595 200.844 83.9142C201.421 82.8637 202.27 81.9876 203.302 81.3777C204.334 80.7677 205.511 80.4462 206.71 80.4467H248.32C249.46 80.4319 250.593 80.6419 251.653 81.0648C252.713 81.4877 253.679 82.1152 254.496 82.9115C255.313 83.7077 255.965 84.6572 256.415 85.7056C256.866 86.754 257.105 87.8808 257.119 89.0216V323.609Z" fill="#263238"/>
<path opacity="0.2" d="M221.322 74.3643L143.398 345.003L174.342 344.975L249.38 74.3643H221.322Z" fill="white"/>
<path opacity="0.2" d="M209.701 74.3643L127.316 345.013L131.824 344.985L212.662 74.3643H209.701Z" fill="white"/>
<path d="M211.527 275.559C211.585 278.242 211.105 280.909 210.116 283.403C209.127 285.898 207.649 288.169 205.769 290.083C203.888 291.997 201.644 293.516 199.168 294.55C196.692 295.583 194.034 296.111 191.351 296.102C185.876 296.081 180.626 293.921 176.721 290.083C172.817 286.245 170.567 281.033 170.452 275.559C170.396 272.878 170.877 270.212 171.866 267.718C172.856 265.225 174.334 262.955 176.214 261.042C178.094 259.128 180.338 257.611 182.814 256.578C185.289 255.545 187.947 255.017 190.629 255.026C196.103 255.045 201.353 257.203 205.258 261.039C209.162 264.876 211.413 270.087 211.527 275.559Z" fill="white" stroke="#263238" stroke-width="0.468574" stroke-linecap="round" stroke-linejoin="round"/>
<path d="M184.256 290.893C182.349 290.187 180.6 289.11 179.111 287.725C177.611 286.283 176.449 284.526 175.71 282.58C174.867 280.399 174.451 278.077 174.482 275.739C174.47 273.746 174.823 271.767 175.522 269.9C176.158 268.176 177.112 266.587 178.334 265.215C180.743 262.58 183.854 260.687 187.302 259.76C188.995 259.304 190.741 259.074 192.494 259.076C193.95 259.07 195.401 259.243 196.814 259.592C198.178 259.927 199.483 260.467 200.685 261.194C201.874 261.909 202.941 262.811 203.843 263.865C204.783 265.002 205.501 266.305 205.961 267.707C206.486 269.307 206.746 270.982 206.729 272.665C206.709 275.918 205.537 279.059 203.421 281.53C202.511 282.562 201.434 283.433 200.235 284.108C199.201 284.701 198.034 285.023 196.842 285.045C196.019 285.056 195.216 284.795 194.556 284.304C194.224 284.059 193.954 283.74 193.767 283.372C193.58 283.005 193.481 282.599 193.478 282.186C192.863 283.121 192.019 283.883 191.027 284.4C190.035 284.916 188.927 285.171 187.808 285.138C186.928 285.178 186.051 285.02 185.24 284.676C184.429 284.332 183.706 283.811 183.122 283.152C181.952 281.792 181.334 280.043 181.389 278.25C181.396 276.775 181.653 275.311 182.148 273.921C182.64 272.52 183.338 271.199 184.219 270.003C185.096 268.828 186.215 267.854 187.499 267.145C188.783 266.421 190.233 266.043 191.707 266.049C192.731 266.038 193.743 266.283 194.649 266.761C195.53 267.23 196.243 267.96 196.692 268.851L196.88 268.223C197.029 267.783 197.347 267.421 197.763 267.215C198.18 267.009 198.661 266.978 199.101 267.126C199.271 267.184 199.432 267.266 199.579 267.37C199.718 267.482 199.83 267.625 199.903 267.788C199.976 267.951 200.01 268.129 200 268.307C200.001 268.483 199.972 268.657 199.916 268.823L196.88 278.925C196.612 279.695 196.439 280.494 196.364 281.306C196.336 281.457 196.346 281.613 196.393 281.76C196.439 281.906 196.521 282.039 196.632 282.147C196.742 282.254 196.877 282.333 197.025 282.376C197.173 282.419 197.329 282.424 197.48 282.393C198.554 282.324 199.561 281.844 200.291 281.052C201.303 280.052 202.081 278.838 202.568 277.501C203.15 276.04 203.449 274.481 203.449 272.909C203.462 271.524 203.259 270.146 202.849 268.823C202.505 267.682 201.959 266.613 201.238 265.665C200.554 264.801 199.727 264.062 198.792 263.481C197.859 262.893 196.841 262.453 195.774 262.178C194.679 261.89 193.551 261.746 192.419 261.747C190.983 261.749 189.554 261.951 188.174 262.347C186.752 262.75 185.398 263.359 184.153 264.156C182.899 264.947 181.763 265.913 180.78 267.023C179.767 268.193 178.979 269.54 178.455 270.997C177.867 272.583 177.571 274.263 177.584 275.954C177.553 277.958 177.916 279.948 178.652 281.812C179.287 283.425 180.288 284.869 181.576 286.029C182.821 287.109 184.258 287.945 185.812 288.493C187.452 289.073 189.18 289.365 190.919 289.356C192.779 289.356 194.627 289.074 196.402 288.522C196.579 288.458 196.766 288.426 196.955 288.428C197.131 288.425 197.305 288.46 197.466 288.529C197.628 288.599 197.773 288.701 197.892 288.831C198.011 288.955 198.105 289.102 198.168 289.263C198.231 289.424 198.261 289.595 198.257 289.768C198.28 290.041 198.203 290.312 198.041 290.532C197.879 290.753 197.643 290.907 197.376 290.968C195.165 291.644 192.867 291.997 190.554 292.017C188.405 292.014 186.273 291.634 184.256 290.893ZM191.997 281.174C192.924 280.509 193.611 279.562 193.956 278.475L195.914 271.587L195.783 271.306C195.661 271.08 195.514 270.87 195.343 270.678C195.108 270.407 194.851 270.157 194.574 269.929C194.223 269.648 193.827 269.43 193.403 269.282C192.294 268.895 191.08 268.938 190.001 269.404C189.41 269.654 188.868 270.006 188.399 270.444C187.911 270.899 187.477 271.408 187.105 271.962C186.733 272.539 186.419 273.151 186.168 273.79C185.905 274.429 185.701 275.091 185.559 275.767C185.417 276.41 185.345 277.067 185.343 277.726C185.335 278.149 185.36 278.572 185.418 278.991C185.462 279.364 185.543 279.731 185.662 280.087C185.765 280.418 185.913 280.734 186.103 281.024C186.272 281.286 186.488 281.515 186.74 281.699C187.008 281.893 187.31 282.036 187.63 282.121C188.004 282.23 188.393 282.281 188.783 282.271C189.955 282.285 191.099 281.909 192.035 281.202L191.997 281.174Z" fill="#FFAE0A" stroke="#263238" stroke-width="0.468574" stroke-linecap="round" stroke-linejoin="round"/>
<path d="M211.066 205.153C211.123 207.835 210.642 210.501 209.652 212.994C208.663 215.487 207.184 217.757 205.304 219.67C203.424 221.584 201.18 223.102 198.705 224.135C196.229 225.168 193.572 225.695 190.89 225.686C185.416 225.667 180.166 223.51 176.261 219.673C172.356 215.837 170.106 210.626 169.991 205.153C169.932 202.47 170.411 199.802 171.4 197.307C172.388 194.812 173.867 192.541 175.747 190.626C177.627 188.712 179.872 187.193 182.349 186.16C184.826 185.127 187.484 184.6 190.168 184.611C195.643 184.631 200.893 186.791 204.797 190.629C208.702 194.467 210.951 199.679 211.066 205.153Z" fill="white" stroke="#263238" stroke-width="0.468574" stroke-linecap="round" stroke-linejoin="round"/>
<path d="M203.421 203.279C196.983 199.061 184.36 199.061 178.222 203.279C177.099 203.489 176.089 204.096 175.377 204.989C174.665 205.882 174.297 207.001 174.342 208.142C174.435 210.87 185.766 210.87 185.672 208.142C185.617 207.002 185.181 205.913 184.435 205.05C188.684 204.131 193.081 204.131 197.33 205.05C196.638 205.929 196.28 207.024 196.318 208.142C196.412 210.87 207.742 210.87 207.639 208.142C207.585 206.975 207.14 205.861 206.375 204.978C205.61 204.095 204.569 203.497 203.421 203.279Z" fill="#FFAE0A" stroke="#263238" stroke-width="0.468574" stroke-linecap="round" stroke-linejoin="round"/>
<path d="M211.068 136.758C211.18 141.809 208.425 146.326 204.002 149.335V161.602L195.202 152.793C193.779 153.047 192.336 153.172 190.891 153.167C179.551 153.167 170.189 145.82 169.992 136.758C169.796 127.696 178.82 120.358 190.169 120.358C201.518 120.358 210.918 127.743 211.068 136.758Z" fill="white" stroke="#263238" stroke-width="0.468574" stroke-linecap="round" stroke-linejoin="round"/>
<path d="M181.783 136.761C181.785 137.287 181.631 137.803 181.339 138.242C181.048 138.681 180.633 139.023 180.147 139.226C179.661 139.429 179.125 139.483 178.608 139.381C178.092 139.28 177.616 139.027 177.243 138.655C176.87 138.283 176.616 137.809 176.512 137.293C176.409 136.776 176.461 136.24 176.662 135.754C176.863 135.267 177.204 134.85 177.642 134.558C178.08 134.265 178.595 134.108 179.122 134.108C179.826 134.108 180.502 134.388 181.001 134.885C181.499 135.382 181.781 136.056 181.783 136.761Z" fill="#FFAE0A" stroke="#263238" stroke-width="0.468574" stroke-linecap="round" stroke-linejoin="round"/>
<path d="M193.169 136.761C193.171 137.287 193.016 137.803 192.725 138.242C192.433 138.681 192.018 139.023 191.532 139.226C191.046 139.429 190.511 139.483 189.994 139.381C189.477 139.28 189.002 139.027 188.629 138.655C188.255 138.283 188.001 137.809 187.898 137.293C187.794 136.776 187.846 136.24 188.047 135.754C188.249 135.267 188.59 134.85 189.028 134.558C189.465 134.265 189.98 134.108 190.507 134.108C191.211 134.108 191.887 134.388 192.386 134.885C192.885 135.382 193.166 136.056 193.169 136.761Z" fill="#FFAE0A" stroke="#263238" stroke-width="0.468574" stroke-linecap="round" stroke-linejoin="round"/>
<path d="M204.555 136.761C204.557 137.287 204.402 137.803 204.111 138.242C203.819 138.681 203.404 139.023 202.918 139.226C202.432 139.429 201.897 139.483 201.38 139.381C200.863 139.28 200.388 139.027 200.015 138.655C199.641 138.283 199.387 137.809 199.284 137.293C199.18 136.776 199.232 136.24 199.433 135.754C199.635 135.267 199.976 134.85 200.414 134.558C200.851 134.265 201.366 134.108 201.893 134.108C202.597 134.108 203.273 134.388 203.772 134.885C204.271 135.382 204.552 136.056 204.555 136.761Z" fill="#FFAE0A" stroke="#263238" stroke-width="0.468574" stroke-linecap="round" stroke-linejoin="round"/>
<path d="M75.7813 174.162C75.4487 174.781 74.9692 175.308 74.3849 175.699C70.0616 179.147 65.6382 182.455 61.1149 185.623C59.4561 186.785 57.7318 187.985 56.1293 189.287C46.4954 195.735 52.3807 197.309 46.4954 210.954C45.1084 214.215 45.3614 230.194 45.3614 230.194H44.8835C43.7554 229.08 42.5564 228.041 41.2942 227.083C41.1198 226.965 40.9383 226.859 40.7506 226.764C40.5746 226.673 40.3845 226.613 40.1884 226.586C39.2512 226.53 35.6807 226.961 32.0726 226.726L31.1355 226.651C30.6107 226.595 30.0952 226.53 29.5798 226.436C29.0644 226.342 28.5677 226.239 28.0897 226.108C24.6657 225.01 21.3082 223.715 18.0341 222.228L16.4035 221.525L15.5975 221.178L14.8666 220.86L14.3418 220.635L13.8357 220.419C12.9829 220.063 12.1863 219.735 11.4553 219.482C11.1203 219.362 10.7793 219.259 10.4338 219.173C10.4338 219.941 10.312 220.729 10.2089 221.497C9.7591 225.161 8.75635 228.544 6.96639 228.994C6.92951 229.004 6.89081 229.004 6.85393 228.994C6.69628 229.024 6.53636 229.039 6.37598 229.041H6.23541C5.83889 229.033 5.44635 228.96 5.07334 228.826C3.44886 228.132 2.1213 226.888 1.32474 225.311C0.968784 224.647 0.770014 223.909 0.743715 223.156C0.743715 220.429 -0.0153809 204.338 -0.0153809 199.652C-0.0153809 194.966 0.921774 186.766 3.25528 183.721C4.16722 182.429 5.31895 181.325 6.64776 180.469C8.35757 179.043 10.3186 177.95 12.43 177.245C14.9228 176.43 20.4988 174.349 24.388 172.878L18.5121 175.146C20.0021 177.695 23.1978 181.706 28.9613 182.221C34.378 182.68 37.733 177.779 39.448 174.199C39.5979 174.255 49.0257 172.465 51.2092 172.569C58.3222 172.878 64.1232 169.026 66.7472 167.499C67.5387 167.026 68.4268 166.738 69.3453 166.656C70.2637 166.575 71.1886 166.702 72.051 167.028C72.9134 167.354 73.6909 167.871 74.3255 168.54C74.9601 169.209 75.4353 170.013 75.7157 170.891V170.975C76.1257 171.994 76.149 173.127 75.7813 174.162Z" fill="#FFAE0A" stroke="#263238" stroke-width="0.468574" stroke-linecap="round" stroke-linejoin="round"/>
<path d="M39.3442 174.256L38.9131 174.106" stroke="#263238" stroke-width="0.468574" stroke-linecap="round" stroke-linejoin="round"/>
<path d="M47.3383 234.318C47.3428 234.355 47.3428 234.393 47.3383 234.43C47.3002 234.521 47.2423 234.602 47.1689 234.667C47.0954 234.732 47.0082 234.78 46.9137 234.807C46.8193 234.834 46.72 234.839 46.6232 234.823C46.5263 234.806 46.4344 234.768 46.3543 234.712C45.9232 234.468 45.2578 232.903 45.2578 232.903L44.5175 232.134L44.0302 231.619C44.1051 231.806 44.6955 233.24 44.3863 233.906C44.3706 233.951 44.345 233.993 44.3113 234.027C44.1042 234.304 43.8355 234.529 43.5264 234.683C43.2172 234.838 42.8763 234.918 42.5307 234.918C42.1278 234.918 40.9469 235.058 39.9161 235.124H39.8036C39.4915 235.141 39.1786 235.141 38.8665 235.124C38.0344 235.017 37.2318 234.746 36.5049 234.327C34.8562 234.085 33.2319 233.699 31.6504 233.175L31.3693 233.025L31.1163 232.875C30.9499 232.774 30.7958 232.655 30.657 232.519C30.0859 232.043 29.6009 231.472 29.2232 230.832C29.2232 230.832 25.4184 230.672 20.3109 230.279C18.4366 230.138 16.4124 229.96 14.3132 229.754C11.0894 229.426 8.42787 229.445 6.33803 229.154H6.18809C5.77574 229.098 5.39151 229.023 5.02602 228.939C4.13409 228.764 3.30934 228.342 2.64633 227.721C1.98332 227.099 1.50889 226.303 1.27743 225.424C1.15472 225.008 1.05461 224.586 0.977539 224.159L2.60818 221.348C3.45808 220.666 4.40587 220.116 5.41962 219.717C6.99246 219.059 8.72918 218.899 10.3959 219.258C10.7414 219.344 11.0823 219.447 11.4174 219.567C12.1484 219.848 12.9449 220.176 13.7977 220.504L14.3132 220.72L14.838 220.945L15.569 221.263C19.7393 222.988 24.7155 225.209 28.0424 226.146C29.0416 226.408 30.0601 226.589 31.0881 226.69L32.0253 226.765C35.6333 226.999 39.1945 226.568 40.141 226.624C41.0875 226.68 43.4023 228.882 44.883 230.241C45.2859 230.616 45.6421 230.925 45.8857 231.113L45.9982 231.207L46.0825 231.282C46.6193 231.832 46.9952 232.519 47.1696 233.268C47.2434 233.519 47.2936 233.777 47.3196 234.037C47.3366 234.13 47.3429 234.224 47.3383 234.318Z" fill="white" stroke="#263238" stroke-width="0.468574" stroke-linecap="round" stroke-linejoin="round"/>
<path d="M47.3388 234.318C47.3434 234.355 47.3434 234.393 47.3388 234.43C47.2999 234.52 47.2413 234.6 47.1674 234.664C47.0935 234.728 47.0061 234.775 46.9118 234.801C46.8174 234.827 46.7184 234.832 46.6221 234.815C46.5257 234.798 46.4344 234.759 46.3548 234.702C45.8914 234.164 45.5209 233.553 45.2584 232.893L44.518 232.134L44.0307 231.628C44.0963 231.778 44.7055 233.24 44.3962 233.915C44.3805 233.96 44.3549 234.002 44.3212 234.037C44.2173 234.175 44.0978 234.301 43.9651 234.412C43.561 234.736 43.059 234.915 42.5406 234.918C42.1283 234.918 40.9569 235.049 39.9354 235.124H39.8042C39.492 235.141 39.1792 235.141 38.867 235.124C38.04 235.013 37.2417 234.746 36.5148 234.337C34.8662 234.09 33.242 233.701 31.6603 233.174L31.3886 233.043L31.1355 232.893C30.9735 232.787 30.8199 232.668 30.6763 232.537C30.0969 232.057 29.6053 231.48 29.2237 230.832C29.2237 230.832 25.5314 230.672 20.527 230.288C18.6527 230.148 16.4879 229.96 14.3137 229.745C11.3523 229.454 8.90635 229.37 6.92896 229.06L6.31981 228.948L5.61695 228.789C5.45491 227.64 5.5739 226.47 5.9637 225.377C6.32696 224.456 6.89033 223.626 7.61314 222.949C8.33595 222.271 9.20016 221.763 10.1434 221.46C11.314 221.03 12.5133 220.682 13.7327 220.42L14.2387 220.635L14.7635 220.86L15.4945 221.179C19.7398 223.006 24.6598 225.218 27.9961 226.127C28.9946 226.39 30.0134 226.569 31.0418 226.661L31.979 226.736C35.587 226.98 39.1482 226.549 40.0947 226.605C41.0412 226.661 43.3466 228.854 44.7804 230.213C45.1057 230.524 45.4467 230.818 45.8019 231.094L45.9144 231.178L45.9987 231.253C46.5457 231.796 46.9233 232.487 47.0858 233.24C47.1596 233.491 47.2098 233.748 47.2358 234.009C47.2837 234.107 47.3184 234.211 47.3388 234.318Z" fill="white" stroke="#263238" stroke-width="0.468574" stroke-linecap="round" stroke-linejoin="round"/>
<path d="M36.1213 231.824C36.1213 231.824 38.2487 232.93 39.0921 233.314C39.9355 233.698 39.8606 235.244 39.8606 235.244" fill="white"/>
<path d="M36.1213 231.824C36.1213 231.824 38.2487 232.93 39.0921 233.314C39.9355 233.698 39.8606 235.244 39.8606 235.244" stroke="#263238" stroke-width="0.468574" stroke-linecap="round" stroke-linejoin="round"/>
<path d="M38.3979 230.326C39.7363 231.281 41.0249 232.304 42.259 233.39C42.4393 233.602 42.5568 233.86 42.5982 234.135C42.6396 234.409 42.6032 234.691 42.4933 234.946" fill="white"/>
<path d="M38.3979 230.326C39.7363 231.281 41.0249 232.304 42.259 233.39C42.4393 233.602 42.5568 233.86 42.5982 234.135C42.6396 234.409 42.6032 234.691 42.4933 234.946" stroke="#263238" stroke-width="0.468574" stroke-linecap="round" stroke-linejoin="round"/>
<path d="M44.0023 231.608C42.8935 230.42 41.7203 229.294 40.488 228.234L44.0023 231.608Z" fill="white"/>
<path d="M44.0023 231.608C42.8935 230.42 41.7203 229.294 40.488 228.234" stroke="#263238" stroke-width="0.468574" stroke-linecap="round" stroke-linejoin="round"/>
<path d="M39.3355 174.274C37.6392 177.844 34.2749 182.708 28.8582 182.287C23.1228 181.799 19.899 177.76 18.4089 175.202C20.4707 174.414 22.5605 173.609 24.2755 172.934C24.2755 171.191 24.2193 169.101 24.0318 167.03C24.0318 166.58 23.9381 166.093 23.8913 165.671C23.8444 165.249 23.7882 164.949 23.7319 164.603H34.631C34.631 164.603 34.5654 165.034 34.4811 165.755C34.4155 166.402 34.3311 167.264 34.2655 168.239C34.1812 169.532 34.1249 171.05 34.1624 172.484C34.6872 172.662 35.2214 172.859 35.7556 173.065L36.7864 173.421C37.1988 173.571 37.6018 173.702 38.0328 173.843L38.97 174.124C39.0949 174.166 39.2169 174.216 39.3355 174.274Z" fill="white" stroke="#263238" stroke-width="0.468574" stroke-linecap="round" stroke-linejoin="round"/>
<path d="M23.8914 165.633C23.8914 165.633 25.925 170.919 28.877 171.818C31.829 172.718 34.4999 165.755 34.4999 165.755C34.4999 165.755 30.339 170.197 28.7927 169.504C27.2464 168.81 23.9101 165.671 23.9101 165.671" fill="#263238"/>
<path d="M22.1391 136.439C19.385 138.918 17.2012 141.965 15.7383 145.37C14.3982 148.181 13.2643 151.414 14.2951 154.357C14.912 155.818 15.7848 157.157 16.8723 158.312C18.8965 160.739 21.7361 167.514 23.7603 169.942C23.8915 165.621 20.2741 158.64 20.6584 155.013C21.1238 152.211 22.045 149.504 23.3855 147C24.7487 143.716 26.5317 140.623 28.6897 137.797C29.9174 136.317 33.8628 133.683 29.8799 133.365C27.2371 133.149 24.1352 134.799 22.1391 136.439Z" fill="#263238" stroke="#263238" stroke-width="0.468574" stroke-linecap="round" stroke-linejoin="round"/>
<path d="M19.5895 151.171C19.5895 151.171 18.1932 148.462 16.7218 151.03C15.6629 152.905 17.1904 155.857 17.8464 156.953C18.0641 157.265 18.359 157.515 18.7022 157.68C19.0455 157.844 19.4254 157.916 19.8051 157.89L19.5895 151.171Z" fill="white" stroke="#263238" stroke-width="0.468574" stroke-linecap="round" stroke-linejoin="round"/>
<path d="M37.9407 160.955C37.0452 162.725 35.8784 164.344 34.4827 165.753L33.6392 166.625C31.8961 168.349 30.0125 169.718 28.7754 169.436C27.6977 169.221 26.292 168.115 24.9144 166.7C24.5676 166.353 24.2303 165.978 23.8929 165.604C22.3929 163.963 21.1052 162.14 20.0599 160.177C19.7696 159.442 19.5835 158.669 19.507 157.881C19.2706 155.534 19.1892 153.173 19.2634 150.815C19.2634 149.981 19.2634 149.316 19.2634 148.941C19.2634 147.31 25.3736 141.641 25.3736 141.641C25.5383 141.58 25.7152 141.561 25.889 141.584C26.9399 141.776 27.9527 142.137 28.8879 142.653C32.5896 144.452 37.7533 148.023 38.1282 149.381C38.6998 151.359 38.4843 159.193 37.9407 160.955Z" fill="white" stroke="#263238" stroke-width="0.468574" stroke-linecap="round" stroke-linejoin="round"/>
<path d="M25.8026 153.442C25.8026 154.098 25.559 154.632 25.2872 154.632C25.0154 154.632 24.7437 154.117 24.7437 153.442C24.7437 152.767 24.9873 152.233 25.2872 152.233C25.5871 152.233 25.8026 152.786 25.8026 153.442Z" fill="#263238"/>
<path d="M32.7857 152.243C33.0856 152.243 33.3293 152.777 33.3293 153.442C33.3293 154.108 33.0856 154.632 32.7857 154.632C32.4858 154.632 32.2422 154.098 32.2422 153.442C32.2422 152.786 32.4858 152.243 32.7857 152.243Z" fill="#263238"/>
<path d="M22.3179 150.486C22.3179 150.486 23.255 148.612 26.5725 149.184" stroke="#263238" stroke-width="0.468574" stroke-linecap="round" stroke-linejoin="round"/>
<path d="M35.8694 150.486C35.8694 150.486 34.9323 148.612 31.6147 149.184" stroke="#263238" stroke-width="0.468574" stroke-linecap="round" stroke-linejoin="round"/>
<path d="M29.7302 158.024C30.0673 158.003 30.3886 157.874 30.6468 157.656C30.905 157.438 31.0863 157.143 31.1641 156.815C31.1641 156.815 29.346 154.003 29.8989 151.248" stroke="#263238" stroke-width="0.468574" stroke-linecap="round" stroke-linejoin="round"/>
<path d="M18.409 144.613C17.654 145.638 17.0832 146.786 16.7222 148.006" stroke="white" stroke-width="0.468574" stroke-linecap="round" stroke-linejoin="round"/>
<path d="M26.2432 137.113C26.2432 137.113 25.203 138.838 20.6203 142.352C20.325 142.565 20.0433 142.797 19.7769 143.045" stroke="white" stroke-width="0.468574" stroke-linecap="round" stroke-linejoin="round"/>
<path d="M11.5503 192.062C10.9256 200.971 10.3008 209.887 9.67603 218.808V218.124" fill="#263238"/>
<path d="M11.5503 192.062C10.9256 200.971 10.3008 209.887 9.67603 218.808V218.124" stroke="#263238" stroke-width="0.468574" stroke-linecap="round" stroke-linejoin="round"/>
<path d="M70.7503 162.643C71.5974 162.312 72.5127 162.194 73.4161 162.298C74.3195 162.403 75.1836 162.727 75.9327 163.243C77.4273 164.301 78.5151 165.839 79.0159 167.6C79.6134 169.355 79.5534 171.266 78.8472 172.98C78.4819 173.824 77.894 174.554 77.1462 175.09C76.3985 175.627 75.5191 175.95 74.6019 176.025C73.235 176.008 71.914 175.529 70.8534 174.667C67.3484 172.043 65.5959 164.864 70.7503 162.643Z" fill="white" stroke="#263238" stroke-width="0.468574" stroke-linecap="round" stroke-linejoin="round"/>
<path d="M78.5097 132.721C78.5097 132.833 78.5096 133.573 78.5752 133.705C78.9032 135.148 79.5967 138.756 77.8443 139.487C78.5096 141.858 80.1403 157.349 79.9247 165.249C79.8685 167.611 79.4562 170.413 77.3382 171.425C73.7677 173.121 70.3752 168.988 70.7782 165.755C71.4061 161.341 71.1905 156.843 71.7153 152.382C72.287 147.752 73.3366 143.01 72.1839 138.484C71.9028 138.175 70.1034 134.604 69.513 133.62C69.2481 133.2 69.0401 132.746 68.8945 132.271C68.6638 130.654 68.551 129.022 68.5571 127.388C69.0913 126.376 69.7848 127.313 70.1503 127.979C70.4483 128.79 70.5511 129.66 70.4502 130.518C70.4155 130.728 70.4449 130.944 70.5345 131.137C70.6132 131.247 70.7196 131.335 70.843 131.391C70.9665 131.447 71.1025 131.469 71.2374 131.455C72.3901 131.287 72.3432 130.321 72.3245 129.581C72.3245 127.098 72.3245 124.614 72.3245 122.15C72.3245 121.737 72.4557 120.622 72.8493 120.584C73.2429 120.547 73.8333 120.866 73.8895 122.187C73.9551 123.677 73.9551 128.269 73.9551 128.269C73.9923 128.307 74.0385 128.334 74.0893 128.349C74.1402 128.364 74.194 128.365 74.2456 128.353C74.3393 128.353 74.3768 128.185 74.4143 128.091C74.9672 125.786 75.5295 123.48 76.0824 121.175C76.148 120.903 76.551 120.341 76.8415 120.341C77.535 120.341 77.5538 121.147 77.5912 121.381C77.8349 122.618 76.1012 127.716 75.8107 128.878C75.8107 129.084 75.8107 129.394 76.0262 129.337L78.7439 123.855C78.8699 123.535 79.0682 123.248 79.3235 123.017C79.5787 122.786 79.884 122.618 80.2153 122.524C80.261 122.51 80.3101 122.51 80.3558 122.524C80.4047 122.553 80.4439 122.595 80.4683 122.646C80.7307 123.115 80.4683 123.761 80.3183 124.277C80.1684 124.792 78.1348 128.578 77.4132 130.106C77.3101 130.321 77.1414 130.809 77.3476 131.043C77.5538 131.277 77.9286 130.828 78.0786 130.518C78.5378 129.581 78.9688 128.7 79.3906 127.782C79.5218 127.51 79.7186 127.126 80.0278 127.191C81.8553 127.585 79.2594 131.418 78.5097 132.721Z" fill="white" stroke="#263238" stroke-width="0.468574" stroke-linecap="round" stroke-linejoin="round"/>
<path d="M73.4668 131.915C74.4102 132.662 75.2295 133.554 75.894 134.558C76.2217 135.062 76.4409 135.629 76.5377 136.223C76.6345 136.817 76.6068 137.424 76.4563 138.007C76.4108 138.159 76.3512 138.306 76.2782 138.447" fill="white"/>
<path d="M73.4668 131.915C74.4102 132.662 75.2295 133.554 75.894 134.558C76.2217 135.062 76.4409 135.629 76.5377 136.223C76.6345 136.817 76.6068 137.424 76.4563 138.007C76.4108 138.159 76.3512 138.306 76.2782 138.447" stroke="#263238" stroke-width="0.468574" stroke-linecap="round" stroke-linejoin="round"/>
<path d="M47.0671 190.458C48.0589 192.457 48.7263 194.602 49.0445 196.811C49.3163 199.023 49.4006 200.757 47.8918 206.97" stroke="#263238" stroke-width="0.468574" stroke-linecap="round" stroke-linejoin="round"/>
<path d="M25.9162 140.236C25.7879 140.62 25.7557 141.028 25.8225 141.427C26.0003 141.928 26.3273 142.363 26.7596 142.673C29.755 145.298 33.1054 147.487 36.7122 149.177C37.1645 149.295 37.5566 149.577 37.8115 149.969C38.0663 150.361 38.1656 150.834 38.0898 151.295V158.539C38.1358 159.286 38.0631 160.036 37.8742 160.76C37.3494 162.447 36.1873 163.806 35.3439 165.361C34.4865 166.837 34.052 168.519 34.0881 170.225C33.8538 168.435 40.114 164.968 41.8102 157.92C42.0445 156.927 46.9177 151.014 43.9938 144.069C41.1824 137.406 36.759 134.539 35.2689 134.192C34.2575 133.896 33.1902 133.846 32.1553 134.044C31.1205 134.243 30.1479 134.686 29.318 135.335C27.6804 136.555 26.4859 138.276 25.9162 140.236Z" fill="#263238" stroke="#263238" stroke-width="0.468574" stroke-linecap="round" stroke-linejoin="round"/>
<path d="M32.0534 160.546C31.5193 160.658 30.9757 160.761 30.4322 160.827C28.5579 161.061 26.5524 160.771 25.3247 159.402C25.4184 160.63 26.2619 165.269 28.7828 165.4C31.3037 165.531 32.0534 160.546 32.0534 160.546Z" stroke="#263238" stroke-width="0.468574" stroke-linecap="round" stroke-linejoin="round"/>
<path d="M29.6172 137.407C30.6981 139.861 32.4204 141.978 34.6028 143.536C36.1866 144.67 37.9953 145.485 39.4479 146.778C41.3222 148.493 42.5498 151.211 41.8282 153.676" stroke="white" stroke-width="0.468574" stroke-linecap="round" stroke-linejoin="round"/>
<path d="M49.2045 175.267C47.399 176.716 46.2101 178.796 45.8776 181.087C45.5544 183.066 45.7981 185.097 46.5805 186.944" stroke="#263238" stroke-width="0.468574" stroke-linecap="round" stroke-linejoin="round"/>
<path d="M14.2954 190.731C14.1455 193.186 12.6179 195.314 11.1372 197.291L14.2954 190.731Z" fill="#263238"/>
<path d="M14.2954 190.731C14.1455 193.186 12.6179 195.314 11.1372 197.291" stroke="#263238" stroke-width="0.468574" stroke-linecap="round" stroke-linejoin="round"/>
<path d="M10.6399 209.502C11.3842 210.748 12.3805 211.825 13.565 212.664C14.7495 213.504 16.096 214.086 17.5186 214.375" stroke="#263238" stroke-width="0.468574" stroke-linecap="round" stroke-linejoin="round"/>
<path d="M46.4954 210.962C46.4954 210.962 43.9745 214.711 35.4089 215.498" stroke="#263238" stroke-width="0.468574" stroke-linecap="round" stroke-linejoin="round"/>
<path d="M297.417 178.117C297.417 178.117 264.758 188.238 258.61 180.244L259.444 139.469H264.401L270.23 168.192L296.995 163.291C296.995 163.291 300.425 173.918 297.417 178.117Z" fill="white"/>
<mask id="mask0_1953_9385" style="mask-type:luminance" maskUnits="userSpaceOnUse" x="258" y="139" width="41" height="45">
<path d="M297.417 178.117C297.417 178.117 264.758 188.238 258.61 180.244L259.444 139.469H264.401L270.23 168.192L296.995 163.291C296.995 163.291 300.425 173.918 297.417 178.117Z" fill="white"/>
</mask>
<g mask="url(#mask0_1953_9385)">
<path d="M283.659 179.54C281.786 180.284 279.998 181.227 278.326 182.351C280.538 183.054 282.899 182.164 285.111 181.461C288.032 180.564 291.009 179.863 294.023 179.362C294.164 178.528 293.086 176.625 292.665 175.885C291.896 174.592 291.727 174.479 290.434 175.116C288.082 176.297 286.076 178.35 283.659 179.54Z" fill="#FFAE0A"/>
</g>
<path d="M297.417 178.117C297.417 178.117 264.758 188.238 258.61 180.244L259.444 139.469H264.401L270.23 168.192L296.995 163.291C296.995 163.291 300.425 173.918 297.417 178.117Z" stroke="#263238" stroke-width="0.468574" stroke-linecap="round" stroke-linejoin="round"/>
<path d="M294.21 179.182L299.946 214.494C299.796 237.379 310.714 233.94 318.295 233.874C327.058 233.799 340.356 225.112 333.833 211.589L336.345 162.642L321.079 161.48C316.046 161.086 295.429 161.733 293.789 164.366C289.534 171.198 294.21 179.182 294.21 179.182Z" fill="white"/>
<mask id="mask1_1953_9385" style="mask-type:luminance" maskUnits="userSpaceOnUse" x="292" y="161" width="45" height="74">
<path d="M294.21 179.182L299.946 214.494C299.796 237.379 310.714 233.94 318.295 233.874C327.058 233.799 340.356 225.112 333.833 211.589L336.345 162.642L321.079 161.48C316.046 161.086 295.429 161.733 293.789 164.366C289.534 171.198 294.21 179.182 294.21 179.182Z" fill="white"/>
</mask>
<g mask="url(#mask1_1953_9385)">
<path d="M295.108 182.099C298.515 194.985 306.683 206.098 317.965 213.194C316.744 213.001 315.551 212.657 314.414 212.172C313.269 211.679 311.987 211.61 310.796 211.975C310.509 212.079 310.244 212.238 310.018 212.444C309.792 212.65 309.609 212.899 309.48 213.176C309.35 213.453 309.276 213.752 309.262 214.058C309.249 214.363 309.295 214.668 309.4 214.956C309.673 215.395 310.046 215.764 310.487 216.033C312.348 217.341 314.382 218.382 316.532 219.126C314.647 218.932 312.742 219.078 310.909 219.557C310.571 221.188 312.389 222.368 313.823 223.165C316.111 224.514 318.07 226.354 319.559 228.554C314.527 228.564 309.499 228.852 304.499 229.416C303.839 229.564 303.15 229.498 302.531 229.228C301.882 228.745 301.445 228.03 301.312 227.232C300.198 223.333 299.55 219.316 299.382 215.265C299.288 212.988 299.382 210.692 299.082 208.433C298.84 206.652 298.509 204.885 298.088 203.138C296.633 196.378 295.518 189.565 294.743 182.699C294.396 182.727 295.108 182.099 295.108 182.099Z" fill="#FFAE0A"/>
<path d="M333.824 179.287C332.56 178.882 331.381 178.246 330.347 177.413C330.638 178.819 332.737 181.246 333.965 181.996C334.218 182.155 334.583 182.286 334.808 182.071C335.033 181.855 335.183 181.302 335.408 181.134L333.824 179.287Z" fill="#FFAE0A"/>
</g>
<path d="M294.21 179.182L299.946 214.494C299.796 237.379 310.714 233.94 318.295 233.874C327.058 233.799 340.356 225.112 333.833 211.589L336.345 162.642L321.079 161.48C316.046 161.086 295.429 161.733 293.789 164.366C289.534 171.198 294.21 179.182 294.21 179.182Z" stroke="#263238" stroke-width="0.468574" stroke-linecap="round" stroke-linejoin="round"/>
<path d="M305.375 160.762C303.732 163.769 302.942 167.168 303.088 170.592C303.086 170.891 303.144 171.187 303.257 171.464C303.679 172.298 304.831 172.298 305.759 172.401C309.367 172.86 311.607 176.665 315.009 177.94C315.128 178.013 315.261 178.062 315.399 178.083C315.538 178.104 315.679 178.097 315.815 178.062C315.951 178.027 316.078 177.965 316.189 177.879C316.3 177.794 316.393 177.687 316.461 177.565C317.942 175.69 318.467 173.057 320.491 171.848C321.372 171.323 322.487 171.108 323.096 170.283C323.79 169.346 323.481 167.996 323.143 166.853C322.59 164.979 321.972 163.03 320.538 161.727C319.01 160.535 317.134 159.876 315.196 159.853C312.36 159.621 309.506 159.887 306.762 160.64C306.799 160.996 305.375 160.762 305.375 160.762Z" fill="#FFAE0A" stroke="#263238" stroke-width="0.468574" stroke-linecap="round" stroke-linejoin="round"/>
<path d="M350.732 184.724C348.441 181.389 346.754 177.678 345.746 173.759C345.379 171.796 344.807 169.877 344.04 168.033C343.317 166.609 342.272 165.373 340.989 164.421C339.706 163.47 338.219 162.83 336.646 162.551C335.975 162.403 335.277 162.436 334.622 162.645C333.263 163.16 332.663 164.725 332.392 166.15C331.804 169.209 331.977 172.367 332.898 175.343C333.526 177.367 341.07 192.043 346.018 197.732C345.587 194.864 348.886 185.277 350.732 184.724Z" fill="white"/>
<mask id="mask2_1953_9385" style="mask-type:luminance" maskUnits="userSpaceOnUse" x="332" y="162" width="19" height="36">
<path d="M350.732 184.725C348.442 181.389 346.754 177.678 345.747 173.76C345.38 171.797 344.808 169.878 344.041 168.034C343.317 166.61 342.273 165.373 340.99 164.422C339.707 163.47 338.22 162.83 336.647 162.552C335.976 162.404 335.277 162.436 334.623 162.645C333.264 163.161 332.664 164.726 332.392 166.15C331.804 169.21 331.978 172.367 332.898 175.344C333.526 177.368 341.07 192.044 346.018 197.732C345.587 194.864 348.886 185.277 350.732 184.725Z" fill="white"/>
</mask>
<g mask="url(#mask2_1953_9385)">
<path d="M335.933 181.847L340.563 190.572C341.228 191.818 341.978 193.149 343.271 193.693C342.457 190.81 341.995 187.839 341.894 184.846C341.944 183.342 341.771 181.838 341.378 180.385C341.191 180.544 340.994 179.87 340.994 179.87C340.788 180.254 340.244 180.263 339.822 180.179C336.795 179.542 334.715 176.843 332.916 174.331C332.682 175.172 332.644 176.056 332.807 176.914C332.969 177.773 333.327 178.582 333.853 179.279C333.853 179.279 335.783 181.556 335.933 181.847Z" fill="#FFAE0A"/>
</g>
<path d="M350.732 184.724C348.441 181.389 346.754 177.678 345.746 173.759C345.379 171.796 344.807 169.877 344.04 168.033C343.317 166.609 342.272 165.373 340.989 164.421C339.706 163.47 338.219 162.83 336.646 162.551C335.975 162.403 335.277 162.436 334.622 162.645C333.263 163.16 332.663 164.725 332.392 166.15C331.804 169.209 331.977 172.367 332.898 175.343C333.526 177.367 341.07 192.043 346.018 197.732C345.587 194.864 348.886 185.277 350.732 184.724Z" stroke="#263238" stroke-width="0.468574" stroke-linecap="round" stroke-linejoin="round"/>
<path d="M344.226 195.218C339.184 185.556 341.621 163.29 341.471 159.71L348.125 159.354C348.79 159.354 351.873 178.34 353.973 186.222C355.847 193.4 354.048 200.663 350.73 200.663C347.975 200.663 345.285 197.252 344.226 195.218Z" fill="white" stroke="#263238" stroke-width="0.468574" stroke-linecap="round" stroke-linejoin="round"/>
<path d="M284.146 170.13C288.831 163.289 298.025 162.745 298.025 162.745" stroke="#263238" stroke-width="0.468574" stroke-linecap="round" stroke-linejoin="round"/>
<path d="M266.068 173.965C267.486 172.662 268.596 171.062 269.32 169.279L266.068 173.965Z" fill="white"/>
<path d="M266.068 173.965C267.486 172.662 268.596 171.062 269.32 169.279" stroke="#263238" stroke-width="0.468574" stroke-linecap="round" stroke-linejoin="round"/>
<path d="M300.883 206.296C303.554 210.672 320.853 215.349 327.751 214.346" stroke="#263238" stroke-width="0.468574" stroke-linecap="round" stroke-linejoin="round"/>
<path d="M305.776 218.648C310.759 219.506 315.867 219.311 320.771 218.077" stroke="#263238" stroke-width="0.468574" stroke-linecap="round" stroke-linejoin="round"/>
<path d="M328.729 176.186L332.028 180.656C332.478 181.265 333.106 181.95 333.846 181.781" stroke="#263238" stroke-width="0.468574" stroke-linecap="round" stroke-linejoin="round"/>
<path d="M347.661 334.386C347.8 338.813 347.429 343.24 346.555 347.581C346.349 348.565 346.555 350.055 347.492 349.962C347.86 349.905 348.194 349.715 348.429 349.428C351.874 346.03 354.338 341.766 355.561 337.085C355.745 336.599 355.831 336.081 355.813 335.562C355.795 335.042 355.675 334.531 355.458 334.058C355.201 333.679 354.885 333.343 354.521 333.065C351.344 330.525 347.37 328.004 347.661 334.386Z" fill="white" stroke="#263238" stroke-width="0.468574" stroke-linecap="round" stroke-linejoin="round"/>
<path d="M336.776 221.114C336.776 221.114 341.715 229.698 342.774 231.694C343.833 233.69 366.202 263.089 370.494 284.493C371.3 288.56 354.797 334.05 354.797 334.05L351.049 331.932C351.049 331.932 353.654 290.444 353.017 286.995C352.379 283.547 335.914 258.094 335.914 258.094C335.914 258.094 326.72 251.337 322.934 243.484L336.776 221.114Z" fill="#263238"/>
<path d="M337.312 242.621C337.312 242.621 334.501 248.881 334.501 249.781C334.501 250.681 349.964 299.544 354.509 310.846C357.383 318.124 359.916 325.571 362.109 333.187C362.109 333.187 363.871 335.502 362.54 337.873C361.21 340.244 355.915 341.8 354.828 339.682C353.741 337.564 343.029 326.562 338.512 315.616C333.995 304.67 327.641 286.377 324.024 279.564C319.286 270.858 315.079 261.873 311.428 252.658C306.883 241.028 302.235 228.489 302.235 228.489C304.123 228.659 306.019 228.712 307.914 228.648C312.375 228.496 316.792 227.714 321.034 226.324C330.912 223.007 335.185 216.653 335.185 216.653C335.185 216.653 337.631 223.278 338.268 224.562L337.312 242.621Z" fill="#263238"/>
<path d="M328.382 228.02C330.875 232.312 333.208 238.488 332.833 243.436C332.632 244.334 332.317 245.203 331.896 246.022" stroke="white" stroke-width="0.468574" stroke-linecap="round" stroke-linejoin="round"/>
<path d="M313.293 232.789C313.564 235.179 313.93 239.152 313.405 241.495C312.962 243.891 311.587 246.014 309.582 247.399" stroke="white" stroke-width="0.468574" stroke-linecap="round" stroke-linejoin="round"/>
<path d="M334.547 223.746C335.091 224.424 335.533 225.179 335.859 225.985C336.493 227.144 337.366 228.156 338.419 228.953C339.472 229.751 340.682 230.318 341.969 230.615" stroke="white" stroke-width="0.468574" stroke-linecap="round" stroke-linejoin="round"/>
<path d="M326.589 233.322C329.897 240.557 332.427 247.81 337.563 260.105" stroke="white" stroke-width="0.468574" stroke-linecap="round" stroke-linejoin="round"/>
<path d="M324.826 229.623C325.107 230.185 325.379 230.748 325.651 231.31" stroke="white" stroke-width="0.468574" stroke-linecap="round" stroke-linejoin="round"/>
<path d="M330.628 287.901C323.328 272.326 315.54 256.872 305.972 233.322" stroke="white" stroke-width="0.468574" stroke-linecap="round" stroke-linejoin="round"/>
<path d="M332.281 292.43C332.103 291.886 331.916 291.342 331.719 290.79" stroke="white" stroke-width="0.468574" stroke-linecap="round" stroke-linejoin="round"/>
<path d="M357.516 340.317C355.642 337.871 341.978 318.763 338.586 310.104C336.327 304.331 334.621 300.254 332.963 294.5" stroke="white" stroke-width="0.468574" stroke-linecap="round" stroke-linejoin="round"/>
<path d="M347.984 159.365L346.016 159.524C343.523 159.968 340.962 159.849 338.519 159.178C336.954 158.793 333.327 157.669 332.896 157.594C331.819 157.364 330.73 157.188 329.635 157.069C326.327 156.872 328.004 155.635 329.382 155.692C331.2 155.776 331.809 155.738 333.206 155.841C333.037 155.748 332.522 155.645 332.512 155.242C332.512 154.258 333.805 154.305 333.805 154.305C333.805 154.305 332.39 153.705 332.587 152.964C332.784 152.224 333.73 152.027 334.33 152.083C334.33 152.083 333.534 151.699 333.571 151.287C333.74 149.694 337.01 149.581 337.01 149.581C336.219 149.228 335.479 148.771 334.808 148.222C334.563 147.959 334.392 147.636 334.311 147.285C334.294 147.118 334.322 146.95 334.391 146.797C334.461 146.644 334.571 146.513 334.709 146.417C334.847 146.322 335.008 146.265 335.175 146.252C335.343 146.24 335.511 146.273 335.661 146.348C336.507 146.912 337.324 147.518 338.107 148.166C339.119 148.888 340.29 149.347 341.359 149.994C342.4 150.885 343.24 151.987 343.824 153.227C343.992 153.489 347.984 159.365 347.984 159.365Z" fill="white" stroke="#263238" stroke-width="0.468574" stroke-linecap="round" stroke-linejoin="round"/>
<path d="M259.442 139.467V134.304C259.43 131.713 259.809 129.134 260.567 126.657C260.998 125.288 261.504 124.098 261.963 123.92C262.816 123.611 263.191 127.069 263.191 127.069C262.55 124.296 262.139 121.475 261.963 118.635C261.963 115.626 266.012 128.118 266.012 128.118L264.4 139.467H259.442Z" fill="white" stroke="#263238" stroke-width="0.468574" stroke-linecap="round" stroke-linejoin="round"/>
<path d="M264.334 131.069C264.824 130.691 265.189 130.176 265.384 129.588L264.334 131.069Z" fill="white"/>
<path d="M264.334 131.069C264.824 130.691 265.189 130.176 265.384 129.588" stroke="#263238" stroke-width="0.468574" stroke-linecap="round" stroke-linejoin="round"/>
<path d="M303.583 150.234C305.333 153.18 306.301 156.526 306.394 159.952C306.563 165.65 313.16 173.625 315.044 174.009C316.928 174.393 318.671 165.012 318.586 162.173C318.502 159.333 317.452 151.489 317.452 151.489C317.452 151.489 308.428 144.667 303.583 150.234Z" fill="white" stroke="#263238" stroke-width="0.468574" stroke-linecap="round" stroke-linejoin="round"/>
<path d="M306.236 157.781C306.236 157.781 314.886 169.58 318.278 157.585C321.671 145.589 308.766 160.865 306.236 157.781Z" fill="#263238"/>
<path d="M320.837 149.298C320.377 156.299 317.182 160.235 313.499 160.928C310.134 161.547 305.214 158.117 302.759 153.028C302.571 152.906 299.582 150.835 298.87 150.329C298.498 150.069 298.194 149.723 297.985 149.319C297.777 148.916 297.668 148.469 297.67 148.015C297.694 147.579 297.848 147.16 298.112 146.813C298.376 146.465 298.738 146.205 299.151 146.065H299.235C299.657 145.973 300.097 146.006 300.5 146.159C299.882 143.769 299.376 141.342 298.992 138.896C299.17 133.273 301.035 128.681 307.032 128.231C313.03 127.782 318.044 131.137 318.278 133.554C318.447 135.429 319.056 140.386 319.599 145.512C319.749 146.843 320.94 147.724 320.837 149.298Z" fill="white" stroke="#263238" stroke-width="0.468574" stroke-linecap="round" stroke-linejoin="round"/>
<path d="M318.277 141.203C318.277 141.203 314.416 139.432 315.072 145.186C315.204 146.32 317.312 147.997 317.312 147.997C317.312 147.997 316.769 149.694 315.766 149.694" fill="white"/>
<path d="M318.277 141.203C318.277 141.203 314.416 139.432 315.072 145.186C315.204 146.32 317.312 147.997 317.312 147.997C317.312 147.997 316.769 149.694 315.766 149.694" stroke="#263238" stroke-width="0.468574" stroke-linecap="round" stroke-linejoin="round"/>
<path d="M310.816 143.17C310.816 143.17 308.848 141.971 307.499 142.711C306.795 143.017 306.196 143.522 305.774 144.164" fill="white"/>
<path d="M310.816 143.17C310.816 143.17 308.848 141.971 307.499 142.711C306.795 143.017 306.196 143.522 305.774 144.164" stroke="#263238" stroke-width="0.468574" stroke-linecap="round" stroke-linejoin="round"/>
<path d="M309.693 146.488C309.843 147.182 309.693 147.8 309.29 147.885C308.887 147.969 308.493 147.463 308.353 146.769C308.212 146.076 308.353 145.457 308.765 145.373C309.177 145.289 309.552 145.785 309.693 146.488Z" fill="#263238"/>
<path d="M317.304 144.465C317.454 145.158 317.304 145.777 316.901 145.861C316.498 145.946 316.105 145.44 315.964 144.755C315.824 144.071 315.964 143.434 316.367 143.359C316.77 143.284 317.164 143.781 317.304 144.465Z" fill="#263238"/>
<path d="M298.543 131.634C297.858 132.305 297.383 133.162 297.175 134.098C296.614 136.08 296.452 138.153 296.698 140.198C296.944 142.243 297.593 144.218 298.609 146.01C299.234 145.933 299.867 145.958 300.483 146.085C301.139 146.253 301.983 147.378 302.292 147.959C302.563 148.578 302.719 149.242 302.751 149.918C302.601 148.137 302.461 146.366 302.311 144.585C302.21 143.873 302.242 143.149 302.404 142.448C302.864 140.987 302.358 137.538 302.489 134.455C306.378 139.206 312.029 138.363 313.903 138.203C316.715 137.969 319.114 135.092 318.964 133.039C318.814 130.987 318.261 125.702 308.993 125.158C306.951 124.941 304.892 125.37 303.107 126.386C302.542 126.759 302.061 127.247 301.698 127.819C301.334 128.39 301.096 129.033 300.999 129.703C300.868 130.565 301.196 130.64 300.54 131.062C299.884 131.484 299.19 131.081 298.543 131.634Z" fill="#263238" stroke="#263238" stroke-width="0.468574" stroke-linecap="round" stroke-linejoin="round"/>
<path d="M310.818 152.991C310.818 152.991 312.195 154.509 315.073 153.506L310.818 152.991Z" fill="white"/>
<path d="M310.818 152.991C310.818 152.991 312.195 154.509 315.073 153.506" stroke="#263238" stroke-width="0.468574" stroke-linecap="round" stroke-linejoin="round"/>
</svg>
