<svg width="278" height="70" viewBox="0 0 278 70" fill="none" xmlns="http://www.w3.org/2000/svg">
<path fill-rule="evenodd" clip-rule="evenodd" d="M30.4626 10.4028C30.3035 10.4535 29.9386 10.5641 29.6522 10.6481C24.8428 12.059 22.5744 18.1987 25.2195 22.6474C28.3095 27.8439 35.9225 27.9885 39.1703 22.9115C42.2325 18.125 39.7534 11.92 34.1927 10.4535C33.5283 10.2784 30.9609 10.2437 30.4626 10.4028ZM52.2099 21.1239C50.0992 21.5847 48.2435 22.5403 46.6548 23.9845C46.112 24.478 44.8283 26.0258 44.8269 26.1877C44.8262 26.2343 44.6483 26.5512 44.4301 26.8917C44.2125 27.2323 43.9324 27.6889 43.8087 27.9071C43.685 28.1254 43.1596 29.0011 42.6411 29.8531C42.1227 30.7052 41.6987 31.412 41.6987 31.4238C41.6987 31.5059 38.7415 36.4028 38.4412 36.8178C37.0422 38.7506 34.8425 39.7298 32.6345 39.4039C31.4836 39.2343 31.0283 39.014 28.2622 37.2924C24.3459 34.8544 21.0933 32.8792 20.9974 32.8806C20.9119 32.882 20.3851 33.6235 20.3851 33.7424C20.3851 33.773 20.112 34.2324 19.777 34.7626C19.0639 35.8948 19.0604 35.8997 18.305 37.1305C17.5954 38.2856 17.5968 38.2224 18.2716 38.6421C18.5739 38.8305 19.5226 39.4219 20.3795 39.9571C21.2358 40.4922 21.9919 40.9516 22.0587 40.9773C22.1261 41.0038 22.6126 41.3033 23.1401 41.6439C23.6683 41.9837 24.1249 42.2617 24.1548 42.2617C24.1854 42.2617 24.6427 42.5355 25.1723 42.8698C25.7019 43.2048 26.2356 43.5419 26.3586 43.619C27.7959 44.5239 29.4166 45.2586 30.4626 45.4796C30.8129 45.5539 31.3814 45.6749 31.7254 45.7492C35.3547 46.5325 39.5595 44.8221 42.4278 41.3957L42.7169 41.051L43.4529 41.8079C44.1312 42.505 44.5593 43.193 44.9597 44.2313C45.1494 44.7234 45.1529 47.183 44.9659 48.6328C44.8964 49.1742 44.7824 50.191 44.7129 50.8916C44.5878 52.1495 44.3467 54.3005 44.1277 56.1041C43.9436 57.6213 43.8456 57.4802 45.2029 57.6491C47.4012 57.9236 48.8183 58.0584 49.5752 58.0661L50.3285 58.073L50.4085 57.3203C50.4529 56.9061 50.544 56.02 50.6107 55.3514C50.8734 52.7361 50.9568 51.9751 51.2077 49.9067C51.3745 48.5327 51.4711 47.0663 51.4774 45.818C51.4864 43.9276 51.4934 43.8734 51.7185 43.9422C55.1644 44.9958 59.1467 44.4607 62.106 42.5467C63.307 41.7696 65.2864 39.7486 65.064 39.5255C64.9687 39.431 58.8423 37.3967 58.6519 37.3967C58.5629 37.3967 58.2953 37.5162 58.0576 37.6615C52.1515 41.2804 45.9862 33.333 50.895 28.4284C54.502 24.8241 60.9183 27.4172 60.9259 32.483L60.9273 33.3024L61.8829 34.1795C62.792 35.0128 63.7448 35.9129 65.2572 37.3661L65.939 38.0208L66.1523 37.7574C66.627 37.1715 67.1844 34.609 67.1802 33.0307C67.1608 25.4962 59.6283 19.5046 52.2099 21.1239Z" fill="#FCAC0C"/>
<path fill-rule="evenodd" clip-rule="evenodd" d="M12.2786 21.151C7.66516 21.9537 4.22213 25.6108 3.5862 30.3827L3.45137 31.3967L3.02881 31.3981C2.47907 31.4009 2.28725 31.5322 2.3352 31.8728L2.37482 32.1494L14.1064 32.1786C24.8914 32.2057 25.8436 32.1932 25.9103 32.018C26.034 31.6976 25.7803 31.4565 25.2806 31.4196C24.7677 31.3807 24.6781 31.241 24.6725 30.4695C24.6662 29.5334 23.9914 27.4268 23.3986 26.4927C23.2074 26.1911 23.0511 25.918 23.0511 25.8853C23.0511 25.7213 22.0649 24.5356 21.415 23.9185C18.9589 21.586 15.609 20.5713 12.2786 21.151Z" fill="#1C9C2C"/>
<path fill-rule="evenodd" clip-rule="evenodd" d="M259.635 30.8883C259.609 30.9147 259.587 31.0753 259.587 31.2456C259.587 31.4151 259.459 32.197 259.302 32.9824C259.146 33.7677 259.044 34.453 259.076 34.5051C259.108 34.5572 259.084 34.6942 259.023 34.8088C258.926 34.9902 258.716 36.1189 258.606 37.0509C258.586 37.217 258.539 37.5041 258.502 37.6875C258.463 37.8717 258.404 38.1998 258.368 38.4173C258.332 38.6348 258.271 38.8649 258.232 38.9274C258.192 38.9921 258.22 39.006 258.295 38.9594C258.369 38.9142 258.429 38.9323 258.429 38.9997C258.429 39.0671 258.371 39.122 258.301 39.122C258.23 39.122 258.202 39.1985 258.238 39.2923C258.274 39.3861 258.252 39.4938 258.19 39.5321C258.128 39.5703 258.109 39.6523 258.147 39.7142C258.186 39.7767 258.166 39.89 258.104 39.9671C258.042 40.0443 257.964 40.3411 257.93 40.6281C257.896 40.9151 257.809 41.4621 257.737 41.8443C257.665 42.2266 257.584 42.7346 257.556 42.9737C257.529 43.2121 257.485 43.5249 257.458 43.6687C257.432 43.8119 257.372 44.1379 257.325 44.3929C257.278 44.6473 257.219 44.96 257.192 45.0879C257.047 45.7927 256.696 47.7004 256.639 48.0994C256.526 48.8847 256.468 49.2343 256.346 49.8654C256.125 51.0031 256.007 51.6891 255.927 52.2694C255.884 52.5877 255.806 52.9623 255.755 53.1006C255.704 53.2396 255.649 53.617 255.634 53.9402C255.619 54.2633 255.562 54.5281 255.505 54.5281C255.449 54.5281 255.435 54.5789 255.474 54.6414C255.512 54.7033 255.486 54.9667 255.417 55.2266C255.346 55.4858 255.266 55.891 255.237 56.1266C255.209 56.3623 255.121 56.8119 255.043 57.1254C254.927 57.5882 254.928 57.705 255.05 57.746C255.133 57.7731 255.248 57.9204 255.306 58.0733C255.404 58.3312 255.471 58.3507 256.27 58.3507H257.128L257.214 57.8002C257.262 57.4979 257.324 57.1198 257.351 56.9606C257.379 56.8015 257.41 56.5019 257.421 56.2948C257.433 56.0877 257.473 55.9181 257.511 55.9181C257.549 55.9181 257.572 55.7618 257.56 55.5706C257.549 55.3795 257.586 55.2231 257.643 55.2231C257.701 55.2231 257.721 55.18 257.688 55.1272C257.656 55.0744 257.7 54.7943 257.787 54.5045C257.875 54.2147 257.96 53.7497 257.976 53.471C257.992 53.1923 258.044 52.8845 258.092 52.7872C258.139 52.6899 258.204 52.3514 258.235 52.0345C258.267 51.7176 258.305 51.4583 258.318 51.4583C258.331 51.4583 258.361 51.3541 258.383 51.2269C258.406 51.0997 258.481 50.7084 258.55 50.3581C258.619 50.0078 258.698 49.5123 258.724 49.2579C258.75 49.0029 258.803 48.6644 258.841 48.5046C258.931 48.1341 259.043 47.3641 259.056 47.0277C259.061 46.8845 259.105 46.767 259.153 46.767C259.201 46.767 259.24 46.6093 259.24 46.4161C259.24 46.2229 259.315 45.8844 259.407 45.6634C259.5 45.4424 259.55 45.2617 259.519 45.2617C259.489 45.2617 259.528 45.1442 259.608 45.001C259.687 44.8572 259.757 44.714 259.761 44.682C259.779 44.5542 260.092 44.0406 260.191 43.9759C260.25 43.9377 260.309 43.8321 260.322 43.741C260.335 43.65 260.449 43.4637 260.575 43.3268C260.983 42.882 261.08 42.7388 261.018 42.677C260.985 42.6429 261.092 42.5275 261.257 42.4191C261.421 42.3114 261.556 42.1481 261.556 42.0556C261.556 41.9639 261.603 41.9173 261.66 41.9528C261.717 41.9882 261.795 41.9354 261.833 41.836C261.871 41.7373 261.949 41.6845 262.007 41.7199C262.063 41.7554 262.196 41.6546 262.299 41.4962C262.403 41.337 262.552 41.2049 262.631 41.2029C262.708 41.2001 262.95 41.0458 263.168 40.8595C263.385 40.674 263.607 40.5489 263.66 40.5815C263.713 40.6149 263.757 40.5864 263.757 40.519C263.757 40.4516 263.825 40.3967 263.909 40.3967C263.993 40.3967 264.288 40.2868 264.566 40.152C264.844 40.0179 265.185 39.8956 265.323 39.881C265.461 39.8657 265.639 39.8135 265.716 39.7656C265.841 39.6884 266.505 39.5821 267.001 39.5606C267.459 39.5397 268.828 39.6926 269.086 39.7927C269.245 39.8546 269.392 39.8622 269.411 39.8108C269.431 39.7586 269.546 39.8003 269.667 39.9039C269.788 40.0075 269.979 40.1055 270.092 40.1221C270.205 40.1388 270.316 40.2069 270.338 40.2743C270.36 40.3418 270.488 40.3967 270.62 40.3967C270.753 40.3967 270.832 40.4265 270.794 40.4641C270.757 40.5009 270.928 40.7261 271.173 40.9645C271.418 41.2029 271.654 41.5372 271.697 41.7074C271.74 41.8784 271.824 42.0181 271.885 42.0181C271.946 42.0181 271.963 42.0702 271.923 42.1342C271.884 42.1974 271.91 42.2495 271.981 42.2495C272.053 42.2495 272.082 42.2961 272.047 42.3531C272.012 42.4101 272.064 42.6839 272.163 42.9612C272.347 43.4832 272.414 45.4 272.267 45.9567C272.224 46.1158 272.178 46.35 272.163 46.4779C272.149 46.6051 272.106 46.7872 272.069 46.8831C271.992 47.0791 271.866 47.87 271.803 48.5629C271.779 48.8173 271.723 49.1565 271.677 49.3156C271.632 49.4748 271.584 49.7354 271.57 49.8946C271.557 50.0544 271.509 50.315 271.463 50.4742C271.418 50.6333 271.362 50.9718 271.34 51.2269C271.317 51.4819 271.292 51.6904 271.284 51.6904C271.254 51.6904 271.152 52.1568 271.119 52.4431C271.1 52.6023 271.071 52.7455 271.055 52.7614C271.039 52.7774 271.014 52.9338 271 53.1089C270.985 53.2841 270.905 53.8185 270.821 54.2967C270.737 54.7742 270.666 55.2523 270.663 55.3594C270.66 55.4664 270.61 55.5241 270.552 55.4879C270.493 55.4518 270.47 55.4949 270.501 55.5832C270.531 55.6721 270.511 55.9008 270.455 56.0919C269.98 57.7293 270.264 58.3507 271.485 58.3507C271.949 58.3507 272.333 58.3117 272.338 58.2638C272.344 58.2158 272.37 58.0469 272.397 57.8871C272.425 57.7279 272.451 57.5194 272.456 57.4242C272.461 57.3283 272.531 56.9898 272.612 56.6708C272.742 56.16 272.794 55.7812 272.832 55.0869C272.837 54.9799 272.878 54.9146 272.921 54.9417C272.965 54.9688 273.003 54.8214 273.007 54.615C273.01 54.4079 273.044 54.1084 273.083 53.9492C273.121 53.79 273.173 53.5551 273.199 53.4279C273.225 53.3001 273.299 52.9456 273.364 52.6391C273.43 52.3326 273.475 52.0463 273.466 52.0018C273.458 51.958 273.478 51.8433 273.512 51.7481C273.634 51.4048 273.848 50.101 273.791 50.0447C273.76 50.0127 273.784 49.8549 273.845 49.6944C273.906 49.5332 273.98 49.1606 274.01 48.8666C274.039 48.572 274.093 48.2008 274.128 48.0417C274.164 47.8825 274.221 47.5955 274.255 47.4044C274.288 47.2132 274.337 46.9526 274.363 46.8254C274.389 46.6975 274.469 46.307 274.541 45.9567C274.881 44.2873 274.203 40.1645 273.588 40.1645C273.525 40.1645 273.505 40.1145 273.543 40.0526C273.581 39.9908 273.506 39.874 273.376 39.7934C273.246 39.7121 273.14 39.5884 273.14 39.5189C273.14 39.4494 272.983 39.2527 272.792 39.0824C272.601 38.9121 272.445 38.8065 272.445 38.8475C272.445 38.8885 272.335 38.7822 272.2 38.6112C272.066 38.4402 271.898 38.32 271.826 38.3436C271.755 38.3673 271.601 38.2978 271.484 38.1886C271.286 38.0045 270.311 37.6382 269.491 37.4394C268.876 37.2907 266.769 37.281 266.767 37.4269C266.766 37.5173 266.737 37.5145 266.676 37.4179C266.606 37.3081 266.518 37.3122 266.28 37.4353C266.112 37.5228 265.947 37.5666 265.913 37.5332C265.88 37.4992 265.759 37.5124 265.645 37.5617C265.53 37.6118 265.345 37.641 265.234 37.6271C265.123 37.6132 265.031 37.6556 265.031 37.7216C265.031 37.7869 264.951 37.8099 264.853 37.7723C264.755 37.7348 264.572 37.7973 264.447 37.9106C264.322 38.0239 264.187 38.0844 264.146 38.0441C264.106 38.0045 263.944 38.0733 263.786 38.1977C263.628 38.3221 263.458 38.3992 263.408 38.3686C263.359 38.3381 263.288 38.3909 263.252 38.4861C263.215 38.5813 263.062 38.6592 262.911 38.6592C262.664 38.6592 261.778 39.245 261.326 39.7072C261.168 39.8685 261.162 39.8685 261.263 39.7072C261.324 39.6085 261.129 39.7809 260.828 40.0902C260.247 40.6879 260.163 40.6337 260.399 39.8163C260.464 39.5939 260.541 39.1095 260.572 38.7405C260.603 38.3714 260.673 37.9801 260.728 37.8717C260.784 37.7633 260.835 37.4763 260.842 37.2344C260.849 36.9925 260.885 36.7458 260.921 36.6874C260.957 36.6284 261.012 36.383 261.043 36.1425C261.074 35.9021 261.126 35.5747 261.159 35.4156C261.191 35.2564 261.249 34.8651 261.286 34.5468C261.323 34.2285 261.394 33.8894 261.444 33.7941C261.493 33.6982 261.567 33.3132 261.606 32.9379C261.646 32.5619 261.706 32.2116 261.739 32.1581C261.844 31.9878 261.89 31.3616 261.797 31.3616C261.748 31.3616 261.659 31.2525 261.599 31.1191C261.499 30.8946 259.826 30.6979 259.635 30.8883ZM150.372 31.5854C150.216 32.1094 150.08 32.9018 150.073 33.3486C150.069 33.5175 150.035 33.6364 149.996 33.612C149.957 33.5877 149.894 33.8407 149.856 34.1736C149.786 34.7901 149.717 35.1661 149.612 35.5115C149.579 35.6178 149.542 35.9139 149.529 36.1683C149.517 36.4233 149.47 36.684 149.426 36.7479C149.353 36.8528 149.254 37.4276 149.117 38.5431C149.045 39.1352 149 39.4042 148.963 39.4695C148.946 39.5015 148.923 39.58 148.913 39.6433C148.773 40.5398 148.708 40.9221 148.66 41.1306C148.61 41.3516 148.531 41.8409 148.462 42.3656C148.449 42.4608 148.41 42.5915 148.375 42.6554C148.34 42.7187 148.298 43.005 148.281 43.2913C148.264 43.5777 148.2 43.9029 148.141 44.0155C148.081 44.1274 148.052 44.2192 148.078 44.2192C148.104 44.2192 148.079 44.4402 148.024 44.7112C147.969 44.9823 147.898 45.4118 147.866 45.6669C147.807 46.1346 147.692 46.7948 147.612 47.1145C147.588 47.2105 147.551 47.4447 147.529 47.6358C147.507 47.8269 147.45 48.114 147.402 48.2731C147.355 48.4323 147.31 48.7791 147.302 49.0439C147.293 49.308 147.247 49.5005 147.2 49.4713C147.152 49.4421 147.113 49.5512 147.113 49.7139C147.113 49.8772 147.104 50.0495 147.092 50.0975C146.964 50.6327 146.492 53.314 146.364 54.2383C146.346 54.3662 146.321 54.4705 146.308 54.4705C146.294 54.4705 146.261 54.6268 146.235 54.818C146.192 55.1217 146.058 55.8688 146.016 56.0342C145.955 56.2719 145.8 57.3012 145.791 57.5173L145.781 57.7849L149.134 57.7752C150.978 57.7696 152.509 57.7432 152.535 57.7168C152.594 57.657 152.862 56.388 152.963 55.6867C153.005 55.3997 153.064 55.0091 153.095 54.818C153.126 54.6268 153.166 54.3398 153.184 54.1806C153.201 54.0215 153.231 53.8519 153.249 53.8039C153.267 53.7567 153.29 53.6782 153.302 53.6302C153.425 53.1242 153.49 52.7795 153.532 52.4181C153.559 52.1811 153.614 51.9337 153.655 51.8677C153.696 51.8016 153.668 51.7481 153.592 51.7481C153.488 51.7481 153.487 51.7099 153.591 51.5841C153.666 51.4945 153.739 51.2366 153.753 51.0114C153.768 50.7869 153.814 50.5687 153.855 50.527C153.897 50.4853 153.904 50.3811 153.871 50.2956C153.839 50.2108 153.867 50.0461 153.934 49.9307C154.024 49.7757 154.057 49.7653 154.06 49.8911C154.067 50.2302 154.443 51.0469 154.559 50.9753C154.631 50.9308 154.642 50.9593 154.588 51.0469C154.496 51.1963 154.947 52.3139 155.162 52.4702C155.227 52.5168 155.239 52.5564 155.189 52.5571C155.138 52.5585 155.163 52.676 155.242 52.8198C155.322 52.963 155.394 53.1062 155.401 53.1381C155.443 53.3098 155.608 53.6976 155.756 53.9749C155.85 54.1487 155.925 54.3176 155.925 54.3502C155.924 54.3829 156.026 54.6491 156.152 54.9417C156.277 55.2343 156.38 55.5366 156.38 55.6123C156.38 55.6888 156.461 55.8667 156.56 56.0085C156.659 56.1496 156.705 56.2656 156.662 56.2656C156.618 56.2656 156.633 56.331 156.694 56.4102C156.755 56.4901 156.919 56.8418 157.057 57.1921L157.31 57.8294H161.301H165.293L165.244 57.5611C165.176 57.1858 164.912 56.6131 164.807 56.6131C164.759 56.6131 164.718 56.5478 164.716 56.4686C164.707 56.1815 163.835 54.5247 163.739 54.6122C163.684 54.6616 163.675 54.64 163.718 54.565C163.797 54.4288 163.479 53.6747 162.924 52.6767C162.765 52.391 162.635 52.0915 162.635 52.0108C162.635 51.9302 162.583 51.8642 162.519 51.8642C162.455 51.8642 162.403 51.7627 162.403 51.639C162.403 51.5153 162.35 51.3819 162.285 51.3416C162.221 51.3012 162.198 51.2199 162.234 51.1609C162.271 51.1018 162.258 51.0531 162.205 51.0531C162.123 51.0531 161.759 50.3387 161.719 50.0982C161.712 50.0509 161.526 49.6791 161.307 49.2725C161.087 48.866 160.938 48.5018 160.976 48.4636C161.015 48.4253 160.961 48.3614 160.856 48.3218C160.752 48.2815 160.697 48.2001 160.734 48.1404C160.771 48.0799 160.717 47.9034 160.615 47.747C160.511 47.5878 160.482 47.4621 160.55 47.4621C160.618 47.4621 160.703 47.3821 160.741 47.2841C160.779 47.1861 161.09 46.8094 161.432 46.4473C161.775 46.0853 162.056 45.7134 162.056 45.6217C162.056 45.5299 162.087 45.4855 162.125 45.5237C162.194 45.5932 163.33 44.2991 163.33 44.1504C163.33 44.1073 163.447 43.9551 163.59 43.8119C164.206 43.1982 164.49 42.809 164.415 42.6784C164.371 42.6019 164.374 42.5741 164.422 42.6165C164.535 42.7187 165.067 42.253 165.067 42.0515C165.067 41.9653 165.247 41.7373 165.467 41.5441C165.687 41.3509 165.901 41.0882 165.941 40.9596C165.982 40.8317 166.042 40.7539 166.075 40.7866C166.146 40.8574 166.689 40.2375 166.689 40.0867C166.689 40.0304 166.793 39.9088 166.921 39.817C167.048 39.7253 167.152 39.596 167.152 39.5293C167.152 39.4633 167.283 39.3111 167.442 39.1915C167.601 39.072 167.731 38.9031 167.731 38.8162C167.731 38.73 167.783 38.6592 167.847 38.6592C167.911 38.6592 167.963 38.5778 167.963 38.4785C167.963 38.3791 168.015 38.3297 168.079 38.3693C168.143 38.409 168.195 38.386 168.195 38.3186C168.195 38.1761 160.682 38.1435 160.492 38.2852C160.25 38.4652 159.805 39.04 159.971 38.9587C160.066 38.9114 160.001 38.9858 159.826 39.1234C159.65 39.261 159.507 39.4487 159.507 39.5411C159.507 39.6335 159.429 39.7385 159.333 39.7753C159.238 39.8122 159.16 39.9178 159.16 40.0102C159.16 40.1027 159.115 40.1506 159.061 40.1173C159.006 40.0839 158.903 40.1847 158.832 40.3424C158.76 40.4995 158.648 40.6281 158.583 40.6281C158.518 40.6281 158.465 40.7059 158.465 40.8018C158.465 40.8971 158.413 40.9756 158.349 40.9756C158.285 40.9756 158.233 41.0479 158.233 41.1361C158.233 41.2244 158.103 41.3822 157.943 41.4864C157.784 41.5907 157.654 41.7318 157.654 41.7992C157.654 41.8673 157.387 42.2183 157.062 42.579C156.736 42.939 156.4 43.3963 156.314 43.5937C156.229 43.7917 156.025 44.0413 155.861 44.149C155.696 44.2567 155.592 44.395 155.63 44.4555C155.667 44.5166 155.642 44.5667 155.572 44.5667C155.502 44.5667 155.338 44.7488 155.206 44.9719C154.904 45.4848 154.797 45.4848 154.807 44.9719C154.812 44.7495 154.842 44.5667 154.874 44.5667C154.906 44.5667 154.936 44.4492 154.942 44.306C154.947 44.1622 154.995 43.9453 155.048 43.8237C155.12 43.6576 155.108 43.6249 154.997 43.6931C154.916 43.7431 154.947 43.6361 155.065 43.4561C155.224 43.2121 155.234 43.1544 155.106 43.2323C154.958 43.3212 154.955 43.3087 155.084 43.1489C155.168 43.0453 155.249 42.7604 155.264 42.515C155.28 42.2697 155.325 42.0167 155.364 41.9528C155.403 41.8888 155.465 41.5865 155.501 41.2814C155.537 40.9763 155.588 40.6913 155.615 40.6482C155.655 40.5822 155.709 40.2333 155.852 39.122C155.864 39.0268 155.91 38.8183 155.953 38.6592C155.997 38.5 156.056 38.1865 156.084 37.9641C156.114 37.7411 156.168 37.4283 156.206 37.2691C156.244 37.11 156.291 36.7896 156.312 36.5582C156.333 36.326 156.379 36.0897 156.414 36.0327C156.449 35.9757 156.508 35.679 156.544 35.3739C156.579 35.0688 156.631 34.7838 156.657 34.7407C156.683 34.6976 156.743 34.3759 156.789 34.0256C156.893 33.2444 156.913 33.129 157.118 32.1143C157.208 31.6681 157.259 31.2643 157.23 31.2164C157.201 31.1691 155.676 31.1295 153.843 31.1295H150.509L150.372 31.5854ZM81.6589 32.5438C81.6256 33.1596 81.5227 33.9081 81.4317 34.1993C81.3719 34.3904 81.2968 34.7553 81.2642 35.0104C81.2315 35.2648 81.1745 35.6039 81.137 35.7631C81.0995 35.9222 81.0536 36.2127 81.0348 36.408C81.0161 36.604 80.9667 36.8716 80.925 37.0023C80.884 37.1336 80.827 37.4575 80.7999 37.7223C80.7721 37.9871 80.7228 38.2463 80.6908 38.2984C80.6331 38.3909 80.5469 38.9559 80.4545 39.8441C80.4295 40.0818 80.3773 40.3285 80.3384 40.3911C80.2995 40.4543 80.2425 40.7018 80.2119 40.9408C80.1814 41.1806 80.1084 41.5601 80.0493 41.7839C79.9909 42.0084 79.9166 42.4789 79.8839 42.8292C79.8213 43.5005 79.7171 44.0948 79.64 44.2192C79.6149 44.2595 79.5621 44.55 79.5218 44.8641C79.4822 45.1783 79.3988 45.6321 79.3369 45.8726C79.2751 46.1124 79.2535 46.3563 79.2897 46.4147C79.3251 46.4724 79.3008 46.553 79.2348 46.5933C79.1687 46.6343 79.1402 46.7087 79.1715 46.7587C79.2028 46.8087 79.1792 47.02 79.1201 47.2271C79.0061 47.6247 78.7608 49.1321 78.7149 49.7208C78.6996 49.9119 78.635 50.199 78.571 50.3581C78.5071 50.5173 78.423 50.9343 78.3841 51.2846C78.3452 51.6348 78.2639 52.0922 78.2027 52.3007C78.1353 52.5307 78.1339 52.653 78.1992 52.6127C78.259 52.5759 78.2507 52.6919 78.1812 52.8706C78.0554 53.193 77.7767 54.6859 77.655 55.6853C77.6203 55.971 77.5501 56.2837 77.5 56.3803C77.4493 56.4762 77.4021 56.6854 77.3958 56.8446C77.3888 57.0044 77.3756 57.2386 77.3666 57.3658C77.3576 57.4937 77.3569 57.6501 77.3652 57.7133C77.3902 57.8954 84.4049 57.8058 84.4229 57.6237C84.4306 57.5458 84.4862 57.247 84.5467 56.9606C84.6829 56.308 84.817 55.4865 84.849 55.1071C84.8622 54.9479 84.9122 54.729 84.9595 54.6206C85.0074 54.5122 85.0158 54.3725 84.9769 54.3099C84.9386 54.2474 84.956 54.166 85.0165 54.1292C85.0769 54.0917 85.1096 53.9186 85.0901 53.7442C85.0707 53.5704 85.0846 53.3765 85.1221 53.314C85.1589 53.2514 85.2007 53.1208 85.2152 53.0242C85.2472 52.8101 85.3702 52.1422 85.4502 51.7481C85.4828 51.589 85.5224 51.3283 85.5384 51.1692L85.5676 50.8794L88.0828 50.8481C89.7015 50.8279 90.5723 50.7758 90.5264 50.7022C90.4875 50.6396 90.5932 50.6507 90.7613 50.7272C90.9559 50.8154 91.0949 50.8252 91.145 50.7529C91.1881 50.691 91.3014 50.6452 91.3973 50.6514C91.4925 50.6577 91.6231 50.6347 91.6871 50.6007C91.7503 50.5666 91.881 50.5221 91.9762 50.5027C92.0721 50.4825 92.2542 50.445 92.3821 50.4186C92.8616 50.3206 92.9756 50.281 93.5399 50.0155C93.8589 49.8654 94.1668 49.7535 94.2245 49.7674C94.2822 49.7806 94.3607 49.7493 94.3983 49.6979C94.5359 49.5116 95.2503 49.0571 95.1614 49.2128C95.1113 49.301 95.1801 49.26 95.315 49.1217C95.4491 48.9834 95.6653 48.8368 95.7952 48.7958C95.9245 48.7548 96.0308 48.672 96.0308 48.613C96.0308 48.5532 96.1031 48.5046 96.1921 48.5046C96.281 48.5046 96.5145 48.3225 96.7098 48.0994C96.9058 47.8763 97.1199 47.6942 97.1852 47.6942C97.2513 47.6942 97.3048 47.64 97.3048 47.5746C97.3048 47.5086 97.4868 47.2876 97.7099 47.0833C97.933 46.8783 98.1158 46.6739 98.1158 46.6294C98.1158 46.5843 98.2361 46.4175 98.3834 46.2583C98.5307 46.0998 98.7524 45.7711 98.8755 45.5286C98.9992 45.286 99.1298 45.0615 99.1667 45.0295C99.2619 44.9461 99.4301 44.5243 99.4078 44.4214C99.3981 44.3742 99.4405 44.3345 99.5017 44.3345C99.5635 44.3345 99.5844 44.2567 99.5475 44.1608C99.5107 44.0656 99.5413 43.987 99.6156 43.987C99.69 43.987 99.7185 43.9349 99.6796 43.8717C99.64 43.8077 99.6629 43.7556 99.7303 43.7556C99.7977 43.7556 99.8533 43.5992 99.8533 43.4081C99.8533 43.217 99.8992 43.0606 99.9555 43.0606C100.012 43.0606 100.085 42.9564 100.118 42.8292C100.151 42.7013 100.124 42.597 100.056 42.597C99.9882 42.597 100.021 42.5004 100.128 42.3823C100.237 42.2613 100.29 42.0841 100.249 41.9771C100.208 41.8715 100.233 41.7867 100.303 41.7867C100.378 41.7867 100.413 41.6324 100.387 41.41C100.363 41.2029 100.395 40.9693 100.458 40.8915C100.525 40.8074 100.545 40.3348 100.505 39.7329C100.468 39.1741 100.434 38.6147 100.429 38.4903C100.425 38.3659 100.381 38.2095 100.331 38.1428C100.282 38.076 100.235 37.8926 100.227 37.7341C100.218 37.5763 100.166 37.3414 100.11 37.2129C99.7157 36.2948 99.298 35.5782 98.9276 35.1855C98.6899 34.9332 98.5231 34.699 98.5565 34.6657C98.5898 34.6323 98.5273 34.6045 98.4175 34.6045C98.3076 34.6045 98.25 34.5524 98.2896 34.4891C98.3285 34.4252 98.3056 34.3731 98.2381 34.3731C98.0408 34.3731 97.9775 34.3328 97.63 33.9853C97.4243 33.7795 97.2304 33.6815 97.1157 33.726C96.983 33.7768 96.951 33.7462 97.0011 33.6155C97.0393 33.5161 97.0226 33.464 96.9642 33.5001C96.9051 33.5363 96.8259 33.5147 96.787 33.4515C96.6758 33.2729 95.6548 32.8531 95.4866 32.9177C95.4032 32.9497 95.3358 32.9309 95.3358 32.8767C95.3358 32.7482 94.5748 32.5834 94.0904 32.6071C93.8833 32.6175 93.7137 32.5807 93.7137 32.5251C93.7137 32.3485 81.6687 32.368 81.6589 32.5438ZM194.952 37.4165C194.952 37.4763 194.822 37.4929 194.662 37.4533C194.503 37.413 194.373 37.4297 194.373 37.4902C194.373 37.5499 194.206 37.5784 194.002 37.5527C193.798 37.527 193.597 37.5597 193.556 37.6264C193.515 37.6924 193.318 37.7515 193.117 37.757C192.916 37.7626 192.751 37.8147 192.751 37.8724C192.751 37.9301 192.696 37.9433 192.628 37.9016C192.561 37.8599 192.404 37.9169 192.281 38.0288C192.158 38.14 192.056 38.1907 192.056 38.1414C192.056 38.092 191.992 38.1038 191.912 38.1678C191.832 38.2324 191.601 38.32 191.399 38.3631C191.196 38.4069 190.968 38.5167 190.892 38.6084C190.816 38.7002 190.663 38.7745 190.554 38.7745C190.443 38.7745 190.202 38.9163 190.017 39.0901C189.833 39.2631 189.619 39.3917 189.542 39.3757C189.465 39.3597 189.316 39.4786 189.21 39.6398C189.105 39.801 188.946 39.9331 188.858 39.9331C188.77 39.9331 188.697 39.9852 188.697 40.0492C188.697 40.1124 188.646 40.1645 188.583 40.1645C188.389 40.1645 188.01 40.5468 188.084 40.6663C188.122 40.7289 188.1 40.7462 188.034 40.7052C187.967 40.6642 187.663 40.9297 187.358 41.2953C187.053 41.6609 186.747 42.0125 186.679 42.0772C186.472 42.2711 185.801 43.2906 185.801 43.4116C185.801 43.4734 185.749 43.5242 185.686 43.5242C185.622 43.5242 185.57 43.6284 185.57 43.7556C185.57 43.8828 185.524 43.987 185.468 43.987C185.379 43.987 185.243 44.313 185.242 44.5271C185.242 44.5667 185.196 44.6306 185.14 44.6695C184.996 44.7675 184.643 45.548 184.643 45.7642C184.643 45.8629 184.588 45.9775 184.52 46.0192C184.451 46.0616 184.421 46.1624 184.452 46.243C184.483 46.3243 184.434 46.5356 184.342 46.7121C184.251 46.8887 184.198 47.0562 184.227 47.0847C184.255 47.1132 184.205 47.3787 184.114 47.6754C183.92 48.3169 183.885 51.3603 184.066 51.9803C184.13 52.2034 184.211 52.537 184.244 52.7232C184.278 52.9088 184.342 53.1173 184.385 53.1861C184.43 53.2556 184.469 53.3376 184.473 53.3696C184.499 53.5913 184.823 54.2967 184.898 54.2967C184.949 54.2967 184.991 54.3523 184.991 54.4204C184.991 54.4885 185.069 54.6234 185.165 54.7193C185.262 54.8159 185.311 54.9424 185.274 55.0007C185.238 55.0591 185.264 55.1071 185.331 55.1071C185.399 55.1071 185.454 55.1807 185.454 55.2711C185.454 55.3608 185.607 55.5637 185.795 55.7215C185.983 55.8792 186.11 56.0342 186.078 56.0655C186.047 56.0975 186.167 56.233 186.345 56.3671C186.524 56.5013 186.722 56.6528 186.786 56.7049C186.85 56.7563 187.071 56.8981 187.278 57.0204C187.485 57.1427 187.655 57.2776 187.655 57.3207C187.655 57.3644 187.915 57.5361 188.234 57.7022C188.553 57.869 188.813 57.9747 188.813 57.9371C188.813 57.8989 188.997 57.9823 189.221 58.1206C189.446 58.2596 189.702 58.3458 189.789 58.3117C189.877 58.2784 189.982 58.2832 190.021 58.3235C190.092 58.3937 190.174 58.4167 190.782 58.5369C191.285 58.6356 193.923 58.6975 193.869 58.6092C193.84 58.5626 194.075 58.5223 194.391 58.5195C194.765 58.5168 195.004 58.4556 195.073 58.3458C195.148 58.2276 195.181 58.2214 195.182 58.3235C195.184 58.4375 195.271 58.4334 195.58 58.3041C195.797 58.213 196.006 58.1693 196.043 58.2061C196.08 58.2429 196.111 58.2103 196.111 58.1331C196.111 58.056 196.175 58.0059 196.255 58.0212C196.418 58.0539 197.296 57.7773 197.385 57.6654C197.456 57.5764 197.998 57.3346 198.085 57.3526C198.119 57.3603 198.367 57.1921 198.634 56.9801C198.903 56.7674 199.123 56.6375 199.124 56.6903C199.125 56.7431 199.164 56.732 199.211 56.6653C199.258 56.5979 199.504 56.3894 199.757 56.2017C200.298 55.8021 201.785 54.346 201.788 54.2133C201.791 54.1181 202.205 53.5815 202.742 52.9804C203.077 52.6051 203.138 52.3889 202.945 52.2694C202.881 52.2298 202.829 52.1019 202.829 51.9851C202.829 51.8684 202.747 51.7412 202.646 51.7023C202.348 51.5883 200.976 51.6223 200.976 51.744C200.976 51.8051 200.866 51.9573 200.732 52.0824C200.598 52.2075 200.525 52.3695 200.569 52.4417C200.619 52.521 200.553 52.6002 200.408 52.6384C200.275 52.6732 200.165 52.7434 200.165 52.7948C200.165 52.8462 199.87 53.1659 199.51 53.5051C199.149 53.845 198.709 54.262 198.531 54.4315C198.353 54.6018 198.113 54.761 197.998 54.786C197.884 54.811 197.802 54.8916 197.818 54.9653C197.833 55.0404 197.77 55.0702 197.673 55.0327C197.578 54.9966 197.501 55.0271 197.501 55.1015C197.501 55.1759 197.449 55.2044 197.385 55.1655C197.321 55.1258 197.269 55.1488 197.269 55.2162C197.269 55.2836 197.214 55.3392 197.146 55.3392C197.078 55.3392 196.74 55.4678 196.395 55.6255C195.749 55.9216 195.631 55.9543 194.402 56.1802C194.004 56.2531 193.678 56.3414 193.678 56.3761C193.678 56.4568 192.207 56.4255 191.825 56.3358C190.82 56.1009 190.556 56.0731 190.506 56.1948C190.477 56.2656 190.449 56.2295 190.444 56.1141C190.439 55.9988 190.384 55.9355 190.322 55.9737C190.26 56.012 190.087 55.9633 189.936 55.8646C189.786 55.7659 189.629 55.7208 189.585 55.7632C189.543 55.8062 189.508 55.7771 189.508 55.6992C189.508 55.6207 189.456 55.5894 189.392 55.6283C189.328 55.6679 189.276 55.6415 189.276 55.5706C189.276 55.4998 189.224 55.4733 189.159 55.513C189.095 55.5526 189.012 55.5039 188.974 55.4052C188.936 55.3058 188.863 55.2502 188.813 55.2808C188.763 55.3121 188.692 55.26 188.655 55.1648C188.619 55.0695 188.509 54.9917 188.412 54.9917C188.314 54.9917 188.234 54.9354 188.234 54.8673C188.234 54.704 187.938 54.4121 187.772 54.4121C187.7 54.4121 187.672 54.362 187.71 54.3002C187.749 54.2383 187.673 54.1216 187.544 54.0409C187.414 53.9596 187.307 53.8331 187.307 53.7595C187.307 53.6865 187.229 53.5961 187.133 53.5593C187.038 53.5232 186.96 53.3869 186.96 53.2577C186.96 53.1284 186.905 53.0221 186.837 53.0221C186.769 53.0221 186.741 52.9797 186.773 52.9275C186.805 52.8747 186.735 52.6739 186.618 52.48C186.343 52.0275 186.253 51.4868 186.227 50.1267L186.207 49.0258L195.277 48.9966C201.25 48.9772 204.323 48.9271 204.276 48.8514C204.237 48.7881 204.249 48.7367 204.303 48.7367C204.394 48.7367 204.466 48.3586 204.496 47.7227C204.503 47.5795 204.54 47.4621 204.577 47.4621C204.616 47.4621 204.647 46.7587 204.649 45.8983C204.65 45.0386 204.611 44.3345 204.563 44.3345C204.515 44.3345 204.471 44.2178 204.465 44.0739C204.454 43.7716 204.373 43.1183 204.347 43.1183C204.337 43.1183 204.208 42.7798 204.061 42.3656C203.913 41.9514 203.738 41.624 203.67 41.6379C203.602 41.6518 203.574 41.5615 203.607 41.435C203.64 41.3092 203.609 41.207 203.538 41.207C203.466 41.207 203.408 41.1334 203.408 41.043C203.408 40.9527 203.202 40.6635 202.95 40.4015C202.697 40.1388 202.476 39.8872 202.457 39.8414C202.439 39.7962 202.385 39.7725 202.337 39.7885C202.289 39.8045 202.25 39.742 202.25 39.6502C202.25 39.5585 202.189 39.4459 202.116 39.4007C202.027 39.3458 202.013 39.3722 202.073 39.4806C202.123 39.5703 202.004 39.4744 201.808 39.2673C201.612 39.0602 201.403 38.8906 201.342 38.8906C201.282 38.8906 201.201 38.8093 201.163 38.7092C201.125 38.6098 201.04 38.5612 200.976 38.6008C200.913 38.6404 200.86 38.6258 200.86 38.5688C200.86 38.4312 200.291 38.1754 200.163 38.2547C200.108 38.2887 200.009 38.2241 199.944 38.1115C199.878 37.9982 199.822 37.9579 199.819 38.0218C199.816 38.0858 199.773 38.0726 199.722 37.9933C199.672 37.9141 199.477 37.8397 199.29 37.8279C199.102 37.8161 198.87 37.7411 198.773 37.6604C198.677 37.5805 198.443 37.5152 198.252 37.5159C198.062 37.5159 197.776 37.4797 197.616 37.4353C197.164 37.3081 194.952 37.2921 194.952 37.4165ZM217.481 37.4519C217.292 37.5291 216.993 37.5743 216.817 37.552C216.641 37.5298 216.497 37.5645 216.497 37.6285C216.497 37.6931 216.443 37.7126 216.376 37.6709C216.31 37.6299 216.182 37.6577 216.092 37.732C216.002 37.8071 215.88 37.8384 215.821 37.8015C215.762 37.7654 215.567 37.8509 215.387 37.9926C215.207 38.1337 215.107 38.172 215.164 38.0774C215.25 37.9357 215.237 37.9308 215.09 38.0496C214.992 38.1289 214.879 38.1608 214.839 38.1198C214.798 38.0795 214.733 38.1316 214.692 38.2366C214.653 38.3408 214.576 38.3992 214.524 38.3666C214.401 38.2908 213.601 38.6689 213.601 38.803C213.601 38.8586 213.557 38.8767 213.503 38.8433C213.408 38.7843 212.464 39.4063 212.308 39.6315C212.265 39.6926 212.137 39.7566 212.023 39.7732C211.793 39.8073 211.053 40.5419 211.053 40.7365C211.053 40.8039 210.998 40.8595 210.93 40.8595C210.863 40.8595 210.842 40.7949 210.883 40.715C210.925 40.635 210.772 40.7789 210.544 41.0333C210.315 41.2883 210.05 41.5796 209.954 41.6803C209.858 41.7811 209.779 41.9055 209.779 41.9569C209.779 42.0077 209.649 42.1703 209.49 42.3176C209.33 42.4657 209.2 42.6144 209.2 42.6492C209.2 42.6839 209.024 42.9605 208.81 43.2628C208.595 43.5659 208.443 43.8786 208.472 43.9585C208.501 44.0378 208.441 44.1344 208.341 44.1733C208.241 44.2115 208.187 44.2901 208.223 44.3471C208.258 44.404 208.232 44.4506 208.164 44.4506C208.097 44.4506 208.041 44.5298 208.041 44.6257C208.041 44.7224 207.993 44.8919 207.934 45.0024C207.833 45.1922 207.67 45.5974 207.644 45.7245C207.638 45.7565 207.591 45.8476 207.541 45.9275C207.49 46.0074 207.477 46.072 207.512 46.072C207.546 46.072 207.472 46.3334 207.345 46.6531C207.22 46.9728 207.136 47.3508 207.159 47.4933C207.182 47.6351 207.158 47.8068 207.105 47.8742C206.881 48.1571 206.779 49.9509 206.931 50.9371C206.965 51.1602 207.02 51.5514 207.052 51.8058C207.139 52.4939 207.425 53.4502 207.63 53.7428C207.728 53.8846 207.81 54.0875 207.81 54.1938C207.81 54.3002 207.888 54.4176 207.983 54.4545C208.079 54.4906 208.157 54.6178 208.157 54.7366C208.157 54.8555 208.348 55.1439 208.582 55.3774C208.815 55.611 208.975 55.8021 208.937 55.8021C208.898 55.8021 209.007 55.948 209.178 56.1266C209.349 56.3046 209.528 56.4318 209.576 56.4095C209.624 56.3866 209.663 56.4519 209.663 56.5555C209.663 56.6583 209.712 56.7125 209.772 56.6757C209.831 56.6382 209.923 56.6792 209.975 56.766C210.119 57.01 210.654 57.3193 210.762 57.222C210.815 57.174 210.823 57.1976 210.778 57.2741C210.729 57.3603 210.833 57.484 211.049 57.5959C211.242 57.696 211.401 57.746 211.401 57.7085C211.401 57.6702 211.486 57.7251 211.591 57.8294C211.745 57.9837 211.8 57.9906 211.879 57.8669C211.954 57.7488 211.976 57.7578 211.978 57.9072C211.98 58.0629 212.547 58.3201 212.702 58.2353C212.719 58.2262 212.88 58.2749 213.06 58.343C213.919 58.6697 217.109 58.7405 218.246 58.4584C218.59 58.3736 218.911 58.3138 218.959 58.327C219.006 58.3402 219.046 58.2985 219.046 58.2346C219.046 58.1713 219.163 58.1171 219.306 58.115C219.45 58.113 219.663 58.0386 219.781 57.9496C219.899 57.8607 220.06 57.812 220.138 57.8426C220.218 57.8732 220.35 57.8176 220.431 57.7189C220.513 57.6202 220.703 57.5396 220.855 57.5396C221.006 57.5396 221.131 57.4875 221.131 57.4242C221.131 57.3603 221.236 57.3081 221.366 57.3081C221.495 57.3081 221.631 57.2303 221.667 57.1351C221.704 57.0399 221.781 56.9905 221.838 57.026C221.895 57.0614 221.941 57.0406 221.941 56.9801C221.941 56.9196 222.074 56.8369 222.236 56.7959C222.398 56.7556 222.499 56.6715 222.46 56.6097C222.422 56.5478 222.494 56.4971 222.621 56.4971C222.747 56.4971 222.959 56.3602 223.091 56.192C223.223 56.0245 223.331 55.9327 223.332 55.9897C223.332 56.046 223.455 55.9487 223.606 55.7736C223.756 55.5984 223.916 55.4546 223.962 55.4546C224.09 55.4546 224.374 55.137 224.374 54.9931C224.374 54.9208 224.422 54.8916 224.48 54.9278C224.538 54.9632 224.608 54.9278 224.635 54.8471C224.662 54.7672 224.679 54.8972 224.674 55.1363C224.668 55.3753 224.629 55.5706 224.587 55.5706C224.545 55.5706 224.524 55.6617 224.54 55.7736C224.556 55.8848 224.528 56.1322 224.476 56.3233C224.082 57.7717 224.356 58.3507 225.434 58.3507C226.244 58.3507 226.384 58.1776 226.507 57.0183C226.527 56.8272 226.606 56.4443 226.682 56.167C226.759 55.8897 226.799 55.6408 226.772 55.6137C226.745 55.5866 226.783 55.2919 226.858 54.959C226.933 54.6268 226.991 54.2244 226.987 54.0646C226.983 53.9054 227.017 53.747 227.063 53.7129C227.108 53.6788 227.174 53.3668 227.209 53.0193C227.243 52.6718 227.303 52.2895 227.341 52.1686C227.38 52.0484 227.431 51.787 227.456 51.5883C227.481 51.3895 227.528 51.0705 227.56 50.8794C227.593 50.6883 227.626 50.4533 227.634 50.3581C227.642 50.2622 227.692 50.1302 227.744 50.0634C227.796 49.9967 227.822 49.7959 227.803 49.6166C227.784 49.4379 227.833 49.1043 227.912 48.8757C227.99 48.647 228.045 48.3148 228.032 48.1369C228.02 47.9597 228.045 47.7998 228.088 47.7831C228.132 47.7658 228.202 47.4252 228.243 47.0256C228.285 46.626 228.367 46.1832 228.425 46.0408C228.529 45.7871 228.781 44.4534 228.838 43.8578C228.853 43.6917 228.897 43.4046 228.935 43.2211C228.972 43.037 229.032 42.7041 229.067 42.4817C229.102 42.2586 229.157 41.991 229.189 41.8874C229.22 41.7832 229.268 41.4704 229.295 41.1924C229.322 40.9137 229.373 40.5558 229.407 40.3967C229.442 40.2375 229.499 39.9241 229.534 39.7017C229.569 39.4786 229.655 39.0741 229.724 38.8023C229.842 38.3374 229.831 38.2915 229.533 38.0156C229.109 37.6229 227.799 37.6278 227.778 38.0218C227.772 38.149 227.738 38.3318 227.704 38.427C227.589 38.7488 227.331 39.9901 227.359 40.0811C227.375 40.1312 227.302 40.4335 227.197 40.7539L227.007 41.3356L226.68 40.9527C226.5 40.7421 226.35 40.5016 226.347 40.4182C226.345 40.3355 226.291 40.2994 226.227 40.3383C226.163 40.3779 226.111 40.3362 226.111 40.2465C226.111 40.0825 225.454 39.4695 225.279 39.4695C225.227 39.4695 225.198 39.4306 225.214 39.3826C225.23 39.3354 225.202 39.284 225.153 39.2701C225.103 39.2555 224.934 39.1046 224.776 38.9344C224.619 38.7641 224.489 38.6717 224.488 38.7287C224.487 38.7856 224.448 38.7724 224.401 38.6995C224.354 38.6265 224.212 38.548 224.085 38.5257C223.957 38.5035 223.784 38.393 223.7 38.2804C223.616 38.1678 223.502 38.1038 223.447 38.1379C223.392 38.1713 223.314 38.1455 223.273 38.0795C223.232 38.0142 223.151 37.9899 223.091 38.0267C223.032 38.0635 222.984 38.0399 222.984 37.9746C222.984 37.9092 222.897 37.8884 222.791 37.9294C222.662 37.9787 222.626 37.9586 222.682 37.8675C222.754 37.7508 222.479 37.691 222.099 37.7424C222.059 37.7473 221.993 37.6994 221.953 37.6347C221.783 37.3609 218.076 37.2094 217.481 37.4519ZM242.669 37.4763C242.259 37.5673 241.845 37.6695 241.749 37.7042C241.653 37.7397 241.446 37.789 241.288 37.8154C241.129 37.8418 240.966 37.9183 240.924 37.9864C240.883 38.0538 240.79 38.074 240.719 38.0302C240.648 37.9864 240.591 38.0052 240.591 38.0726C240.591 38.1407 240.508 38.1956 240.407 38.1956C240.193 38.1956 238.698 38.9066 238.641 39.0351C238.62 39.0831 238.541 39.122 238.467 39.1227C238.336 39.1227 237.912 39.4369 237.381 39.9282C237.239 40.0582 237.079 40.1645 237.023 40.1645C236.968 40.1645 236.854 40.2924 236.771 40.4481C236.688 40.6038 236.546 40.7601 236.456 40.7942C236.352 40.8345 236.32 40.8046 236.367 40.7136C236.408 40.635 236.253 40.7789 236.022 41.0333C235.79 41.2883 235.507 41.6011 235.391 41.7283C235.275 41.8562 235.093 42.1293 234.987 42.3364C234.88 42.5435 234.753 42.7131 234.705 42.7131C234.594 42.7131 234.157 43.4345 234.194 43.5561C234.209 43.6055 234.143 43.6764 234.047 43.7132C233.951 43.75 233.872 43.8793 233.872 43.9996C233.872 44.1205 233.817 44.2192 233.749 44.2192C233.682 44.2192 233.659 44.2713 233.698 44.3345C233.738 44.3985 233.715 44.4506 233.648 44.4506C233.58 44.4506 233.525 44.5257 233.525 44.6167C233.525 44.7085 233.464 44.9295 233.39 45.1088C233.316 45.2888 233.248 45.4611 233.24 45.4931C233.233 45.5251 233.163 45.6662 233.085 45.8073C233.006 45.9483 232.925 46.2097 232.904 46.389C232.883 46.5676 232.803 46.8331 232.725 46.9776C232.648 47.1229 232.565 47.5128 232.541 47.8443C232.517 48.1758 232.49 48.4469 232.481 48.4469C232.23 48.4469 232.351 51.8628 232.62 52.3667C232.682 52.4834 232.757 52.7135 232.787 52.8782C232.873 53.3508 233.53 54.6359 233.885 55.0244C234.063 55.219 234.193 55.4087 234.175 55.4455C234.12 55.5547 234.541 55.9063 234.625 55.8215C234.667 55.7791 234.692 55.7965 234.679 55.8605C234.629 56.1058 234.688 56.2761 234.799 56.208C234.863 56.1683 234.915 56.2302 234.917 56.3456C234.918 56.5235 234.936 56.5291 235.031 56.3817C235.129 56.2288 235.143 56.2295 235.145 56.3887C235.146 56.5638 235.861 57.181 235.936 57.0725C235.957 57.0427 236.025 57.1108 236.089 57.2241C236.151 57.3366 236.252 57.3985 236.312 57.3617C236.371 57.3248 236.421 57.3526 236.421 57.4242C236.421 57.4951 236.473 57.5215 236.536 57.4819C236.6 57.4423 236.652 57.4604 236.652 57.5215C236.652 57.6313 237.322 57.9364 237.492 57.9038C237.54 57.8947 237.579 57.9392 237.579 58.0032C237.579 58.0671 237.68 58.1192 237.804 58.1192C237.928 58.1192 238.057 58.1644 238.091 58.2193C238.151 58.3159 238.616 58.4195 239.606 58.5571C240.947 58.7433 243.703 58.6036 244.028 58.3333C244.116 58.261 244.22 58.2346 244.26 58.2749C244.301 58.3159 244.408 58.2867 244.499 58.2117C244.59 58.1359 244.751 58.0622 244.857 58.0469C245.383 57.9719 245.963 57.7717 246.05 57.6348C246.104 57.5507 246.148 57.5271 246.149 57.5827C246.15 57.6383 246.229 57.6188 246.325 57.5396C246.42 57.4604 246.498 57.4381 246.498 57.4895C246.498 57.541 246.605 57.468 246.737 57.3276C246.868 57.1865 247.024 57.1017 247.084 57.1386C247.144 57.1754 247.193 57.1511 247.193 57.0837C247.193 57.0156 247.271 56.9606 247.367 56.9606C247.462 56.9606 247.541 56.9057 247.541 56.8376C247.541 56.7702 247.593 56.7473 247.656 56.7869C247.72 56.8265 247.772 56.8001 247.772 56.7292C247.772 56.6576 247.824 56.6319 247.888 56.6708C247.952 56.7104 248.004 56.6875 248.004 56.6201C248.004 56.5527 248.065 56.4971 248.139 56.4971C248.274 56.4971 248.43 56.372 249.045 55.7736C249.224 55.5984 249.416 55.4546 249.471 55.4546C249.526 55.4546 249.659 55.3378 249.768 55.194C249.877 55.0508 250.229 54.647 250.551 54.2967C250.873 53.9457 251.2 53.5162 251.278 53.3411C251.356 53.1659 251.459 53.0221 251.507 53.0221C251.555 53.0221 251.595 52.9505 251.595 52.8629C251.595 52.7746 251.668 52.6426 251.757 52.5682C251.944 52.4139 251.926 52.0671 251.707 51.6036C251.488 51.1372 250.11 51.1164 249.81 51.5744C249.706 51.7335 249.647 51.8642 249.681 51.8642C249.714 51.8642 249.65 51.9615 249.539 52.081C249.427 52.2006 249.221 52.448 249.081 52.6315C248.941 52.8143 248.642 53.1729 248.417 53.4279C248.192 53.6823 248.007 53.9304 248.006 53.9777C248.005 54.0257 247.926 54.0646 247.83 54.0646C247.735 54.0646 247.656 54.1167 247.656 54.1806C247.656 54.2446 247.587 54.2967 247.503 54.2967C247.418 54.2967 247.228 54.4253 247.081 54.5824C246.933 54.7401 246.772 54.8437 246.723 54.8131C246.673 54.7832 246.616 54.7978 246.595 54.8458C246.412 55.2544 243.469 56.2677 241.981 56.4345C241.822 56.4519 241.639 56.4818 241.575 56.5006C241.512 56.5186 241.367 56.4936 241.255 56.445C241.143 56.3956 240.949 56.3817 240.826 56.4144C240.703 56.4463 240.586 56.4283 240.567 56.3748C240.548 56.3205 240.298 56.2538 240.011 56.2267C239.725 56.1989 239.36 56.1253 239.201 56.062C238.999 55.9821 238.885 55.9863 238.826 56.0773C238.765 56.1704 238.74 56.1676 238.739 56.0662C238.738 55.989 238.454 55.7868 238.108 55.6172C237.761 55.4476 237.254 55.1119 236.98 54.8708C236.706 54.6296 236.442 54.4573 236.393 54.4871C236.344 54.517 236.305 54.4607 236.305 54.3613C236.305 54.262 236.253 54.1806 236.189 54.1806C236.125 54.1806 236.073 54.1084 236.073 54.0194C236.073 53.9304 235.995 53.8276 235.9 53.7914C235.804 53.7546 235.726 53.6448 235.726 53.5475C235.726 53.4495 235.634 53.2771 235.523 53.1645C235.412 53.052 235.22 52.6482 235.097 52.2666C234.974 51.8857 234.845 51.5223 234.81 51.4583C234.776 51.3951 234.764 51.2192 234.783 51.0691C234.803 50.9183 234.774 50.8231 234.718 50.8578C234.505 50.9892 234.692 47.8797 234.922 47.4488C234.988 47.3258 235.01 47.175 234.971 47.1125C234.933 47.0499 234.956 46.9992 235.024 46.9992C235.091 46.9992 235.146 46.8789 235.146 46.7323C235.146 46.5857 235.209 46.4036 235.285 46.3271C235.362 46.2507 235.389 46.1881 235.346 46.1881C235.304 46.1881 235.398 45.9456 235.555 45.6495C235.713 45.3534 235.841 45.0407 235.841 44.9545C235.841 44.8683 235.893 44.7981 235.955 44.7981C236.018 44.7981 236.1 44.6716 236.139 44.5166C236.178 44.3623 236.283 44.2074 236.373 44.1733C236.463 44.1386 236.536 44.0016 236.536 43.8682C236.536 43.7348 236.588 43.6583 236.652 43.6979C236.716 43.7368 236.768 43.7209 236.768 43.6625C236.768 43.6034 237.041 43.2774 237.376 42.9376C237.711 42.5977 237.971 42.3037 237.955 42.285C237.939 42.2655 237.956 42.253 237.993 42.2579C238.029 42.262 238.196 42.1189 238.363 41.9389C238.529 41.7596 238.709 41.6254 238.759 41.6414C238.811 41.6574 238.853 41.6185 238.853 41.5545C238.853 41.4913 238.935 41.4392 239.034 41.4392C239.133 41.4392 239.182 41.387 239.142 41.3231C239.078 41.2188 239.23 41.157 239.461 41.1938C239.509 41.2008 239.548 41.166 239.548 41.1153C239.548 41.018 241.168 40.1624 241.425 40.1228C241.507 40.1103 241.653 40.0512 241.749 39.9922C241.845 39.9324 242.066 39.899 242.241 39.9171C242.417 39.9352 242.56 39.9032 242.56 39.8455C242.56 39.7065 242.574 39.7051 244.587 39.6669C245.786 39.644 246.414 39.6773 246.614 39.7753C246.963 39.947 248.05 40.3313 248.093 40.2987C248.11 40.2862 248.237 40.3814 248.375 40.5099C248.514 40.6385 248.683 40.7442 248.753 40.7442C248.822 40.7442 248.954 40.8484 249.046 40.9756C249.138 41.1028 249.251 41.207 249.298 41.207C249.431 41.207 249.973 41.7422 249.973 41.8742C249.973 41.9396 250.052 42.0237 250.148 42.0605C250.244 42.0973 250.309 42.1939 250.293 42.2752C250.276 42.3566 250.332 42.4094 250.416 42.392C250.5 42.3739 250.538 42.4115 250.499 42.474C250.46 42.5373 250.553 42.8382 250.706 43.1433C250.859 43.4484 251.047 43.8932 251.125 44.1323L251.265 44.5667H252.045C252.919 44.5667 253.332 44.3255 253.332 43.8154C253.332 43.413 252.662 41.6185 252.397 41.3141C252.274 41.1723 252.174 40.986 252.174 40.8998C252.174 40.8144 252.122 40.7442 252.058 40.7442C251.994 40.7442 251.942 40.6774 251.942 40.5961C251.942 40.5148 251.851 40.3626 251.739 40.259C251.628 40.1555 251.44 39.9317 251.323 39.7621C251.205 39.5925 251.083 39.4799 251.051 39.5119C251.019 39.5439 250.85 39.4237 250.675 39.245C250.283 38.8447 249.755 38.4903 249.673 38.573C249.639 38.607 249.474 38.5076 249.307 38.3534C249.14 38.1984 248.936 38.0969 248.854 38.1289C248.772 38.1601 248.662 38.1087 248.609 38.0142C248.556 37.9197 248.351 37.8307 248.154 37.8161C247.956 37.8022 247.819 37.7508 247.848 37.7035C247.878 37.6556 247.86 37.6132 247.808 37.609C247.254 37.5666 246.639 37.479 246.498 37.4227C246.217 37.3108 245.681 37.3011 245.616 37.4068C245.582 37.4603 245.494 37.4658 245.418 37.4186C245.181 37.2685 243.445 37.3053 242.669 37.4763ZM111.089 37.5777C111.089 37.6361 110.92 37.6771 110.713 37.6688C110.506 37.6611 110.282 37.6952 110.216 37.7445C110.15 37.7946 109.995 37.8203 109.87 37.8015C109.747 37.7834 109.385 37.8606 109.066 37.9725C108.748 38.0844 108.447 38.1518 108.398 38.1212C108.349 38.0906 108.309 38.1129 108.309 38.1692C108.309 38.2262 108.231 38.2818 108.135 38.2922C108.04 38.3026 107.885 38.32 107.793 38.3304C107.7 38.3415 107.598 38.4187 107.565 38.5028C107.532 38.5897 107.425 38.6237 107.317 38.582C107.213 38.5424 107.088 38.5723 107.04 38.6494C106.965 38.7717 106.755 38.8503 106.42 38.8816C106.368 38.8864 106.355 38.9372 106.39 38.9941C106.425 39.0511 106.324 39.1304 106.165 39.17C106.006 39.2096 105.876 39.2937 105.876 39.3562C105.876 39.4188 105.78 39.4695 105.663 39.4695C105.545 39.4695 105.356 39.5717 105.244 39.6968C105.13 39.8219 105.004 39.9129 104.962 39.8997C104.874 39.8712 104.602 40.0853 104.112 40.5704C103.919 40.7615 103.802 40.8442 103.852 40.7553C103.913 40.6462 103.899 40.6198 103.809 40.6747C103.736 40.7205 103.676 40.8359 103.676 40.9311C103.676 41.027 103.623 41.0729 103.558 41.0326C103.494 40.993 103.351 41.1202 103.24 41.3148C103.13 41.51 102.973 41.6692 102.894 41.6699C102.814 41.6706 102.749 41.7227 102.749 41.7867C102.749 41.8499 102.644 42.0063 102.517 42.1342C102.39 42.2613 102.286 42.4379 102.286 42.5261C102.286 42.6137 102.194 42.7103 102.082 42.7395C101.97 42.7687 101.774 42.996 101.648 43.2455C101.521 43.4943 101.365 43.7361 101.301 43.7827C101.224 43.8397 101.224 43.8689 101.301 43.8717C101.377 43.8738 101.377 43.9043 101.3 43.9599C101.147 44.0711 100.548 45.2777 100.548 45.4743C100.548 45.557 100.47 45.7037 100.375 45.7989C100.224 45.949 100.14 46.3355 100.229 46.4599C100.245 46.4821 100.195 46.5759 100.118 46.6691C100.041 46.7622 99.9631 47.0569 99.9444 47.3237C99.9263 47.5906 99.8783 47.8096 99.8387 47.8096C99.74 47.8096 99.7157 48.1953 99.7053 49.9529C99.6983 51.2012 99.7581 52.0379 99.8554 52.0379C99.8658 52.0379 99.8992 52.22 99.9291 52.4431C99.9847 52.8574 100.756 54.5545 100.921 54.6247C100.971 54.6456 101.011 54.7422 101.011 54.8395C101.011 55.0862 102.836 56.8446 103.091 56.8446C103.158 56.8446 103.212 56.9057 103.212 56.9801C103.212 57.0545 103.246 57.0816 103.286 57.0413C103.327 57.0003 103.508 57.092 103.69 57.2442C104.022 57.5236 105.147 58.0018 105.598 58.0546C105.732 58.0706 105.901 58.1206 105.974 58.1658C106.049 58.2123 106.109 58.1818 106.11 58.097C106.111 57.9865 106.135 57.9823 106.197 58.0803C106.4 58.3986 110.973 58.5411 110.973 58.229C110.973 58.1943 111.09 58.1567 111.234 58.1463C111.567 58.1227 112.074 58.04 112.074 58.0094C112.074 57.9962 112.193 57.9635 112.339 57.9364C112.484 57.9093 112.81 57.7821 113.062 57.6536C113.315 57.5243 113.521 57.4569 113.521 57.5027C113.521 57.5486 113.584 57.5236 113.66 57.4471C113.737 57.3707 113.883 57.3081 113.985 57.3081C114.087 57.3081 114.235 57.2428 114.315 57.1636C114.395 57.0837 114.496 57.0169 114.541 57.0142C114.678 57.0072 115.194 56.6993 115.317 56.552C115.38 56.4748 115.615 56.3143 115.837 56.1941C116.059 56.0745 116.41 55.7937 116.616 55.5706C116.822 55.3475 116.992 55.2044 116.993 55.2523C116.998 55.3941 117.46 54.8875 117.46 54.7408C117.46 54.6664 117.49 54.6352 117.526 54.672C117.611 54.7561 118.386 54.0111 118.386 53.847C118.386 53.7803 118.495 53.667 118.628 53.5961C118.761 53.5252 118.846 53.4432 118.817 53.4141C118.788 53.3856 118.914 53.2014 119.096 53.0061C119.279 52.8101 119.429 52.5877 119.429 52.5112C119.429 52.4348 119.557 52.1978 119.714 51.9851C119.872 51.7718 119.973 51.5535 119.94 51.4993C119.906 51.4451 119.937 51.4006 120.008 51.4006C120.079 51.4006 120.106 51.3485 120.066 51.2846C120.021 51.2116 118.757 51.1692 116.658 51.1692H113.322L112.905 51.5452C112.189 52.1915 112.132 52.2284 111.532 52.4397C111.21 52.5529 110.901 52.7177 110.846 52.8052C110.763 52.9366 110.745 52.9338 110.741 52.7906C110.739 52.6801 110.707 52.6621 110.653 52.7413C110.536 52.9123 108.666 52.8782 108.346 52.6996C108.207 52.6224 108.008 52.5592 107.906 52.5592C107.716 52.5592 107.509 52.4209 107.18 52.0727C107.077 51.9643 106.942 51.9073 106.88 51.9455C106.818 51.9844 106.8 51.9629 106.839 51.8989C106.879 51.835 106.837 51.6835 106.745 51.5626C106.654 51.4416 106.577 51.2512 106.575 51.14C106.573 51.0288 106.523 50.9371 106.463 50.9371C106.404 50.9371 106.358 50.7939 106.361 50.6188C106.364 50.4436 106.354 50.2483 106.34 50.1844C106.244 49.7757 106.183 49.7792 113.528 49.7792C118.291 49.7792 120.693 49.7396 120.645 49.6631C120.606 49.5992 120.627 49.5471 120.693 49.5471C120.758 49.5471 120.782 49.4692 120.745 49.3733C120.708 49.2781 120.728 49.1996 120.788 49.1996C120.925 49.1996 121.209 47.9722 121.11 47.8116C121.07 47.747 121.099 47.6942 121.175 47.6942C121.273 47.6942 121.293 47.5392 121.243 47.1729C121.196 46.8359 121.215 46.6517 121.294 46.6517C121.45 46.6517 121.281 44.1865 121.095 43.7639C121.052 43.6639 120.997 43.4776 120.975 43.3504C120.953 43.2225 120.886 43.014 120.826 42.8869C120.767 42.7597 120.626 42.4469 120.513 42.1918C120.4 41.9368 120.227 41.6595 120.129 41.5754C119.979 41.4468 119.978 41.4357 120.124 41.508C120.272 41.5816 120.041 41.2314 119.773 40.9756C119.741 40.9436 119.621 40.7733 119.509 40.5968C119.397 40.4203 119.095 40.1242 118.839 39.9393C118.584 39.7538 118.381 39.5661 118.39 39.5217C118.411 39.4146 117.441 38.7759 117.257 38.7752C117.178 38.7752 117.112 38.7141 117.112 38.6397C117.112 38.5653 117.082 38.5347 117.044 38.5723C116.948 38.6689 116.301 38.4263 116.301 38.2936C116.301 38.2317 116.249 38.2144 116.186 38.2533C116.122 38.2929 116.004 38.2839 115.925 38.2331C115.845 38.1824 115.754 38.1344 115.722 38.1268C115.69 38.1184 115.495 38.0726 115.288 38.0232C115.081 37.9746 114.911 37.9009 114.911 37.8585C114.911 37.8168 114.768 37.7904 114.593 37.8001C114.418 37.8092 114.222 37.7779 114.159 37.7292C114.095 37.6813 113.912 37.6507 113.753 37.6618C113.594 37.6722 113.425 37.6278 113.379 37.5617C113.327 37.4895 113.292 37.511 113.29 37.6166C113.287 37.7452 113.263 37.7529 113.195 37.6465C113.13 37.5437 113.001 37.5332 112.734 37.6097C112.53 37.6681 112.363 37.6743 112.363 37.6229C112.363 37.5722 112.155 37.536 111.9 37.5423C111.645 37.5492 111.436 37.6007 111.436 37.6577C111.436 37.7139 111.358 37.6959 111.262 37.6166C111.167 37.5374 111.089 37.52 111.089 37.5777ZM132.703 37.7014C132.668 37.7362 132.37 37.78 132.04 37.7994C131.71 37.8189 131.408 37.8766 131.371 37.928C131.333 37.9794 131.198 38.0302 131.07 38.0399C130.707 38.0677 130.356 38.1664 130.064 38.3228C129.917 38.402 129.783 38.4576 129.767 38.4465C129.654 38.37 129.508 38.4513 129.572 38.5556C129.624 38.6404 129.574 38.6592 129.425 38.6119C129.278 38.5653 129.126 38.6195 128.994 38.7655C128.881 38.8892 128.723 38.965 128.642 38.9344C128.56 38.9031 128.419 38.9517 128.329 39.0421C128.238 39.1331 128.049 39.2436 127.908 39.2888C127.768 39.3333 127.653 39.4181 127.653 39.4779C127.653 39.5369 127.573 39.5856 127.475 39.5856C127.378 39.5856 127.268 39.6634 127.231 39.7593C127.195 39.8546 127.098 39.9331 127.016 39.9331C126.934 39.9331 126.837 40.0116 126.8 40.1082C126.763 40.2041 126.691 40.2695 126.641 40.2528C126.5 40.2069 125.912 40.7018 126.001 40.7907C126.044 40.8338 125.964 40.8991 125.823 40.936C125.683 40.9728 125.568 41.0778 125.568 41.1695C125.568 41.2612 125.52 41.3071 125.461 41.271C125.402 41.2341 125.24 41.3655 125.099 41.5622C124.959 41.7596 124.734 42.0403 124.598 42.187C124.278 42.5324 123.936 43.0342 123.953 43.1322C123.96 43.1739 123.923 43.2406 123.87 43.2795C123.68 43.4178 122.733 45.1456 122.847 45.1456C122.881 45.1456 122.825 45.2735 122.723 45.4299C122.62 45.5862 122.57 45.769 122.611 45.8357C122.652 45.9018 122.635 45.9567 122.572 45.9567C122.468 45.9567 122.407 46.1402 122.27 46.8637C122.241 47.0117 122.182 47.2466 122.136 47.3849C122.091 47.5232 122.047 47.7678 122.038 47.9291C122.029 48.0903 121.981 48.2884 121.931 48.3697C121.824 48.5428 121.739 50.9468 121.834 51.1025C121.87 51.1609 121.915 51.3436 121.933 51.5077C122.025 52.3187 122.082 52.6134 122.19 52.8365C122.254 52.9706 122.398 53.3411 122.51 53.6594C122.622 53.9777 122.808 54.3766 122.925 54.5462C123.041 54.7151 123.136 54.9104 123.136 54.9806C123.136 55.0501 123.188 55.1071 123.251 55.1071C123.315 55.1071 123.367 55.1536 123.367 55.2099C123.367 55.3489 124.579 56.6131 124.712 56.6131C124.77 56.6131 124.882 56.7174 124.962 56.8446C125.042 56.9725 125.185 57.0767 125.279 57.0767C125.374 57.0767 125.452 57.1288 125.452 57.1921C125.452 57.256 125.556 57.3081 125.684 57.3081C125.812 57.3081 125.916 57.3471 125.917 57.395C125.918 57.5111 126.489 57.7717 126.743 57.7717C126.853 57.7717 126.977 57.8245 127.017 57.8892C127.057 57.9538 127.138 57.9767 127.198 57.9406C127.257 57.9038 127.306 57.9204 127.306 57.9767C127.306 58.0337 127.37 58.0831 127.45 58.0859C127.53 58.0893 127.751 58.1282 127.942 58.172C128.72 58.3506 129.159 58.3917 130.375 58.3979C131.522 58.4042 132.489 58.3194 132.893 58.1769C132.974 58.1491 133.17 58.1032 133.329 58.0747C133.489 58.0469 133.775 57.9635 133.966 57.8899C134.157 57.8155 134.334 57.7634 134.359 57.7731C134.383 57.7828 134.441 57.7314 134.486 57.6577C134.556 57.5438 134.752 57.4708 135.087 57.4326C135.13 57.4277 135.257 57.3325 135.369 57.2213C135.48 57.1101 135.601 57.0156 135.637 57.0114C135.892 56.9843 136.574 56.5972 136.584 56.4741C136.596 56.3282 136.707 56.6792 136.895 57.4527L136.987 57.8294L139.516 57.8607C142.101 57.8926 142.34 57.8579 142.355 57.4451C142.369 57.0892 142.448 56.4394 142.479 56.4394C142.518 56.4394 142.592 55.9425 142.608 55.5706C142.615 55.4115 142.66 55.2287 142.708 55.1655C142.756 55.1015 142.799 54.9709 142.803 54.8756C142.809 54.7061 142.894 54.1848 143.009 53.6017C143.04 53.4425 143.084 53.1555 143.107 52.9644C143.131 52.7733 143.182 52.5383 143.221 52.4431C143.26 52.3472 143.312 52.0345 143.337 51.7481C143.362 51.4611 143.393 51.2269 143.404 51.2269C143.416 51.2269 143.439 51.0969 143.456 50.9371C143.473 50.7779 143.53 50.5479 143.582 50.4262C143.657 50.2518 143.642 50.2254 143.513 50.3032C143.38 50.3838 143.375 50.3699 143.487 50.2309C143.626 50.06 143.763 49.52 143.811 48.9681C143.824 48.809 143.868 48.6005 143.908 48.5046C143.948 48.4093 144.002 48.1487 144.03 47.9256C144.057 47.7025 144.135 47.2473 144.203 46.913C144.271 46.5794 144.294 46.2222 144.255 46.1193C144.216 46.0164 144.256 45.8865 144.345 45.8288C144.481 45.7412 144.482 45.7086 144.349 45.6231C144.228 45.5445 144.224 45.5098 144.335 45.473C144.415 45.4465 144.487 45.2707 144.495 45.0824C144.504 44.894 144.543 44.6883 144.583 44.6244C144.672 44.4791 144.856 43.2941 144.825 43.0606C144.812 42.9647 144.848 42.7826 144.905 42.6554C145.069 42.2885 145.131 41.902 145.026 41.902C144.973 41.902 145 41.7589 145.085 41.5837C145.171 41.4086 145.266 40.9944 145.297 40.6635C145.329 40.3327 145.388 40.0068 145.43 39.9387C145.472 39.8712 145.509 39.5946 145.511 39.3243C145.515 39.0539 145.549 38.7808 145.588 38.7168C145.902 38.2018 145.872 38.1956 143.116 38.1956C140.877 38.1956 140.511 38.2199 140.511 38.3693C140.511 38.4646 140.459 38.5431 140.395 38.5431C140.331 38.5431 140.279 38.6188 140.279 38.7106C140.279 38.803 140.149 39.0192 139.99 39.1908C139.83 39.3632 139.698 39.5613 139.696 39.6315C139.694 39.7017 139.639 39.6683 139.575 39.5564C139.51 39.4452 139.386 39.3542 139.301 39.3542C139.215 39.3542 139.114 39.2721 139.076 39.1728C139.037 39.0734 138.963 39.0185 138.911 39.0511C138.858 39.0831 138.689 38.9928 138.534 38.8496C138.23 38.5688 137.852 38.3756 137.684 38.4152C137.625 38.4284 137.546 38.3881 137.507 38.3249C137.468 38.2616 137.307 38.1852 137.149 38.1553C136.991 38.1254 136.724 38.0476 136.555 37.9822C136.387 37.9162 136.217 37.894 136.179 37.9329C136.141 37.9711 136.109 37.9502 136.109 37.887C136.109 37.7459 136.171 37.7529 134.293 37.6903C133.452 37.6618 132.737 37.6674 132.703 37.7014ZM174.596 37.9301C174.535 38.108 174.498 38.345 174.514 38.4562C174.531 38.5674 174.494 38.6592 174.432 38.6592C174.37 38.6592 174.333 38.7502 174.35 38.8614C174.367 38.9733 174.347 39.195 174.306 39.3542C174.264 39.5133 174.198 39.9039 174.159 40.2229C174.12 40.5412 174.04 40.9582 173.983 41.1493C173.866 41.5385 173.619 42.9327 173.574 43.4658C173.557 43.6569 173.509 43.9697 173.466 44.1608C173.424 44.3519 173.371 44.639 173.35 44.7981C173.328 44.9573 173.275 45.27 173.233 45.4931C173.19 45.7162 173.111 46.1853 173.058 46.5356C173.003 46.8859 172.908 47.355 172.844 47.5781C172.732 47.975 172.616 48.6658 172.543 49.3872C172.522 49.5853 172.465 49.9244 172.414 50.1399C172.304 50.6097 172.303 50.6188 172.131 51.6696C172.057 52.1269 171.939 52.7879 171.87 53.1381C171.801 53.4884 171.739 53.8276 171.732 53.8908C171.725 53.9548 171.673 54.2932 171.616 54.6442C171.558 54.9945 171.52 55.3184 171.531 55.3642C171.542 55.4094 171.495 55.5922 171.427 55.7694C171.358 55.9466 171.276 56.3261 171.242 56.6131C171.064 58.1484 171.219 58.3757 172.408 58.3263C173.313 58.2888 173.355 58.2394 173.453 57.1177C173.476 56.8529 173.521 56.5923 173.553 56.5381C173.612 56.4394 173.691 55.9772 173.817 54.9917C173.853 54.7047 173.929 54.2967 173.985 54.0854C174.042 53.8734 174.058 53.6205 174.02 53.5232C173.983 53.4259 174.01 53.3112 174.079 53.2681C174.149 53.225 174.217 52.9567 174.231 52.6718C174.244 52.3868 174.301 52.063 174.356 51.9518C174.412 51.8413 174.479 51.5021 174.505 51.1991C174.532 50.8961 174.564 50.6479 174.575 50.6479C174.598 50.6479 174.671 50.2407 174.743 49.7208C174.798 49.3233 174.853 49.0307 175.027 48.2154C175.094 47.8964 175.17 47.4537 175.193 47.2306C175.218 47.0075 175.267 46.7469 175.303 46.6517C175.397 46.4063 175.517 45.8281 175.535 45.5334C175.543 45.3958 175.59 45.3075 175.637 45.3374C175.713 45.384 175.737 45.3089 175.719 45.0851C175.717 45.0511 175.791 44.8822 175.884 44.7085C175.978 44.5347 176.123 44.2233 176.207 44.0162C176.291 43.8091 176.394 43.6395 176.436 43.6395C176.478 43.6395 176.655 43.3921 176.828 43.0898C177.002 42.7868 177.329 42.3698 177.555 42.1627C177.782 41.9555 177.918 41.7846 177.859 41.7818C177.8 41.7797 177.907 41.7081 178.098 41.6233C178.29 41.5385 178.586 41.3377 178.757 41.1765C178.928 41.0159 179.098 40.913 179.134 40.9492C179.169 40.9846 179.199 40.9534 179.199 40.879C179.199 40.8046 179.296 40.7442 179.415 40.7442C179.534 40.7442 179.755 40.6476 179.908 40.5294C180.059 40.4119 180.261 40.3112 180.357 40.3063C180.452 40.3014 180.869 40.2097 181.284 40.1034C182.196 39.8685 182.296 39.858 183.843 39.8351L185.069 39.817L185.085 39.441C185.094 39.2339 185.149 38.9003 185.208 38.6995C185.292 38.4117 185.268 38.2581 185.093 37.969L184.871 37.6034L183.396 37.6521C181.981 37.6994 181.319 37.7591 180.716 37.8946C180.241 38.0017 178.803 38.5778 178.611 38.7384C178.51 38.8218 178.363 38.8906 178.285 38.8906C178.207 38.8906 178.171 38.9372 178.207 38.9941C178.242 39.0511 178.136 39.1311 177.972 39.1728C177.807 39.2138 177.552 39.3681 177.405 39.5154C177.258 39.6627 177.046 39.8184 176.935 39.8608C176.824 39.9039 176.765 39.9706 176.804 40.0088C176.87 40.0749 176.399 40.512 176.262 40.512C176.228 40.512 176.222 40.4029 176.248 40.2688C176.437 39.2805 176.527 38.2741 176.431 38.1956C176.393 38.1636 176.303 38.0336 176.233 37.9058C176.003 37.4895 174.742 37.5075 174.596 37.9301ZM91.5043 38.8127C91.6593 38.8531 91.8393 38.9385 91.9039 39.0039C91.9693 39.0692 92.1194 39.122 92.2382 39.122C92.3564 39.122 92.4224 39.1728 92.3842 39.2346C92.3459 39.2958 92.421 39.4125 92.551 39.4938C92.6809 39.5752 92.7873 39.7072 92.7873 39.7871C92.7873 39.8678 92.8359 39.9331 92.8957 39.9331C93.2772 39.9331 93.1132 41.7276 92.6448 42.6846C92.3689 43.2476 91.5759 44.1031 91.3306 44.1031C91.2395 44.1031 91.1658 44.158 91.1658 44.2261C91.1658 44.2935 91.1137 44.3165 91.0498 44.2769C90.9858 44.2372 90.9337 44.2692 90.9337 44.3471C90.9337 44.4256 90.899 44.4541 90.8566 44.4117C90.8135 44.3686 90.6703 44.402 90.5376 44.4847C90.4055 44.5674 90.2186 44.6271 90.1233 44.6181C90.0274 44.6091 89.2379 44.5938 88.3692 44.584C86.8304 44.5667 86.2835 44.4082 86.7449 44.1121C86.8026 44.0753 86.8339 43.9016 86.8151 43.7264C86.7957 43.5513 86.829 43.4081 86.8902 43.4081C86.9507 43.4081 86.9673 43.2781 86.927 43.1183C86.8798 42.9279 86.9034 42.8292 86.9965 42.8292C87.0876 42.8292 87.1195 42.7055 87.0869 42.4817C87.0584 42.2905 87.0737 42.1342 87.1202 42.1342C87.1661 42.1342 87.1932 41.9778 87.18 41.7867C87.1668 41.5955 87.2036 41.4392 87.262 41.4392C87.3204 41.4392 87.3357 41.3085 87.2954 41.1493C87.2558 40.9902 87.2711 40.8595 87.3308 40.8595C87.3899 40.8595 87.424 40.7282 87.4066 40.5676C87.3885 40.4064 87.4163 40.2493 87.467 40.2173C87.5185 40.1861 87.565 40.07 87.5706 39.9595C87.6443 38.5778 87.5636 38.63 89.5312 38.6897C90.4618 38.7175 91.35 38.7731 91.5043 38.8127ZM197.846 39.8135C197.891 39.8858 197.975 39.9303 198.032 39.9129C198.09 39.8949 198.346 39.9644 198.601 40.0679C198.856 40.1708 199.098 40.2479 199.139 40.2389C199.18 40.2299 199.324 40.3223 199.458 40.4432C199.591 40.5648 199.703 40.617 199.705 40.5593C199.707 40.5016 199.762 40.5454 199.826 40.6573C199.892 40.7685 199.994 40.8595 200.055 40.8595C200.302 40.8595 201.671 42.538 201.671 42.8417C201.671 42.9056 201.731 42.9209 201.804 42.8757C201.889 42.8236 201.906 42.8445 201.852 42.932C201.805 43.0085 201.852 43.201 201.956 43.3608C202.061 43.52 202.166 43.8029 202.189 43.9891C202.213 44.1754 202.26 44.4207 202.294 44.534C202.328 44.6473 202.381 45.1831 202.412 45.7245L202.468 46.7094L194.685 46.6802C186.152 46.6482 186.52 46.6684 186.795 46.2479C186.901 46.088 186.953 45.9567 186.912 45.9567C186.813 45.9567 187.776 44.1712 187.902 44.1226C187.957 44.101 188.002 44.0336 188.002 43.9724C188.002 43.8466 188.163 43.6402 188.58 43.2288C188.739 43.0724 188.832 42.9445 188.787 42.9445C188.742 42.9445 188.858 42.7882 189.045 42.597C189.232 42.4059 189.438 42.2495 189.504 42.2495C189.57 42.2495 189.624 42.1939 189.624 42.1258C189.624 41.9708 189.916 41.6706 190.067 41.6706C190.128 41.6706 190.301 41.5413 190.451 41.3829C190.602 41.2251 190.809 41.0944 190.912 41.0937C191.014 41.0924 191.223 40.9999 191.375 40.8887C191.707 40.6448 192.793 40.1166 193.215 39.9943C193.247 39.9852 193.507 39.9352 193.794 39.8844C194.081 39.833 194.377 39.7579 194.452 39.7176C194.697 39.5842 197.758 39.6711 197.846 39.8135ZM221.159 39.7357C221.334 39.7489 221.478 39.7983 221.478 39.8462C221.478 39.8942 221.583 39.9331 221.71 39.9331C221.837 39.9331 221.941 39.9943 221.941 40.0679C221.941 40.1423 221.975 40.1701 222.016 40.1291C222.093 40.0526 222.658 40.3285 223.014 40.6163C223.125 40.7073 223.246 40.7518 223.283 40.7157C223.369 40.6288 224.734 42.0654 224.941 42.4615C225.03 42.6318 225.16 42.809 225.231 42.8563C225.304 42.9056 225.31 42.9425 225.242 42.9445C225.179 42.9466 225.195 42.9918 225.279 43.0453C225.363 43.0981 225.45 43.2406 225.473 43.3615C225.496 43.4832 225.522 43.5819 225.532 43.5819C225.542 43.5819 225.568 43.6771 225.59 43.7938C225.612 43.9099 225.668 44.0927 225.714 44.199C225.919 44.6758 225.998 46.9193 225.841 47.8096C225.75 48.3218 225.671 48.6783 225.648 48.6783C225.637 48.6783 225.604 48.8347 225.574 49.0258C225.543 49.2169 225.443 49.5248 225.352 49.7097C225.26 49.8946 225.185 50.1163 225.185 50.2024C225.185 50.2879 225.135 50.3581 225.076 50.3581C225.015 50.3581 224.986 50.461 225.01 50.5875C225.035 50.7167 224.997 50.805 224.922 50.7904C224.796 50.7647 224.768 50.83 224.736 51.2338C224.728 51.3332 224.669 51.3819 224.606 51.3429C224.542 51.3033 224.49 51.3527 224.49 51.4514C224.49 51.5507 224.45 51.6321 224.402 51.6321C224.354 51.6321 224.244 51.7912 224.158 51.9858C224.015 52.3097 222.045 54.4121 221.885 54.4121C221.847 54.4121 221.704 54.5163 221.567 54.6442C221.43 54.7714 221.25 54.8756 221.167 54.8756C221.083 54.8756 221.015 54.9278 221.015 54.9917C221.015 55.055 220.944 55.1071 220.856 55.1071C220.769 55.1071 220.562 55.2148 220.394 55.3462C220.227 55.4782 220.041 55.5554 219.981 55.5185C219.921 55.481 219.839 55.5039 219.8 55.5686C219.76 55.6332 219.63 55.6867 219.51 55.6867C219.391 55.6867 219.213 55.768 219.113 55.8674C219.013 55.9675 218.887 56.0217 218.834 55.9883C218.748 55.9355 218.165 56.0592 217.656 56.2385C217.56 56.2726 217.365 56.2886 217.221 56.2747C217.078 56.2608 216.961 56.2941 216.961 56.3497C216.961 56.4818 215.455 56.4234 214.66 56.2615C214.319 56.192 213.971 56.1614 213.887 56.1934C213.803 56.2253 213.67 56.1746 213.591 56.0801C213.513 55.9849 213.379 55.9341 213.293 55.9675C213.208 56.0002 213.138 55.973 213.138 55.9077C213.138 55.8424 213.09 55.8188 213.031 55.8556C212.971 55.8917 212.889 55.8681 212.848 55.8021C212.807 55.7367 212.726 55.7124 212.666 55.7493C212.607 55.7861 212.559 55.7639 212.559 55.6999C212.559 55.636 212.298 55.4379 211.98 55.2586C211.661 55.08 211.401 54.8916 211.401 54.8395C211.401 54.7881 211.335 54.7839 211.256 54.8298C211.176 54.8749 211.15 54.8701 211.197 54.818C211.317 54.6845 211.055 54.3989 210.895 54.4899C210.823 54.5316 210.799 54.5254 210.843 54.4774C210.886 54.4288 210.767 54.2383 210.578 54.0535C210.389 53.8686 210.27 53.7171 210.314 53.7171C210.358 53.7171 210.319 53.626 210.226 53.5148C209.973 53.2076 209.497 52.1325 209.292 51.4006C209.148 50.8863 209.096 49.0376 209.211 48.5046C209.259 48.2815 209.328 47.8978 209.366 47.6518C209.403 47.4051 209.471 47.1444 209.517 47.0722C209.61 46.9234 209.642 46.8087 209.689 46.4779C209.706 46.35 209.75 46.2201 209.786 46.1881C209.821 46.1561 209.97 45.8698 210.118 45.5515C210.265 45.2339 210.536 44.755 210.72 44.4881C210.903 44.222 211.053 43.9537 211.053 43.8932C211.053 43.684 213.103 41.7053 213.591 41.4447C213.728 41.3717 213.81 41.2626 213.772 41.2029C213.735 41.1431 213.775 41.1208 213.86 41.1535C213.945 41.1862 214.131 41.1042 214.275 40.9714C214.417 40.838 214.631 40.7108 214.749 40.6879C215.013 40.6371 215.482 40.38 215.598 40.2229C215.644 40.159 215.683 40.152 215.685 40.2076C215.685 40.2632 215.765 40.2438 215.86 40.1645C215.956 40.0853 216.034 40.0505 216.034 40.0867C216.034 40.1228 216.209 40.0797 216.424 39.9894C216.64 39.8997 216.847 39.858 216.885 39.8963C216.923 39.9345 217.021 39.9164 217.103 39.8553C217.184 39.7941 217.458 39.7301 217.713 39.7121C217.969 39.6947 218.191 39.6662 218.208 39.6495C218.238 39.621 220.496 39.6864 221.159 39.7357ZM112.363 43.1551C112.515 43.1718 112.922 43.3254 113.284 43.5026C113.503 43.6097 113.737 43.6805 113.805 43.659C113.872 43.6381 113.893 43.6541 113.852 43.6951C113.811 43.7361 113.901 43.9036 114.053 44.067C114.204 44.2303 114.302 44.4054 114.271 44.4562C114.24 44.5062 114.291 44.6251 114.386 44.7196C114.48 44.8141 114.591 45.1046 114.633 45.3659L114.71 45.8406H110.949C106.859 45.8406 106.911 45.8476 107.327 45.352C107.485 45.1651 107.614 44.96 107.614 44.8975C107.614 44.7112 108.426 44.0002 109.018 43.6673C109.32 43.4978 109.543 43.3212 109.515 43.2747C109.486 43.2288 109.59 43.2142 109.747 43.2427C109.904 43.2712 110.059 43.2496 110.092 43.1954C110.126 43.1419 110.506 43.0863 110.937 43.0717C111.368 43.0578 111.74 43.0272 111.764 43.0029C111.788 42.9793 111.92 43.0022 112.056 43.0543C112.193 43.1065 112.331 43.1516 112.363 43.1551ZM134.826 43.8154C134.956 43.7904 135.093 43.8195 135.13 43.8807C135.168 43.9412 135.247 43.9613 135.306 43.9245C135.366 43.8877 135.414 43.9127 135.414 43.9801C135.414 44.0482 135.479 44.1045 135.559 44.1059C135.638 44.1073 135.831 44.206 135.986 44.3255C136.141 44.445 136.34 44.5152 136.427 44.4812C136.523 44.445 136.612 44.5187 136.651 44.6674C136.686 44.803 136.77 44.9142 136.837 44.9142C136.904 44.9142 136.925 44.9468 136.885 44.9872C136.845 45.0275 136.915 45.1922 137.041 45.352C137.167 45.5126 137.303 45.8455 137.342 46.0922C137.381 46.3389 137.451 46.5641 137.499 46.5933C137.545 46.6218 137.566 46.8164 137.545 47.0249C137.523 47.2334 137.484 47.6386 137.458 47.9256C137.432 48.212 137.346 48.6032 137.267 48.7944C136.904 49.6687 136.835 49.7917 136.477 50.1885C136.393 50.2817 136.353 50.3581 136.39 50.3581C136.459 50.3581 135.282 51.5466 135.182 51.5765C135.032 51.6223 134.628 51.7857 134.313 51.9267C134.122 52.0129 133.81 52.1213 133.618 52.1672C133.209 52.2652 133.117 52.2902 133.04 52.3222C132.728 52.4522 131.34 52.2631 130.882 52.0289C130.715 51.9434 130.546 51.9059 130.506 51.9455C130.466 51.9858 130.433 51.9545 130.433 51.8767C130.433 51.7982 130.392 51.7599 130.342 51.7905C130.292 51.8211 130.13 51.6946 129.982 51.5084C129.834 51.3228 129.671 51.1963 129.619 51.2283C129.568 51.2602 129.437 51.051 129.327 50.764C129.217 50.477 129.086 50.2421 129.034 50.2421C128.984 50.2421 128.939 50.151 128.936 50.0398C128.922 49.5575 128.89 49.3664 128.802 49.2538C128.751 49.1877 128.758 48.9146 128.818 48.647C128.879 48.3788 128.92 48.1195 128.909 48.0716C128.899 48.0229 128.921 47.9055 128.958 47.8096C129.127 47.3759 129.32 46.701 129.298 46.6225C129.285 46.5745 129.34 46.5349 129.419 46.5335C129.516 46.5328 129.506 46.4946 129.391 46.4195C129.242 46.3236 129.246 46.307 129.419 46.3056C129.531 46.3049 129.623 46.2388 129.624 46.1589C129.628 45.8809 130.947 44.5966 131.389 44.4409C131.627 44.3568 131.823 44.2463 131.823 44.1955C131.823 44.1448 131.93 44.1031 132.06 44.1031C132.191 44.1031 132.453 44.0225 132.643 43.9245C132.833 43.8265 133.026 43.7688 133.072 43.7966C133.117 43.8237 133.363 43.8091 133.618 43.7639C133.874 43.7188 134.196 43.7215 134.336 43.7709C134.475 43.8202 134.696 43.8404 134.826 43.8154Z" fill="white"/>
<path fill-rule="evenodd" clip-rule="evenodd" d="M259.989 30.8566C260.522 30.9435 261.411 30.9546 261.361 30.874C261.332 30.8267 260.959 30.7947 260.532 30.8031C260.106 30.8121 259.862 30.8357 259.989 30.8566ZM81.4583 33.6832C81.4583 33.9063 81.4827 33.9973 81.5119 33.8861C81.5404 33.7742 81.5404 33.5921 81.5119 33.4802C81.4827 33.369 81.4583 33.4601 81.4583 33.6832ZM96.8491 33.5428C96.92 33.6561 97.0729 33.7492 97.189 33.7492C97.3051 33.7492 97.3746 33.7082 97.3433 33.6582C97.3127 33.6081 97.2119 33.5671 97.1202 33.5671C97.0285 33.5671 96.9534 33.515 96.9534 33.4517C96.9534 33.3878 96.9006 33.3357 96.8366 33.3357C96.763 33.3357 96.7671 33.4114 96.8491 33.5428ZM156.826 33.6582C156.787 33.8882 156.804 33.9959 156.869 33.932C156.927 33.8736 156.956 33.7026 156.932 33.5518C156.895 33.3197 156.879 33.3364 156.826 33.6582ZM97.713 34.0522C97.8319 34.2107 97.9966 34.3393 98.0786 34.3393C98.2767 34.3393 98.2809 34.3455 97.8618 34.0355L97.4962 33.7652L97.713 34.0522ZM98.759 35.0155C98.9189 35.1746 99.0815 35.3046 99.1218 35.3046C99.1621 35.3046 99.0724 35.1746 98.9223 35.0155C98.7729 34.8563 98.6096 34.7257 98.5602 34.7257C98.5102 34.7257 98.5999 34.8563 98.759 35.0155ZM112.359 37.6058C112.359 37.6607 112.489 37.6801 112.649 37.6495C112.808 37.6197 112.938 37.5745 112.938 37.5502C112.938 37.5258 112.808 37.5057 112.649 37.5057C112.489 37.5057 112.359 37.5509 112.359 37.6058ZM183.455 37.5905C183.728 37.6148 184.145 37.6148 184.382 37.5898C184.619 37.5648 184.396 37.5453 183.886 37.5453C183.377 37.546 183.183 37.5661 183.455 37.5905ZM227.805 37.7086C227.775 37.7559 228.089 37.7774 228.502 37.7559C229.124 37.7232 229.28 37.7531 229.414 37.9296C229.503 38.0471 229.577 38.0881 229.579 38.0214C229.589 37.6822 227.996 37.4014 227.805 37.7086ZM116.297 38.3633C116.297 38.389 116.467 38.4662 116.674 38.535C117.019 38.6504 117.031 38.6462 116.826 38.4884C116.618 38.33 116.297 38.2535 116.297 38.3633ZM167.96 38.4738C167.96 38.5676 167.894 38.6677 167.814 38.6962C167.735 38.7247 167.7 38.7817 167.738 38.8227C167.775 38.8637 167.896 38.7977 168.006 38.6761C168.137 38.5315 168.163 38.4293 168.083 38.3793C168.015 38.3369 167.96 38.38 167.96 38.4738ZM263.175 38.4134C263.175 38.4877 263.057 38.5544 262.914 38.5614C262.699 38.5725 262.691 38.585 262.868 38.6302C263.099 38.69 263.385 38.4877 263.254 38.3571C263.21 38.3133 263.175 38.339 263.175 38.4134ZM100.392 38.519C100.364 38.567 100.383 38.7101 100.435 38.838C100.516 39.0402 100.529 39.0291 100.536 38.7511C100.544 38.4363 100.49 38.3494 100.392 38.519ZM185.134 39.0111C185.071 39.3335 185.057 39.6199 185.103 39.6491C185.185 39.6991 185.367 38.5426 185.289 38.4648C185.268 38.4432 185.198 38.6893 185.134 39.0111ZM145.574 38.731C145.527 38.7789 145.487 38.9242 145.487 39.0541C145.487 39.2244 145.523 39.2543 145.615 39.1626C145.684 39.0931 145.723 38.9478 145.701 38.8394C145.679 38.7317 145.622 38.6823 145.574 38.731ZM229.657 38.92C229.618 39.066 229.591 39.3155 229.597 39.4746C229.603 39.6456 229.649 39.5532 229.709 39.2508C229.815 38.708 229.778 38.469 229.657 38.92ZM105.815 39.2432C105.567 39.4079 105.525 39.4732 105.67 39.4739C105.781 39.4746 105.872 39.4274 105.872 39.369C105.872 39.3106 106.016 39.2098 106.191 39.1459C106.366 39.0819 106.431 39.0263 106.336 39.0215C106.24 39.0166 106.006 39.1167 105.815 39.2432ZM201.667 39.1542C201.762 39.2411 201.916 39.3877 202.007 39.4802C202.138 39.6115 202.136 39.5865 201.997 39.3655C201.9 39.2098 201.747 39.0632 201.657 39.0396C201.525 39.0048 201.526 39.027 201.667 39.1542ZM167.282 39.3134C167.196 39.4107 167.148 39.5128 167.176 39.5413C167.204 39.5691 167.322 39.4878 167.438 39.3599C167.553 39.2321 167.6 39.1292 167.543 39.132C167.486 39.1341 167.367 39.2161 167.282 39.3134ZM155.783 39.5657C155.745 39.7957 155.762 39.9034 155.826 39.8395C155.885 39.7811 155.913 39.6102 155.889 39.4593C155.853 39.2272 155.837 39.2439 155.783 39.5657ZM225.384 39.5003C225.527 39.5698 225.645 39.6644 225.645 39.7116C225.645 39.7589 225.734 39.8319 225.844 39.8743C225.99 39.9299 225.969 39.8701 225.766 39.6553C225.613 39.492 225.406 39.3627 225.305 39.3669C225.182 39.3725 225.207 39.4149 225.384 39.5003ZM118.617 39.7825C118.775 39.8875 119.06 40.1085 119.251 40.2739C119.472 40.4643 119.433 40.3948 119.141 40.0821C118.889 39.8117 118.604 39.5907 118.507 39.5907C118.394 39.5907 118.434 39.6595 118.617 39.7825ZM176.286 39.909C176.248 40.139 176.272 40.2864 176.348 40.2878C176.417 40.2885 176.395 40.3399 176.3 40.4018C176.204 40.4636 176.17 40.5143 176.223 40.5157C176.277 40.5164 176.453 40.4129 176.615 40.2857C176.777 40.1585 176.853 40.0543 176.785 40.0543C176.717 40.0543 176.619 40.1189 176.568 40.1988C176.507 40.2926 176.452 40.2002 176.411 39.9382L176.348 39.533L176.286 39.909ZM183.163 39.9076C183.529 39.9312 184.128 39.9312 184.494 39.9076C184.861 39.8847 184.561 39.8659 183.829 39.8659C183.096 39.8659 182.796 39.8847 183.163 39.9076ZM92.9189 40.1119C92.9168 40.2391 92.9606 40.4476 93.0148 40.5755C93.142 40.8702 93.142 40.5658 93.0148 40.1696C92.9405 39.9368 92.9217 39.9257 92.9189 40.1119ZM145.385 40.0153C145.378 40.0897 145.338 40.2461 145.297 40.3628C145.239 40.5276 145.254 40.5456 145.366 40.4428C145.445 40.3698 145.485 40.2134 145.454 40.0953C145.423 39.9771 145.393 39.941 145.385 40.0153ZM87.459 40.1696C87.3742 40.3823 87.3937 40.7409 87.4847 40.6499C87.5445 40.5901 87.5674 40.4455 87.5375 40.3267C87.5069 40.2085 87.4715 40.1384 87.459 40.1696ZM236.676 40.3628C236.596 40.3955 236.478 40.5199 236.413 40.6408C236.324 40.8069 236.332 40.8459 236.446 40.8021C236.565 40.7562 236.962 40.2614 236.852 40.2947C236.836 40.2996 236.756 40.3302 236.676 40.3628ZM210.934 40.6332C210.849 40.7903 210.848 40.8646 210.929 40.8646C210.995 40.8646 211.05 40.791 211.05 40.7006C211.05 40.6103 211.114 40.5102 211.194 40.4782C211.303 40.4344 211.304 40.4177 211.198 40.4108C211.121 40.4059 211.002 40.506 210.934 40.6332ZM226.34 40.4998C226.34 40.5533 226.452 40.6964 226.589 40.8181L226.839 41.0384L226.634 40.7201C226.422 40.3913 226.34 40.3295 226.34 40.4998ZM263.29 40.7548L263.001 40.9869L263.319 40.8493C263.494 40.7736 263.638 40.6679 263.638 40.6144C263.638 40.4824 263.622 40.4886 263.29 40.7548ZM119.613 40.7437C119.66 40.8368 119.781 41.0078 119.881 41.1246C119.981 41.2406 120.062 41.3949 120.062 41.4672C120.062 41.5395 120.129 41.6118 120.21 41.6284C120.291 41.6451 120.304 41.6319 120.238 41.5992C120.173 41.5666 120.143 41.5006 120.173 41.4533C120.202 41.4053 120.068 41.1878 119.876 40.9703C119.683 40.7534 119.565 40.6513 119.613 40.7437ZM165.934 40.9737C165.892 41.1079 165.802 41.1809 165.732 41.1385C165.661 41.0947 165.64 41.1141 165.683 41.1836C165.725 41.2517 165.603 41.4387 165.411 41.5999C165.22 41.7605 165.065 41.9606 165.066 42.0447C165.068 42.1281 165.227 42.0142 165.419 41.7918C165.923 41.2066 166.146 40.8667 166.074 40.7944C166.04 40.7597 165.977 40.8403 165.934 40.9737ZM100.42 40.8938C100.335 41.1802 100.339 41.4443 100.429 41.4443C100.492 41.4443 100.544 41.3136 100.544 41.1544C100.544 40.9244 100.462 40.752 100.42 40.8938ZM186.968 41.6215C186.77 41.8467 186.609 42.0656 186.609 42.108C186.609 42.1504 186.648 42.1358 186.696 42.0753C186.745 42.0149 186.937 41.7959 187.124 41.5888C187.31 41.3817 187.432 41.2121 187.395 41.2121C187.358 41.2121 187.166 41.3963 186.968 41.6215ZM145.064 41.6215C144.989 41.7813 144.978 41.9071 145.039 41.9071C145.168 41.9071 145.295 41.6166 145.238 41.4519C145.216 41.388 145.138 41.4644 145.064 41.6215ZM177.979 41.6757C177.852 41.7306 177.796 41.7793 177.855 41.7834C177.915 41.7876 177.781 41.9606 177.558 42.1678C177.334 42.3749 177.058 42.7008 176.942 42.8919C176.827 43.0831 176.782 43.1873 176.842 43.1234C177.628 42.2942 178.294 41.5617 178.257 41.568C178.232 41.5721 178.107 41.6208 177.979 41.6757ZM189.753 41.8613C189.667 41.9586 189.62 42.0614 189.648 42.0892C189.676 42.1177 189.794 42.0357 189.909 41.9078C190.024 41.7799 190.072 41.6778 190.015 41.6799C189.957 41.6826 189.84 41.764 189.753 41.8613ZM234.911 42.2275C234.911 42.297 234.829 42.436 234.729 42.5361C234.629 42.6362 234.601 42.7182 234.667 42.7182C234.814 42.7182 235.072 42.2616 234.979 42.1678C234.942 42.1309 234.911 42.1573 234.911 42.2275ZM102.189 42.3936C102.026 42.5577 102.007 42.7182 102.153 42.7182C102.209 42.7182 102.282 42.6139 102.315 42.4868C102.386 42.2164 102.375 42.2081 102.189 42.3936ZM120.647 42.5153C120.69 42.6591 120.773 42.8273 120.832 42.8892C120.889 42.9517 120.879 42.8343 120.807 42.6285C120.66 42.2081 120.525 42.1122 120.647 42.5153ZM189.017 42.6105C188.602 43.0581 188.785 43.0511 189.215 42.6021C189.398 42.411 189.499 42.2581 189.439 42.263C189.38 42.2671 189.189 42.4235 189.017 42.6105ZM144.854 42.7523C144.805 42.8662 144.797 42.992 144.836 43.0323C144.954 43.1498 145.049 42.9844 144.995 42.7564C144.947 42.5542 144.94 42.5535 144.854 42.7523ZM155.226 42.7981C155.222 42.9378 155.165 43.0845 155.1 43.1248C155.035 43.1651 155.014 43.2485 155.052 43.3103C155.09 43.3722 155.052 43.5126 154.967 43.621C154.828 43.7996 154.832 43.8031 155.017 43.6585C155.128 43.5703 155.212 43.4396 155.201 43.3687C155.19 43.2978 155.22 43.1498 155.268 43.0407C155.316 42.9309 155.329 42.7745 155.296 42.6932C155.263 42.6112 155.232 42.6584 155.226 42.7981ZM99.8571 43.384C99.8647 43.6662 99.8766 43.6766 99.9648 43.4709C100.101 43.1547 100.101 43.0657 99.9648 43.0657C99.9016 43.0657 99.8529 43.2089 99.8571 43.384ZM211.252 43.5911C210.963 43.9782 211 44.086 211.294 43.7121C211.429 43.5411 211.52 43.3826 211.497 43.3604C211.474 43.3381 211.364 43.4417 211.252 43.5911ZM86.8015 43.6919C86.8105 43.8448 86.8571 43.9463 86.9051 43.9164C87.0274 43.8406 87.0135 43.4132 86.8884 43.4132C86.8314 43.4132 86.7918 43.5383 86.8015 43.6919ZM176.473 43.6175C176.319 43.7308 176.015 44.3257 176.079 44.3897C176.106 44.4168 176.241 44.2347 176.378 43.9845C176.515 43.7336 176.619 43.53 176.608 43.5307C176.598 43.532 176.537 43.571 176.473 43.6175ZM108.12 44.3111C107.865 44.5495 107.617 44.8477 107.569 44.9735C107.521 45.0986 107.501 45.1771 107.525 45.1472C107.549 45.1173 107.819 44.8192 108.126 44.4849C108.78 43.7725 108.777 43.6961 108.12 44.3111ZM113.865 43.9748C113.865 44.0283 113.977 44.1714 114.114 44.2931L114.365 44.5134L114.16 44.1951C113.948 43.8663 113.865 43.8045 113.865 43.9748ZM154.953 44.0311C154.825 44.3591 154.846 44.5266 154.997 44.3751C155.067 44.3056 155.104 44.152 155.081 44.0338C155.039 43.826 155.034 43.826 154.953 44.0311ZM187.645 44.4265C187.383 44.9485 187.387 44.9999 187.657 44.5954C187.797 44.3862 187.887 44.1902 187.858 44.161C187.828 44.1311 187.732 44.2507 187.645 44.4265ZM89.945 44.5718C89.904 44.6385 89.9742 44.6725 90.109 44.6524C90.4419 44.6017 90.5545 44.4557 90.2612 44.4557C90.1271 44.4557 89.9846 44.5078 89.945 44.5718ZM131.125 44.5377C130.912 44.6156 129.623 45.9771 129.621 46.1272C129.619 46.1863 129.803 46.0195 130.028 45.7554C130.254 45.492 130.655 45.0916 130.918 44.8658C131.182 44.6406 131.375 44.4599 131.348 44.4647C131.321 44.4696 131.22 44.5023 131.125 44.5377ZM136.337 44.5183C136.337 44.6566 136.803 45.0708 136.876 44.9978C136.919 44.954 136.9 44.9193 136.833 44.9193C136.766 44.9193 136.684 44.815 136.65 44.6871C136.598 44.4863 136.337 44.3459 136.337 44.5183ZM144.566 44.5718C144.454 44.8665 144.455 45.1868 144.569 45.0736C144.64 45.002 144.674 44.847 144.643 44.7288C144.613 44.6107 144.578 44.5398 144.566 44.5718ZM204.636 45.8047C204.645 46.4712 204.684 47.0481 204.723 47.0877C204.763 47.1266 204.795 46.6053 204.795 45.9298C204.795 45.2543 204.755 44.6767 204.708 44.6475C204.66 44.6176 204.628 45.1389 204.636 45.8047ZM121.223 44.9318C121.29 45.2779 121.395 45.3564 121.395 45.0611C121.395 44.9269 121.345 44.7865 121.285 44.749C121.224 44.7115 121.196 44.7928 121.223 44.9318ZM210.291 45.1611C210.189 45.3585 210.126 45.5406 210.152 45.5656C210.177 45.5906 210.284 45.4294 210.389 45.207C210.628 44.7073 210.545 44.6698 210.291 45.1611ZM155.028 45.0923C154.992 45.1875 154.915 45.2362 154.858 45.2014C154.801 45.166 154.755 45.1924 154.755 45.2598C154.755 45.4648 154.97 45.3967 155.102 45.1507C155.17 45.0235 155.197 44.9193 155.16 44.9193C155.124 44.9193 155.065 44.9971 155.028 45.0923ZM107.215 45.4864C107.105 45.608 107.059 45.7338 107.112 45.7665C107.165 45.7991 107.268 45.6998 107.34 45.5462C107.499 45.2091 107.476 45.198 107.215 45.4864ZM187.014 45.6143C186.915 45.8054 186.876 45.9618 186.928 45.9618C186.979 45.9618 187.08 45.8054 187.152 45.6143C187.224 45.4231 187.263 45.2668 187.238 45.2668C187.214 45.2668 187.113 45.4231 187.014 45.6143ZM144.213 46.0125C144.213 46.1042 144.266 46.212 144.33 46.2509C144.393 46.2905 144.445 46.2155 144.445 46.0841C144.445 45.9527 144.393 45.8457 144.33 45.8457C144.266 45.8457 144.213 45.9208 144.213 46.0125ZM228.363 46.2662C228.322 46.449 228.269 46.6637 228.245 46.7437C228.22 46.8229 228.245 46.8882 228.3 46.8882C228.354 46.8882 228.423 46.6929 228.453 46.4538C228.519 45.9249 228.463 45.8096 228.363 46.2662ZM172.967 46.6568C172.967 46.8792 172.991 46.9709 173.02 46.859C173.049 46.7478 173.049 46.565 173.02 46.4538C172.991 46.3426 172.967 46.4337 172.967 46.6568ZM121.162 46.8236C121.162 46.9153 121.214 47.0223 121.278 47.062C121.342 47.1016 121.395 47.0265 121.395 46.8952C121.395 46.7638 121.342 46.6568 121.278 46.6568C121.214 46.6568 121.162 46.7318 121.162 46.8236ZM161.008 46.8889C160.861 47.0168 160.766 47.1468 160.798 47.178C160.828 47.2093 160.976 47.1044 161.126 46.9459C161.452 46.5984 161.382 46.565 161.008 46.8889ZM175.261 46.7145C175.162 47.2322 175.163 47.2607 175.276 47.1474C175.341 47.0821 175.37 46.932 175.339 46.8138C175.309 46.6957 175.274 46.6505 175.261 46.7145ZM97.5851 47.153C97.2974 47.4866 97.2891 47.618 97.5719 47.3601C97.7415 47.2058 97.8798 47.0627 97.8798 47.0418C97.8798 46.9542 97.697 47.0237 97.5851 47.153ZM209.464 47.2065C209.425 47.3184 209.371 47.4484 209.345 47.4963C209.319 47.5443 209.348 47.5832 209.407 47.5832C209.467 47.5832 209.541 47.4532 209.572 47.2934C209.635 46.9605 209.571 46.9077 209.464 47.2065ZM144.111 47.3129C144.104 47.3872 144.064 47.5436 144.022 47.6604C143.965 47.8251 143.98 47.8431 144.091 47.7403C144.17 47.6673 144.21 47.5109 144.18 47.3928C144.15 47.2746 144.118 47.2385 144.111 47.3129ZM204.487 47.9606C204.474 48.3561 204.489 48.395 204.563 48.1622C204.686 47.7771 204.699 47.4671 204.592 47.4678C204.544 47.4685 204.497 47.6895 204.487 47.9606ZM206.995 47.718C206.995 47.8563 207.032 47.9328 207.076 47.889C207.201 47.7632 207.219 47.4671 207.101 47.4671C207.043 47.4671 206.995 47.5804 206.995 47.718ZM234.767 47.873C234.737 48.0322 234.756 48.1622 234.811 48.1622C234.866 48.1622 234.911 48.0322 234.911 47.873C234.911 47.7139 234.891 47.5832 234.867 47.5832C234.842 47.5832 234.797 47.7139 234.767 47.873ZM209.234 48.3408C209.17 48.6938 209.154 49.0052 209.2 49.033C209.281 49.0837 209.47 47.8181 209.392 47.741C209.369 47.718 209.298 47.9877 209.234 48.3408ZM128.775 48.7703C128.743 48.9774 128.763 49.1963 128.82 49.2568C128.882 49.3228 128.923 49.1706 128.923 48.8808C128.923 48.2998 128.856 48.2497 128.775 48.7703ZM143.857 48.5388C143.784 48.7786 143.792 48.9732 143.876 48.9732C143.934 48.9732 143.982 48.869 143.982 48.7418C143.982 48.5555 143.895 48.4144 143.857 48.5388ZM95.5926 48.8829C95.4487 48.9524 95.332 49.0538 95.332 49.1094C95.332 49.165 95.4619 49.1247 95.6211 49.0205C96.0464 48.7418 96.0311 48.6716 95.5926 48.8829ZM227.85 49.0309C227.732 49.6495 227.733 49.7252 227.855 49.5195C227.921 49.4062 227.953 49.2241 227.924 49.1143C227.896 49.0052 227.862 48.9677 227.85 49.0309ZM94.7641 49.3888C94.548 49.5424 94.4278 49.6682 94.4973 49.6682C94.5668 49.6682 94.7704 49.5396 94.949 49.3826C95.3584 49.0219 95.2764 49.0246 94.7641 49.3888ZM186.182 49.7843C186.182 50.1978 186.203 50.3674 186.229 50.1603C186.255 49.9532 186.255 49.6147 186.229 49.4076C186.203 49.2005 186.182 49.3701 186.182 49.7843ZM174.759 49.3603C174.726 49.4458 174.746 49.589 174.803 49.6786C174.878 49.7975 174.906 49.7551 174.907 49.5237C174.91 49.1775 174.853 49.115 174.759 49.3603ZM225.317 49.5466C225.249 49.7412 225.218 49.8997 225.248 49.8997C225.326 49.8997 225.545 49.2985 225.488 49.2408C225.461 49.2144 225.384 49.352 225.317 49.5466ZM209.109 49.7259C209.111 49.981 209.134 50.0713 209.162 49.9275C209.19 49.7836 209.189 49.5751 209.16 49.4639C209.131 49.3534 209.109 49.4715 209.109 49.7259ZM153.911 49.9386C153.782 50.2666 153.803 50.4341 153.955 50.2826C154.024 50.2131 154.062 50.0595 154.038 49.9414C153.996 49.7335 153.991 49.7336 153.911 49.9386ZM161.861 50.5342C161.998 50.8191 162.148 51.0541 162.195 51.0554C162.242 51.0568 162.167 50.8233 162.027 50.537C161.888 50.2499 161.738 50.0157 161.693 50.0157C161.649 50.0157 161.725 50.2492 161.861 50.5342ZM209.144 50.596C209.208 51.1576 209.391 51.8721 209.494 51.9652C209.541 52.0076 209.551 51.9583 209.514 51.8547C209.477 51.7518 209.409 51.4127 209.365 51.102C209.268 50.4348 209.076 49.9928 209.144 50.596ZM143.486 50.6336C143.357 50.9616 143.378 51.1291 143.53 50.9776C143.599 50.9081 143.637 50.7545 143.613 50.6364C143.571 50.4286 143.566 50.4286 143.486 50.6336ZM129.275 50.6593C129.282 50.8539 129.61 51.3564 129.611 51.1743C129.611 51.0784 129.534 50.8991 129.441 50.7754C129.347 50.6517 129.273 50.5995 129.275 50.6593ZM113.237 51.1243C113.01 51.3501 112.995 51.4829 113.217 51.2994C113.335 51.2014 114.324 51.1736 116.808 51.1979C118.694 51.2167 120.236 51.1986 120.236 51.1576C120.236 50.8588 113.533 50.8275 113.237 51.1243ZM106.572 51.1743C106.574 51.2695 106.65 51.4467 106.741 51.5677C106.833 51.6886 106.875 51.8401 106.836 51.904C106.795 51.9708 106.821 51.9847 106.898 51.9374C106.973 51.8915 107.062 51.9311 107.098 52.0264C107.135 52.1209 107.252 52.2321 107.358 52.2731C107.478 52.319 107.434 52.2237 107.241 52.0215C107.07 51.8422 106.849 51.5392 106.749 51.348C106.65 51.1569 106.57 51.0784 106.572 51.1743ZM153.725 51.2375C153.718 51.3682 153.649 51.5378 153.573 51.6142C153.465 51.7227 153.465 51.7532 153.577 51.7532C153.757 51.7532 153.864 51.4836 153.793 51.2097C153.746 51.029 153.737 51.0332 153.725 51.2375ZM227.44 51.4057C227.396 51.5426 227.387 51.6809 227.419 51.7129C227.45 51.7449 227.512 51.6587 227.556 51.5218C227.599 51.3849 227.609 51.2466 227.577 51.2146C227.545 51.1826 227.484 51.2688 227.44 51.4057ZM186.352 51.8401C186.384 52.0152 186.488 52.2627 186.581 52.3905L186.753 52.622L186.672 52.3905C186.629 52.2627 186.563 52.0152 186.528 51.8401C186.492 51.665 186.425 51.5218 186.378 51.5218C186.331 51.5218 186.319 51.665 186.352 51.8401ZM201.261 51.5906C201.794 51.6775 202.684 51.6886 202.634 51.6087C202.604 51.5607 202.231 51.5287 201.805 51.5371C201.379 51.5461 201.134 51.5697 201.261 51.5906ZM119.586 52.1626C119.48 52.3238 119.417 52.4781 119.444 52.5059C119.472 52.5344 119.587 52.4024 119.699 52.2133C119.945 51.7942 119.854 51.7532 119.586 52.1626ZM202.833 51.9847C202.833 52.0806 202.909 52.2599 203.003 52.3836C203.219 52.6699 203.216 52.4816 202.999 52.1007C202.903 51.9325 202.833 51.8839 202.833 51.9847ZM223.902 52.2231C223.763 52.4183 223.669 52.597 223.693 52.6206C223.717 52.6442 223.853 52.4844 223.996 52.2661C224.319 51.7734 224.246 51.74 223.902 52.2231ZM85.3837 52.0625C85.3761 52.1369 85.3365 52.2932 85.2948 52.41C85.2371 52.5747 85.2524 52.5921 85.3636 52.4892C85.4428 52.417 85.4824 52.2606 85.4525 52.1417C85.4219 52.0236 85.3907 51.9881 85.3837 52.0625ZM162.687 52.2022C162.78 52.5045 163.204 53.2593 163.282 53.2593C163.333 53.2593 162.76 52.0834 162.661 51.9847C162.628 51.9527 162.64 52.0507 162.687 52.2022ZM227.238 52.5059C227.207 52.6658 227.227 52.7957 227.282 52.7957C227.337 52.7957 227.382 52.6658 227.382 52.5059C227.382 52.3468 227.362 52.2168 227.338 52.2168C227.313 52.2168 227.268 52.3468 227.238 52.5059ZM202.416 53.3392C202.301 53.5151 202.111 53.7611 201.994 53.8862C201.878 54.0113 201.782 54.1628 201.782 54.2226C201.782 54.283 201.997 54.062 202.26 53.7326C202.523 53.4025 202.712 53.1071 202.681 53.0765C202.651 53.0452 202.531 53.1641 202.416 53.3392ZM270.877 53.3747C270.834 53.5748 270.822 53.7632 270.851 53.7924C270.881 53.8222 270.938 53.6798 270.979 53.4761C271.075 52.9931 270.982 52.9 270.877 53.3747ZM143.069 53.2204C143.061 53.2947 143.022 53.4511 142.98 53.5679C142.922 53.7326 142.937 53.7507 143.049 53.6478C143.128 53.5748 143.167 53.4185 143.138 53.3003C143.107 53.1821 143.076 53.146 143.069 53.2204ZM186.956 53.2878C186.956 53.392 187.012 53.5116 187.08 53.5533C187.279 53.6763 187.298 53.5665 187.12 53.3239C186.983 53.1356 186.956 53.13 186.956 53.2878ZM85.1391 53.2593C85.032 53.6082 85.0376 53.8758 85.1481 53.6888C85.2155 53.5755 85.2447 53.4192 85.2134 53.3413C85.1822 53.2642 85.1488 53.2273 85.1391 53.2593ZM173.982 53.433C173.982 53.5283 174.035 53.6068 174.099 53.6068C174.162 53.6068 174.215 53.5283 174.215 53.433C174.215 53.3371 174.162 53.2593 174.099 53.2593C174.035 53.2593 173.982 53.3371 173.982 53.433ZM247.826 53.8987C247.572 54.1183 247.428 54.299 247.508 54.2997C247.588 54.3011 247.653 54.2497 247.653 54.1857C247.653 54.1218 247.718 54.0683 247.798 54.0662C247.877 54.0641 248.036 53.9341 248.15 53.7764C248.421 53.4053 248.383 53.4191 247.826 53.8987ZM153.217 53.7924C153.171 53.8389 153.132 53.9571 153.132 54.0544C153.132 54.185 153.167 54.1975 153.262 54.103C153.333 54.0321 153.37 53.9147 153.346 53.841C153.321 53.768 153.264 53.7458 153.217 53.7924ZM173.9 54.4102C173.837 54.7285 173.825 54.9641 173.874 54.9343C173.978 54.8696 174.146 53.9626 174.068 53.8848C174.039 53.8556 173.963 54.0919 173.9 54.4102ZM117.736 54.5742C117.696 54.6785 117.616 54.7348 117.559 54.6993C117.502 54.6639 117.456 54.698 117.456 54.7744C117.456 54.8509 117.365 54.9822 117.253 55.067C117.142 55.1518 117.106 55.2227 117.174 55.2248C117.347 55.2296 117.976 54.552 117.885 54.4603C117.843 54.4186 117.776 54.4693 117.736 54.5742ZM233.641 54.8231C233.646 54.9655 234.089 55.5097 234.151 55.4472C234.175 55.4221 234.07 55.2456 233.917 55.0545C233.764 54.8634 233.639 54.7591 233.641 54.8231ZM142.676 55.1824C142.63 55.2289 142.592 55.3471 142.592 55.4444C142.592 55.575 142.626 55.5876 142.721 55.493C142.791 55.4221 142.83 55.3047 142.805 55.231C142.78 55.158 142.723 55.1358 142.676 55.1824ZM116.703 55.4597C116.587 55.5882 116.518 55.7189 116.55 55.7509C116.582 55.7829 116.703 55.7036 116.819 55.5757C116.935 55.4479 117.003 55.3165 116.972 55.2845C116.94 55.2526 116.819 55.3318 116.703 55.4597ZM234.326 55.7717C234.481 56.0928 234.641 56.1964 234.641 55.9761C234.641 55.8836 234.616 55.8329 234.584 55.8635C234.554 55.8941 234.455 55.8294 234.366 55.7189C234.22 55.5375 234.215 55.5431 234.326 55.7717ZM164.537 55.9809C164.586 56.1088 164.653 56.3041 164.685 56.4153C164.717 56.5272 164.79 56.6182 164.848 56.6182C164.906 56.6182 164.868 56.4487 164.762 56.2416C164.537 55.7981 164.41 55.6515 164.537 55.9809ZM115.689 56.261C115.226 56.5578 115.14 56.678 115.545 56.4633C116.03 56.2061 116.261 56.0414 116.124 56.049C116.06 56.0532 115.864 56.1484 115.689 56.261ZM142.475 56.3868C142.383 56.5752 142.405 56.9671 142.502 56.8698C142.564 56.8087 142.589 56.662 142.558 56.5439C142.528 56.4257 142.49 56.3548 142.475 56.3868ZM186.956 56.8796C186.956 56.9032 187.112 57.038 187.304 57.1791C187.495 57.3202 187.651 57.3939 187.651 57.3417C187.651 57.2896 187.495 57.1548 187.304 57.0422C187.112 56.9289 186.956 56.8559 186.956 56.8796ZM152.683 57.1972C152.648 57.7782 152.69 57.7706 149.188 57.8053L145.893 57.838L149.219 57.8651C152.878 57.895 152.892 57.8922 152.75 57.1624C152.705 56.9296 152.699 56.9324 152.683 57.1972ZM79.2093 57.863C80.1844 57.8825 81.7482 57.8825 82.6843 57.863C83.6198 57.8435 82.8219 57.8275 80.9107 57.8282C78.9994 57.8282 78.2335 57.8435 79.2093 57.863ZM159.417 57.863C160.483 57.8825 162.23 57.8825 163.297 57.863C164.364 57.8442 163.491 57.8282 161.357 57.8282C159.223 57.8282 158.35 57.8442 159.417 57.863ZM245.105 58.0082C244.95 58.1083 244.95 58.1208 245.105 58.1208C245.2 58.1208 245.356 58.0701 245.452 58.0082C245.606 57.9082 245.606 57.8957 245.452 57.8957C245.356 57.8957 245.2 57.9464 245.105 58.0082ZM106.134 58.1243C106.159 58.2195 106.307 58.3078 106.461 58.3189C106.682 58.3363 106.692 58.3273 106.51 58.2765C106.382 58.2418 106.235 58.1542 106.182 58.0819C106.119 57.995 106.102 58.0089 106.134 58.1243ZM244.524 58.1834C244.368 58.3717 244.49 58.4107 244.741 58.2529C244.836 58.1924 244.852 58.125 244.782 58.0819C244.719 58.043 244.603 58.0882 244.524 58.1834Z" fill="white"/>
</svg>
